<ttFont>
    <TTGlyph name=".notdef" xMin="166" yMin="0" xMax="1359" yMax="1308">
      <contour>
        <pt x="166" y="1308" on="1"/>
        <pt x="1359" y="1308" on="1"/>
        <pt x="1359" y="0" on="1"/>
        <pt x="166" y="0" on="1"/>
      </contour>
      <contour>
        <pt x="342" y="314" on="1"/>
        <pt x="342" y="314" on="0"/>
        <pt x="431" y="226" on="1"/>
        <pt x="760" y="554" on="1"/>
        <pt x="1096" y="217" on="1"/>
        <pt x="1188" y="308" on="1"/>
        <pt x="851" y="646" on="1"/>
        <pt x="1180" y="975" on="1"/>
        <pt x="1091" y="1063" on="1"/>
        <pt x="763" y="734" on="1"/>
        <pt x="426" y="1072" on="1"/>
        <pt x="334" y="981" on="1"/>
        <pt x="671" y="643" on="1"/>
      </contour>
    </TTGlyph>
    <TTGlyph name=".ttfautohint" xMin="0" yMin="0" xMax="0" yMax="0">
      <contour>
        <pt x="0" y="0" on="1"/>
      </contour>
    </TTGlyph>
    <TTGlyph name="A" xMin="-30" yMin="-15" xMax="1766" yMax="1601">
      <contour>
        <pt x="196" y="0" on="1"/>
        <pt x="53" y="-15" on="1"/>
        <pt x="11" y="-15" on="0"/>
        <pt x="-30" y="25" on="0"/>
        <pt x="-30" y="43" on="1"/>
        <pt x="-30" y="89" on="0"/>
        <pt x="9" y="89" on="1"/>
        <pt x="58" y="83" on="1"/>
        <pt x="104" y="83" on="0"/>
        <pt x="132" y="118" on="1"/>
        <pt x="182" y="182" on="0"/>
        <pt x="268" y="367" on="1"/>
        <pt x="804" y="1526" on="1"/>
        <pt x="833" y="1588" on="0"/>
        <pt x="856" y="1601" on="0"/>
        <pt x="875" y="1601" on="0"/>
        <pt x="896" y="1586" on="0"/>
        <pt x="909" y="1566" on="1"/>
        <pt x="935" y="1527" on="0"/>
        <pt x="979" y="1430" on="1"/>
        <pt x="1508" y="275" on="1"/>
        <pt x="1559" y="164" on="0"/>
        <pt x="1591" y="131" on="1"/>
        <pt x="1638" y="83" on="0"/>
        <pt x="1678" y="83" on="1"/>
        <pt x="1728" y="90" on="1"/>
        <pt x="1748" y="90" on="0"/>
        <pt x="1766" y="61" on="0"/>
        <pt x="1766" y="23" on="0"/>
        <pt x="1725" y="-15" on="0"/>
        <pt x="1680" y="-15" on="1"/>
        <pt x="1483" y="0" on="1"/>
        <pt x="1235" y="-15" on="1"/>
        <pt x="1162" y="-15" on="0"/>
        <pt x="1140" y="26" on="1"/>
        <pt x="1135" y="37" on="0"/>
        <pt x="1135" y="46" on="1"/>
        <pt x="1135" y="89" on="0"/>
        <pt x="1172" y="89" on="1"/>
        <pt x="1244" y="80" on="1"/>
        <pt x="1305" y="80" on="0"/>
        <pt x="1305" y="115" on="1"/>
        <pt x="1305" y="157" on="0"/>
        <pt x="1264" y="246" on="1"/>
        <pt x="1195" y="378" on="1"/>
        <pt x="1181" y="407" on="0"/>
        <pt x="1130" y="436" on="0"/>
        <pt x="1077" y="436" on="1"/>
        <pt x="553" y="436" on="1"/>
        <pt x="450" y="436" on="0"/>
        <pt x="423" y="372" on="1"/>
        <pt x="394" y="286" on="1"/>
        <pt x="341" y="161" on="0"/>
        <pt x="339" y="127" on="1"/>
        <pt x="339" y="83" on="0"/>
        <pt x="411" y="83" on="1"/>
        <pt x="461" y="90" on="1"/>
        <pt x="478" y="90" on="0"/>
        <pt x="499" y="63" on="0"/>
        <pt x="499" y="22" on="0"/>
        <pt x="448" y="-15" on="0"/>
        <pt x="397" y="-15" on="1"/>
      </contour>
      <contour>
        <pt x="986" y="564" on="1"/>
        <pt x="1098" y="564" on="0"/>
        <pt x="1098" y="591" on="1"/>
        <pt x="1098" y="597" on="0"/>
        <pt x="1090" y="615" on="1"/>
        <pt x="875" y="1139" on="1"/>
        <pt x="838" y="1233" on="0"/>
        <pt x="821" y="1233" on="1"/>
        <pt x="803" y="1233" on="0"/>
        <pt x="774" y="1164" on="1"/>
        <pt x="542" y="634" on="1"/>
        <pt x="528" y="603" on="0"/>
        <pt x="528" y="591" on="1"/>
        <pt x="528" y="564" on="0"/>
        <pt x="639" y="564" on="1"/>
      </contour>
    </TTGlyph>
    <TTGlyph name="AE" xMin="-240" yMin="-15" xMax="2059" yMax="1559">
      <contour>
        <pt x="219" y="0" on="1"/>
        <pt x="11" y="15" on="1"/>
        <pt x="-37" y="15" on="0"/>
        <pt x="-129" y="0" on="0"/>
        <pt x="-203" y="0" on="0"/>
        <pt x="-240" y="38" on="0"/>
        <pt x="-240" y="73" on="0"/>
        <pt x="-218" y="104" on="0"/>
        <pt x="-195" y="104" on="1"/>
        <pt x="-148" y="98" on="1"/>
        <pt x="-95" y="98" on="0"/>
        <pt x="-48" y="132" on="1"/>
        <pt x="46" y="201" on="0"/>
        <pt x="188" y="401" on="1"/>
        <pt x="868" y="1362" on="1"/>
        <pt x="901" y="1409" on="0"/>
        <pt x="901" y="1453" on="0"/>
        <pt x="853" y="1461" on="0"/>
        <pt x="822" y="1461" on="1"/>
        <pt x="772" y="1455" on="1"/>
        <pt x="754" y="1455" on="0"/>
        <pt x="734" y="1481" on="0"/>
        <pt x="734" y="1506" on="0"/>
        <pt x="743" y="1528" on="0"/>
        <pt x="754" y="1537" on="1"/>
        <pt x="779" y="1559" on="0"/>
        <pt x="869" y="1559" on="0"/>
        <pt x="933" y="1554" on="0"/>
        <pt x="966" y="1551" on="1"/>
        <pt x="1052" y="1543" on="0"/>
        <pt x="1124" y="1543" on="1"/>
        <pt x="1881" y="1543" on="1"/>
        <pt x="1891" y="1464" on="0"/>
        <pt x="1917" y="1377" on="1"/>
        <pt x="1954" y="1254" on="1"/>
        <pt x="1964" y="1218" on="0"/>
        <pt x="1964" y="1205" on="1"/>
        <pt x="1964" y="1176" on="0"/>
        <pt x="1942" y="1176" on="1"/>
        <pt x="1924" y="1176" on="0"/>
        <pt x="1872" y="1241" on="0"/>
        <pt x="1805" y="1316" on="0"/>
        <pt x="1762" y="1346" on="1"/>
        <pt x="1663" y="1414" on="0"/>
        <pt x="1529" y="1414" on="1"/>
        <pt x="1259" y="1414" on="1"/>
        <pt x="1206" y="1414" on="0"/>
        <pt x="1166" y="1368" on="0"/>
        <pt x="1166" y="1325" on="1"/>
        <pt x="1166" y="916" on="1"/>
        <pt x="1166" y="863" on="0"/>
        <pt x="1253" y="863" on="1"/>
        <pt x="1502" y="863" on="1"/>
        <pt x="1571" y="863" on="0"/>
        <pt x="1629" y="933" on="1"/>
        <pt x="1649" y="957" on="0"/>
        <pt x="1669" y="1004" on="0"/>
        <pt x="1681" y="1020" on="0"/>
        <pt x="1693" y="1020" on="1"/>
        <pt x="1725" y="1020" on="0"/>
        <pt x="1725" y="964" on="1"/>
        <pt x="1717" y="803" on="1"/>
        <pt x="1717" y="758" on="0"/>
        <pt x="1721" y="718" on="1"/>
        <pt x="1721" y="712" on="1"/>
        <pt x="1725" y="680" on="0"/>
        <pt x="1725" y="589" on="0"/>
        <pt x="1693" y="589" on="1"/>
        <pt x="1681" y="589" on="0"/>
        <pt x="1670" y="605" on="0"/>
        <pt x="1650" y="652" on="0"/>
        <pt x="1609" y="696" on="0"/>
        <pt x="1586" y="710" on="1"/>
        <pt x="1546" y="734" on="0"/>
        <pt x="1502" y="734" on="1"/>
        <pt x="1252" y="734" on="1"/>
        <pt x="1211" y="734" on="0"/>
        <pt x="1166" y="698" on="0"/>
        <pt x="1166" y="672" on="1"/>
        <pt x="1166" y="264" on="1"/>
        <pt x="1166" y="129" on="0"/>
        <pt x="1259" y="129" on="1"/>
        <pt x="1469" y="129" on="1"/>
        <pt x="1717" y="129" on="0"/>
        <pt x="1858" y="240" on="1"/>
        <pt x="1899" y="273" on="0"/>
        <pt x="1934" y="308" on="1"/>
        <pt x="1972" y="346" on="1"/>
        <pt x="2005" y="379" on="0"/>
        <pt x="2029" y="383" on="0"/>
        <pt x="2035" y="384" on="1"/>
        <pt x="2059" y="384" on="0"/>
        <pt x="2059" y="337" on="0"/>
        <pt x="2022" y="272" on="1"/>
        <pt x="1952" y="151" on="0"/>
        <pt x="1900" y="0" on="1"/>
        <pt x="1065" y="0" on="1"/>
        <pt x="1026" y="0" on="0"/>
        <pt x="996" y="-2" on="1"/>
        <pt x="880" y="-12" on="1"/>
        <pt x="849" y="-15" on="0"/>
        <pt x="782" y="-15" on="0"/>
        <pt x="746" y="-2" on="0"/>
        <pt x="735" y="7" on="1"/>
        <pt x="715" y="23" on="0"/>
        <pt x="715" y="61" on="0"/>
        <pt x="735" y="90" on="0"/>
        <pt x="753" y="90" on="1"/>
        <pt x="818" y="83" on="1"/>
        <pt x="873" y="83" on="0"/>
        <pt x="903" y="132" on="0"/>
        <pt x="917" y="173" on="0"/>
        <pt x="922" y="203" on="1"/>
        <pt x="930" y="260" on="0"/>
        <pt x="930" y="381" on="1"/>
        <pt x="930" y="466" on="1"/>
        <pt x="477" y="466" on="1"/>
        <pt x="407" y="466" on="0"/>
        <pt x="377" y="430" on="1"/>
        <pt x="367" y="418" on="0"/>
        <pt x="356" y="402" on="1"/>
        <pt x="209" y="193" on="1"/>
        <pt x="182" y="155" on="0"/>
        <pt x="181" y="135" on="1"/>
        <pt x="181" y="98" on="0"/>
        <pt x="246" y="98" on="1"/>
        <pt x="297" y="105" on="1"/>
        <pt x="312" y="105" on="0"/>
        <pt x="330" y="81" on="0"/>
        <pt x="330" y="41" on="0"/>
        <pt x="274" y="0" on="0"/>
      </contour>
      <contour>
        <pt x="522" y="564" on="1"/>
        <pt x="930" y="564" on="1"/>
        <pt x="930" y="1263" on="1"/>
        <pt x="495" y="633" on="1"/>
        <pt x="474" y="604" on="0"/>
        <pt x="474" y="564" on="0"/>
      </contour>
    </TTGlyph>
    <TTGlyph name="AEacute" xMin="-240" yMin="-15" xMax="2059" yMax="2016">
      <component glyphName=".ttfautohint" x="0" y="0" flags="0x0"/>
      <component glyphName="AE" x="0" y="0" flags="0x1204"/>
      <component glyphName="acute.cap" x="688" y="0" flags="0x1004"/>
    </TTGlyph>
    <TTGlyph name="Aacute" xMin="-30" yMin="-15" xMax="1766" yMax="2016">
      <component glyphName=".ttfautohint" x="0" y="0" flags="0x0"/>
      <component glyphName="A" x="0" y="0" flags="0x1204"/>
      <component glyphName="acute.cap" x="532" y="0" flags="0x1004"/>
    </TTGlyph>
    <TTGlyph name="Abreve" xMin="-30" yMin="-15" xMax="1766" yMax="2001">
      <component glyphName=".ttfautohint" x="0" y="0" flags="0x0"/>
      <component glyphName="A" x="0" y="0" flags="0x1204"/>
      <component glyphName="breve.cap" x="344" y="0" flags="0x1004"/>
    </TTGlyph>
    <TTGlyph name="Acircumflex" xMin="-30" yMin="-15" xMax="1766" yMax="2020">
      <component glyphName=".ttfautohint" x="0" y="0" flags="0x0"/>
      <component glyphName="A" x="0" y="0" flags="0x1204"/>
      <component glyphName="circumflex.cap" x="412" y="0" flags="0x1004"/>
    </TTGlyph>
    <TTGlyph name="Adieresis" xMin="-30" yMin="-15" xMax="1766" yMax="1972">
      <component glyphName=".ttfautohint" x="0" y="0" flags="0x0"/>
      <component glyphName="A" x="0" y="0" flags="0x1204"/>
      <component glyphName="dieresis.cap" x="319" y="0" flags="0x1004"/>
    </TTGlyph>
    <TTGlyph name="Agrave" xMin="-30" yMin="-15" xMax="1766" yMax="2016">
      <component glyphName=".ttfautohint" x="0" y="0" flags="0x0"/>
      <component glyphName="A" x="0" y="0" flags="0x1204"/>
      <component glyphName="grave.cap" x="532" y="0" flags="0x1004"/>
    </TTGlyph>
    <TTGlyph name="Amacron" xMin="-30" yMin="-15" xMax="1766" yMax="1929">
      <component glyphName=".ttfautohint" x="0" y="0" flags="0x0"/>
      <component glyphName="A" x="0" y="0" flags="0x1204"/>
      <component glyphName="macron.cap" x="346" y="0" flags="0x1004"/>
    </TTGlyph>
    <TTGlyph name="Aogonek" xMin="-30" yMin="-465" xMax="1766" yMax="1601">
      <contour>
        <pt x="196" y="0" on="1"/>
        <pt x="53" y="-15" on="1"/>
        <pt x="11" y="-15" on="0"/>
        <pt x="-30" y="25" on="0"/>
        <pt x="-30" y="43" on="1"/>
        <pt x="-30" y="89" on="0"/>
        <pt x="9" y="89" on="1"/>
        <pt x="58" y="83" on="1"/>
        <pt x="104" y="83" on="0"/>
        <pt x="132" y="118" on="1"/>
        <pt x="182" y="182" on="0"/>
        <pt x="268" y="367" on="1"/>
        <pt x="804" y="1526" on="1"/>
        <pt x="833" y="1588" on="0"/>
        <pt x="856" y="1601" on="0"/>
        <pt x="875" y="1601" on="0"/>
        <pt x="896" y="1586" on="0"/>
        <pt x="909" y="1566" on="1"/>
        <pt x="935" y="1527" on="0"/>
        <pt x="979" y="1430" on="1"/>
        <pt x="1508" y="275" on="1"/>
        <pt x="1559" y="164" on="0"/>
        <pt x="1591" y="131" on="1"/>
        <pt x="1638" y="83" on="0"/>
        <pt x="1678" y="83" on="1"/>
        <pt x="1728" y="90" on="1"/>
        <pt x="1748" y="90" on="0"/>
        <pt x="1766" y="61" on="0"/>
        <pt x="1766" y="23" on="0"/>
        <pt x="1725" y="-15" on="0"/>
        <pt x="1659" y="-15" on="0"/>
        <pt x="1562" y="-5" on="1"/>
        <pt x="1497" y="-76" on="0"/>
        <pt x="1497" y="-192" on="1"/>
        <pt x="1497" y="-302" on="0"/>
        <pt x="1598" y="-365" on="1"/>
        <pt x="1633" y="-387" on="0"/>
        <pt x="1670" y="-396" on="1"/>
        <pt x="1724" y="-409" on="0"/>
        <pt x="1724" y="-435" on="1"/>
        <pt x="1724" y="-446" on="0"/>
        <pt x="1705" y="-463" on="0"/>
        <pt x="1690" y="-463" on="1"/>
        <pt x="1469" y="-465" on="1"/>
        <pt x="1372" y="-465" on="0"/>
        <pt x="1342" y="-368" on="1"/>
        <pt x="1331" y="-333" on="0"/>
        <pt x="1331" y="-282" on="1"/>
        <pt x="1331" y="-112" on="0"/>
        <pt x="1442" y="-1" on="1"/>
        <pt x="1391" y="-3" on="0"/>
        <pt x="1290" y="-15" on="0"/>
        <pt x="1208" y="-15" on="0"/>
        <pt x="1170" y="-2" on="0"/>
        <pt x="1158" y="7" on="1"/>
        <pt x="1135" y="24" on="0"/>
        <pt x="1135" y="46" on="1"/>
        <pt x="1135" y="89" on="0"/>
        <pt x="1172" y="89" on="1"/>
        <pt x="1244" y="80" on="1"/>
        <pt x="1305" y="80" on="0"/>
        <pt x="1305" y="115" on="1"/>
        <pt x="1305" y="157" on="0"/>
        <pt x="1264" y="246" on="1"/>
        <pt x="1195" y="378" on="1"/>
        <pt x="1181" y="407" on="0"/>
        <pt x="1130" y="436" on="0"/>
        <pt x="1077" y="436" on="1"/>
        <pt x="553" y="436" on="1"/>
        <pt x="450" y="436" on="0"/>
        <pt x="423" y="372" on="1"/>
        <pt x="394" y="286" on="1"/>
        <pt x="341" y="161" on="0"/>
        <pt x="339" y="127" on="1"/>
        <pt x="339" y="83" on="0"/>
        <pt x="411" y="83" on="1"/>
        <pt x="461" y="90" on="1"/>
        <pt x="478" y="90" on="0"/>
        <pt x="499" y="63" on="0"/>
        <pt x="499" y="22" on="0"/>
        <pt x="448" y="-15" on="0"/>
        <pt x="397" y="-15" on="1"/>
      </contour>
      <contour>
        <pt x="986" y="564" on="1"/>
        <pt x="1098" y="564" on="0"/>
        <pt x="1098" y="591" on="1"/>
        <pt x="1098" y="597" on="0"/>
        <pt x="1090" y="615" on="1"/>
        <pt x="875" y="1139" on="1"/>
        <pt x="838" y="1233" on="0"/>
        <pt x="821" y="1233" on="1"/>
        <pt x="803" y="1233" on="0"/>
        <pt x="774" y="1164" on="1"/>
        <pt x="542" y="634" on="1"/>
        <pt x="528" y="603" on="0"/>
        <pt x="528" y="591" on="1"/>
        <pt x="528" y="564" on="0"/>
        <pt x="639" y="564" on="1"/>
      </contour>
    </TTGlyph>
    <TTGlyph name="Aring" xMin="-30" yMin="-15" xMax="1766" yMax="2010">
      <component glyphName=".ttfautohint" x="0" y="0" flags="0x0"/>
      <component glyphName="A" x="0" y="0" flags="0x1204"/>
      <component glyphName="ring.cap" x="525" y="0" flags="0x1004"/>
    </TTGlyph>
    <TTGlyph name="Atilde" xMin="-30" yMin="-15" xMax="1766" yMax="1940">
      <component glyphName=".ttfautohint" x="0" y="0" flags="0x0"/>
      <component glyphName="A" x="0" y="0" flags="0x1204"/>
      <component glyphName="tilde.cap" x="375" y="0" flags="0x1004"/>
    </TTGlyph>
    <TTGlyph name="B" xMin="104" yMin="-24" xMax="1482" yMax="1592">
      <contour>
        <pt x="444" y="0" on="1"/>
        <pt x="198" y="-14" on="1"/>
        <pt x="126" y="-14" on="0"/>
        <pt x="108" y="28" on="1"/>
        <pt x="104" y="39" on="0"/>
        <pt x="104" y="62" on="0"/>
        <pt x="124" y="90" on="0"/>
        <pt x="143" y="90" on="1"/>
        <pt x="207" y="84" on="1"/>
        <pt x="276" y="84" on="0"/>
        <pt x="299" y="138" on="1"/>
        <pt x="320" y="187" on="0"/>
        <pt x="320" y="316" on="1"/>
        <pt x="320" y="1232" on="1"/>
        <pt x="320" y="1365" on="0"/>
        <pt x="283" y="1447" on="0"/>
        <pt x="232" y="1477" on="0"/>
        <pt x="192" y="1477" on="1"/>
        <pt x="143" y="1471" on="1"/>
        <pt x="124" y="1471" on="0"/>
        <pt x="104" y="1497" on="0"/>
        <pt x="104" y="1523" on="0"/>
        <pt x="113" y="1544" on="0"/>
        <pt x="124" y="1553" on="1"/>
        <pt x="149" y="1575" on="0"/>
        <pt x="238" y="1575" on="0"/>
        <pt x="292" y="1571" on="0"/>
        <pt x="316" y="1568" on="1"/>
        <pt x="374" y="1561" on="0"/>
        <pt x="499" y="1561" on="0"/>
        <pt x="608" y="1571" on="0"/>
        <pt x="659" y="1576" on="1"/>
        <pt x="758" y="1587" on="1"/>
        <pt x="805" y="1592" on="0"/>
        <pt x="945" y="1592" on="0"/>
        <pt x="1096" y="1564" on="0"/>
        <pt x="1207" y="1515" on="0"/>
        <pt x="1281" y="1447" on="0"/>
        <pt x="1304" y="1408" on="1"/>
        <pt x="1345" y="1336" on="0"/>
        <pt x="1345" y="1122" on="0"/>
        <pt x="1203" y="931" on="0"/>
        <pt x="1072" y="874" on="1"/>
        <pt x="1258" y="830" on="0"/>
        <pt x="1369" y="722" on="1"/>
        <pt x="1482" y="612" on="0"/>
        <pt x="1482" y="470" on="1"/>
        <pt x="1482" y="257" on="0"/>
        <pt x="1327" y="122" on="1"/>
        <pt x="1161" y="-24" on="0"/>
        <pt x="870" y="-24" on="1"/>
        <pt x="823" y="-24" on="0"/>
        <pt x="722" y="-16" on="1"/>
        <pt x="522" y="0" on="0"/>
      </contour>
      <contour>
        <pt x="553" y="925" on="1"/>
        <pt x="654" y="906" on="0"/>
        <pt x="846" y="906" on="0"/>
        <pt x="963" y="940" on="0"/>
        <pt x="1006" y="976" on="1"/>
        <pt x="1097" y="1052" on="0"/>
        <pt x="1097" y="1202" on="1"/>
        <pt x="1097" y="1426" on="0"/>
        <pt x="797" y="1426" on="1"/>
        <pt x="665" y="1426" on="0"/>
        <pt x="582" y="1397" on="0"/>
        <pt x="553" y="1359" on="0"/>
        <pt x="553" y="1329" on="1"/>
      </contour>
      <contour>
        <pt x="945" y="760" on="1"/>
        <pt x="855" y="779" on="0"/>
        <pt x="647" y="779" on="0"/>
        <pt x="553" y="764" on="1"/>
        <pt x="553" y="265" on="1"/>
        <pt x="553" y="194" on="0"/>
        <pt x="700" y="127" on="0"/>
        <pt x="938" y="127" on="0"/>
        <pt x="1073" y="158" on="0"/>
        <pt x="1122" y="196" on="1"/>
        <pt x="1228" y="277" on="0"/>
        <pt x="1228" y="460" on="1"/>
        <pt x="1228" y="702" on="0"/>
      </contour>
    </TTGlyph>
    <TTGlyph name="C" xMin="99" yMin="-23" xMax="1553" yMax="1608">
      <contour>
        <pt x="1546" y="208" on="1"/>
        <pt x="1303" y="-23" on="0"/>
        <pt x="943" y="-23" on="1"/>
        <pt x="558" y="-23" on="0"/>
        <pt x="324" y="210" on="1"/>
        <pt x="215" y="317" on="0"/>
        <pt x="99" y="603" on="0"/>
        <pt x="99" y="891" on="0"/>
        <pt x="157" y="1112" on="0"/>
        <pt x="263" y="1296" on="0"/>
        <pt x="414" y="1441" on="0"/>
        <pt x="506" y="1490" on="1"/>
        <pt x="696" y="1592" on="0"/>
        <pt x="932" y="1592" on="1"/>
        <pt x="1102" y="1592" on="0"/>
        <pt x="1259" y="1516" on="1"/>
        <pt x="1288" y="1502" on="0"/>
        <pt x="1336" y="1502" on="0"/>
        <pt x="1415" y="1582" on="0"/>
        <pt x="1444" y="1608" on="0"/>
        <pt x="1458" y="1608" on="1"/>
        <pt x="1486" y="1608" on="0"/>
        <pt x="1486" y="1519" on="0"/>
        <pt x="1489" y="1459" on="0"/>
        <pt x="1493" y="1430" on="1"/>
        <pt x="1501" y="1373" on="0"/>
        <pt x="1518" y="1310" on="1"/>
        <pt x="1553" y="1175" on="0"/>
        <pt x="1553" y="1125" on="0"/>
        <pt x="1527" y="1104" on="0"/>
        <pt x="1514" y="1104" on="1"/>
        <pt x="1482" y="1104" on="0"/>
        <pt x="1468" y="1130" on="1"/>
        <pt x="1296" y="1446" on="0"/>
        <pt x="879" y="1446" on="1"/>
        <pt x="775" y="1446" on="0"/>
        <pt x="580" y="1353" on="0"/>
        <pt x="504" y="1270" on="1"/>
        <pt x="336" y="1088" on="0"/>
        <pt x="336" y="832" on="1"/>
        <pt x="336" y="505" on="0"/>
        <pt x="540" y="308" on="1"/>
        <pt x="733" y="123" on="0"/>
        <pt x="1027" y="123" on="1"/>
        <pt x="1259" y="123" on="0"/>
        <pt x="1380" y="314" on="1"/>
        <pt x="1426" y="386" on="0"/>
        <pt x="1454" y="498" on="1"/>
        <pt x="1470" y="561" on="0"/>
        <pt x="1509" y="561" on="1"/>
        <pt x="1546" y="561" on="0"/>
        <pt x="1546" y="497" on="1"/>
      </contour>
    </TTGlyph>
    <TTGlyph name="Cacute" xMin="99" yMin="-23" xMax="1553" yMax="2016">
      <component glyphName=".ttfautohint" x="99" y="0" flags="0x0"/>
      <component glyphName="C" x="0" y="0" flags="0x1204"/>
      <component glyphName="acute.cap" x="576" y="0" flags="0x1004"/>
    </TTGlyph>
    <TTGlyph name="Ccaron" xMin="99" yMin="-23" xMax="1553" yMax="2020">
      <component glyphName=".ttfautohint" x="99" y="0" flags="0x0"/>
      <component glyphName="C" x="0" y="0" flags="0x1204"/>
      <component glyphName="caron.cap" x="456" y="0" flags="0x1004"/>
    </TTGlyph>
    <TTGlyph name="Ccedilla" xMin="99" yMin="-521" xMax="1553" yMax="1608">
      <contour>
        <pt x="1546" y="208" on="1"/>
        <pt x="1303" y="-23" on="0"/>
        <pt x="943" y="-23" on="1"/>
        <pt x="935" y="-23" on="0"/>
        <pt x="919" y="-23" on="0"/>
        <pt x="911" y="-22" on="1"/>
        <pt x="879" y="-152" on="1"/>
        <pt x="895" y="-152" on="1"/>
        <pt x="1050" y="-152" on="0"/>
        <pt x="1115" y="-248" on="1"/>
        <pt x="1135" y="-277" on="0"/>
        <pt x="1135" y="-352" on="0"/>
        <pt x="1089" y="-427" on="0"/>
        <pt x="1050" y="-456" on="1"/>
        <pt x="964" y="-521" on="0"/>
        <pt x="863" y="-521" on="1"/>
        <pt x="729" y="-521" on="0"/>
        <pt x="657" y="-462" on="1"/>
        <pt x="631" y="-440" on="0"/>
        <pt x="631" y="-389" on="0"/>
        <pt x="661" y="-352" on="0"/>
        <pt x="685" y="-352" on="1"/>
        <pt x="728" y="-352" on="0"/>
        <pt x="764" y="-388" on="1"/>
        <pt x="822" y="-443" on="0"/>
        <pt x="909" y="-443" on="1"/>
        <pt x="945" y="-443" on="0"/>
        <pt x="962" y="-420" on="1"/>
        <pt x="990" y="-381" on="0"/>
        <pt x="990" y="-291" on="0"/>
        <pt x="923" y="-232" on="0"/>
        <pt x="878" y="-232" on="1"/>
        <pt x="807" y="-232" on="0"/>
        <pt x="758" y="-251" on="1"/>
        <pt x="807" y="-14" on="1"/>
        <pt x="480" y="27" on="0"/>
        <pt x="286" y="249" on="1"/>
        <pt x="99" y="463" on="0"/>
        <pt x="99" y="764" on="1"/>
        <pt x="99" y="1139" on="0"/>
        <pt x="338" y="1368" on="1"/>
        <pt x="571" y="1592" on="0"/>
        <pt x="932" y="1592" on="1"/>
        <pt x="1102" y="1592" on="0"/>
        <pt x="1259" y="1516" on="1"/>
        <pt x="1288" y="1502" on="0"/>
        <pt x="1336" y="1502" on="0"/>
        <pt x="1415" y="1582" on="0"/>
        <pt x="1444" y="1608" on="0"/>
        <pt x="1458" y="1608" on="1"/>
        <pt x="1486" y="1608" on="0"/>
        <pt x="1486" y="1519" on="0"/>
        <pt x="1489" y="1459" on="0"/>
        <pt x="1493" y="1430" on="1"/>
        <pt x="1501" y="1373" on="0"/>
        <pt x="1518" y="1310" on="1"/>
        <pt x="1553" y="1175" on="0"/>
        <pt x="1553" y="1125" on="0"/>
        <pt x="1527" y="1104" on="0"/>
        <pt x="1514" y="1104" on="1"/>
        <pt x="1482" y="1104" on="0"/>
        <pt x="1468" y="1130" on="1"/>
        <pt x="1296" y="1446" on="0"/>
        <pt x="879" y="1446" on="1"/>
        <pt x="775" y="1446" on="0"/>
        <pt x="580" y="1353" on="0"/>
        <pt x="504" y="1270" on="1"/>
        <pt x="336" y="1088" on="0"/>
        <pt x="336" y="832" on="1"/>
        <pt x="336" y="505" on="0"/>
        <pt x="540" y="308" on="1"/>
        <pt x="733" y="123" on="0"/>
        <pt x="1027" y="123" on="1"/>
        <pt x="1259" y="123" on="0"/>
        <pt x="1380" y="314" on="1"/>
        <pt x="1426" y="386" on="0"/>
        <pt x="1454" y="498" on="1"/>
        <pt x="1470" y="561" on="0"/>
        <pt x="1509" y="561" on="1"/>
        <pt x="1546" y="561" on="0"/>
        <pt x="1546" y="497" on="1"/>
      </contour>
    </TTGlyph>
    <TTGlyph name="Ccircumflex" xMin="99" yMin="-23" xMax="1553" yMax="2020">
      <component glyphName=".ttfautohint" x="99" y="0" flags="0x0"/>
      <component glyphName="C" x="0" y="0" flags="0x1204"/>
      <component glyphName="circumflex.cap" x="456" y="0" flags="0x1004"/>
    </TTGlyph>
    <TTGlyph name="Cdotaccent" xMin="99" yMin="-23" xMax="1553" yMax="2020">
      <component glyphName=".ttfautohint" x="99" y="0" flags="0x0"/>
      <component glyphName="C" x="0" y="0" flags="0x1204"/>
      <component glyphName="dotaccent.cap" x="623" y="0" flags="0x1004"/>
    </TTGlyph>
    <TTGlyph name="D" xMin="104" yMin="-24" xMax="1799" yMax="1592">
      <contour>
        <pt x="193" y="1477" on="1"/>
        <pt x="143" y="1471" on="1"/>
        <pt x="124" y="1471" on="0"/>
        <pt x="104" y="1497" on="0"/>
        <pt x="104" y="1523" on="0"/>
        <pt x="113" y="1544" on="0"/>
        <pt x="124" y="1553" on="1"/>
        <pt x="151" y="1575" on="0"/>
        <pt x="240" y="1575" on="0"/>
        <pt x="296" y="1571" on="0"/>
        <pt x="322" y="1568" on="1"/>
        <pt x="383" y="1561" on="0"/>
        <pt x="510" y="1561" on="0"/>
        <pt x="611" y="1571" on="0"/>
        <pt x="660" y="1576" on="1"/>
        <pt x="798" y="1592" on="0"/>
        <pt x="874" y="1592" on="1"/>
        <pt x="1337" y="1592" on="0"/>
        <pt x="1576" y="1368" on="1"/>
        <pt x="1799" y="1159" on="0"/>
        <pt x="1799" y="785" on="1"/>
        <pt x="1799" y="554" on="0"/>
        <pt x="1676" y="366" on="1"/>
        <pt x="1559" y="186" on="0"/>
        <pt x="1352" y="81" on="1"/>
        <pt x="1144" y="-24" on="0"/>
        <pt x="891" y="-24" on="1"/>
        <pt x="772" y="-24" on="0"/>
        <pt x="684" y="-16" on="1"/>
        <pt x="549" y="-4" on="1"/>
        <pt x="502" y="0" on="0"/>
        <pt x="412" y="0" on="0"/>
        <pt x="357" y="-5" on="0"/>
        <pt x="329" y="-8" on="1"/>
        <pt x="254" y="-16" on="0"/>
        <pt x="171" y="-16" on="0"/>
        <pt x="135" y="-3" on="0"/>
        <pt x="124" y="6" on="1"/>
        <pt x="104" y="22" on="0"/>
        <pt x="104" y="41" on="1"/>
        <pt x="104" y="88" on="0"/>
        <pt x="143" y="88" on="1"/>
        <pt x="208" y="82" on="1"/>
        <pt x="276" y="82" on="0"/>
        <pt x="299" y="136" on="1"/>
        <pt x="320" y="185" on="0"/>
        <pt x="320" y="314" on="1"/>
        <pt x="320" y="1232" on="1"/>
        <pt x="320" y="1363" on="0"/>
        <pt x="283" y="1447" on="0"/>
        <pt x="233" y="1477" on="0"/>
      </contour>
      <contour>
        <pt x="559" y="269" on="1"/>
        <pt x="559" y="184" on="0"/>
        <pt x="624" y="154" on="1"/>
        <pt x="689" y="125" on="0"/>
        <pt x="1038" y="125" on="0"/>
        <pt x="1282" y="187" on="0"/>
        <pt x="1367" y="261" on="1"/>
        <pt x="1541" y="412" on="0"/>
        <pt x="1541" y="763" on="1"/>
        <pt x="1541" y="1105" on="0"/>
        <pt x="1356" y="1280" on="1"/>
        <pt x="1180" y="1446" on="0"/>
        <pt x="851" y="1446" on="1"/>
        <pt x="702" y="1446" on="0"/>
        <pt x="598" y="1410" on="0"/>
        <pt x="559" y="1365" on="0"/>
        <pt x="559" y="1331" on="1"/>
      </contour>
    </TTGlyph>
    <TTGlyph name="Dcaron" xMin="104" yMin="-24" xMax="1799" yMax="2020">
      <component glyphName=".ttfautohint" x="104" y="0" flags="0x0"/>
      <component glyphName="D" x="0" y="0" flags="0x1204"/>
      <component glyphName="caron.cap" x="495" y="0" flags="0x1004"/>
    </TTGlyph>
    <TTGlyph name="Dcroat" xMin="104" yMin="-24" xMax="1799" yMax="1592">
      <contour>
        <pt x="193" y="1477" on="1"/>
        <pt x="143" y="1471" on="1"/>
        <pt x="124" y="1471" on="0"/>
        <pt x="104" y="1497" on="0"/>
        <pt x="104" y="1523" on="0"/>
        <pt x="113" y="1544" on="0"/>
        <pt x="124" y="1553" on="1"/>
        <pt x="151" y="1575" on="0"/>
        <pt x="240" y="1575" on="0"/>
        <pt x="296" y="1571" on="0"/>
        <pt x="322" y="1568" on="1"/>
        <pt x="383" y="1561" on="0"/>
        <pt x="510" y="1561" on="0"/>
        <pt x="611" y="1571" on="0"/>
        <pt x="660" y="1576" on="1"/>
        <pt x="798" y="1592" on="0"/>
        <pt x="874" y="1592" on="1"/>
        <pt x="1337" y="1592" on="0"/>
        <pt x="1576" y="1368" on="1"/>
        <pt x="1799" y="1159" on="0"/>
        <pt x="1799" y="785" on="1"/>
        <pt x="1799" y="554" on="0"/>
        <pt x="1676" y="366" on="1"/>
        <pt x="1559" y="186" on="0"/>
        <pt x="1352" y="81" on="1"/>
        <pt x="1144" y="-24" on="0"/>
        <pt x="891" y="-24" on="1"/>
        <pt x="772" y="-24" on="0"/>
        <pt x="684" y="-16" on="1"/>
        <pt x="549" y="-4" on="1"/>
        <pt x="502" y="0" on="0"/>
        <pt x="412" y="0" on="0"/>
        <pt x="357" y="-5" on="0"/>
        <pt x="329" y="-8" on="1"/>
        <pt x="254" y="-16" on="0"/>
        <pt x="171" y="-16" on="0"/>
        <pt x="135" y="-3" on="0"/>
        <pt x="124" y="6" on="1"/>
        <pt x="104" y="22" on="0"/>
        <pt x="104" y="41" on="1"/>
        <pt x="104" y="88" on="0"/>
        <pt x="143" y="88" on="1"/>
        <pt x="208" y="82" on="1"/>
        <pt x="276" y="82" on="0"/>
        <pt x="299" y="136" on="1"/>
        <pt x="320" y="185" on="0"/>
        <pt x="320" y="314" on="1"/>
        <pt x="320" y="716" on="1"/>
        <pt x="197" y="716" on="1"/>
        <pt x="162" y="716" on="0"/>
        <pt x="120" y="736" on="0"/>
        <pt x="120" y="792" on="0"/>
        <pt x="131" y="811" on="0"/>
        <pt x="142" y="816" on="1"/>
        <pt x="156" y="823" on="0"/>
        <pt x="200" y="823" on="1"/>
        <pt x="320" y="823" on="1"/>
        <pt x="320" y="1232" on="1"/>
        <pt x="320" y="1363" on="0"/>
        <pt x="283" y="1447" on="0"/>
        <pt x="233" y="1477" on="0"/>
      </contour>
      <contour>
        <pt x="559" y="269" on="1"/>
        <pt x="559" y="184" on="0"/>
        <pt x="624" y="154" on="1"/>
        <pt x="689" y="125" on="0"/>
        <pt x="1038" y="125" on="0"/>
        <pt x="1282" y="187" on="0"/>
        <pt x="1367" y="261" on="1"/>
        <pt x="1541" y="412" on="0"/>
        <pt x="1541" y="763" on="1"/>
        <pt x="1541" y="1105" on="0"/>
        <pt x="1356" y="1280" on="1"/>
        <pt x="1180" y="1446" on="0"/>
        <pt x="851" y="1446" on="1"/>
        <pt x="702" y="1446" on="0"/>
        <pt x="598" y="1410" on="0"/>
        <pt x="559" y="1365" on="0"/>
        <pt x="559" y="1331" on="1"/>
        <pt x="559" y="823" on="1"/>
        <pt x="895" y="823" on="1"/>
        <pt x="956" y="823" on="0"/>
        <pt x="969" y="798" on="1"/>
        <pt x="975" y="786" on="0"/>
        <pt x="975" y="734" on="0"/>
        <pt x="933" y="716" on="0"/>
        <pt x="896" y="716" on="1"/>
        <pt x="559" y="716" on="1"/>
      </contour>
    </TTGlyph>
    <TTGlyph name="Delta" xMin="112" yMin="0" xMax="1594" yMax="1591">
      <contour>
        <pt x="112" y="31" on="1"/>
        <pt x="112" y="44" on="0"/>
        <pt x="120" y="57" on="1"/>
        <pt x="119" y="57" on="1"/>
        <pt x="785" y="1564" on="1"/>
        <pt x="801" y="1591" on="0"/>
        <pt x="851" y="1591" on="0"/>
        <pt x="866" y="1563" on="1"/>
        <pt x="1585" y="80" on="1"/>
        <pt x="1594" y="65" on="0"/>
        <pt x="1594" y="29" on="0"/>
        <pt x="1564" y="0" on="0"/>
        <pt x="1533" y="0" on="1"/>
        <pt x="151" y="0" on="1"/>
        <pt x="112" y="0" on="0"/>
      </contour>
      <contour>
        <pt x="1327" y="130" on="1"/>
        <pt x="789" y="1285" on="1"/>
        <pt x="291" y="130" on="1"/>
      </contour>
    </TTGlyph>
    <TTGlyph name="E" xMin="104" yMin="-15" xMax="1396" yMax="1576">
      <contour>
        <pt x="555" y="264" on="1"/>
        <pt x="555" y="129" on="0"/>
        <pt x="649" y="129" on="1"/>
        <pt x="858" y="129" on="1"/>
        <pt x="1105" y="129" on="0"/>
        <pt x="1229" y="240" on="1"/>
        <pt x="1265" y="273" on="0"/>
        <pt x="1297" y="308" on="1"/>
        <pt x="1332" y="346" on="1"/>
        <pt x="1365" y="379" on="0"/>
        <pt x="1388" y="383" on="0"/>
        <pt x="1396" y="384" on="1"/>
        <pt x="1448" y="387" on="0"/>
        <pt x="1389" y="272" on="1"/>
        <pt x="1329" y="152" on="0"/>
        <pt x="1289" y="0" on="1"/>
        <pt x="455" y="0" on="1"/>
        <pt x="414" y="0" on="0"/>
        <pt x="384" y="-2" on="1"/>
        <pt x="268" y="-12" on="1"/>
        <pt x="238" y="-15" on="0"/>
        <pt x="171" y="-15" on="0"/>
        <pt x="134" y="-2" on="0"/>
        <pt x="124" y="7" on="1"/>
        <pt x="104" y="24" on="0"/>
        <pt x="104" y="61" on="0"/>
        <pt x="124" y="90" on="0"/>
        <pt x="143" y="90" on="1"/>
        <pt x="207" y="83" on="1"/>
        <pt x="276" y="83" on="0"/>
        <pt x="300" y="144" on="1"/>
        <pt x="320" y="194" on="0"/>
        <pt x="320" y="330" on="1"/>
        <pt x="320" y="1233" on="1"/>
        <pt x="320" y="1366" on="0"/>
        <pt x="283" y="1448" on="0"/>
        <pt x="232" y="1478" on="0"/>
        <pt x="192" y="1478" on="1"/>
        <pt x="143" y="1472" on="1"/>
        <pt x="124" y="1472" on="0"/>
        <pt x="104" y="1498" on="0"/>
        <pt x="104" y="1524" on="0"/>
        <pt x="113" y="1545" on="0"/>
        <pt x="124" y="1554" on="1"/>
        <pt x="149" y="1576" on="0"/>
        <pt x="238" y="1576" on="0"/>
        <pt x="264" y="1574" on="1"/>
        <pt x="316" y="1568" on="1"/>
        <pt x="389" y="1561" on="0"/>
        <pt x="444" y="1561" on="1"/>
        <pt x="1271" y="1561" on="1"/>
        <pt x="1278" y="1488" on="0"/>
        <pt x="1297" y="1407" on="1"/>
        <pt x="1324" y="1294" on="1"/>
        <pt x="1331" y="1261" on="0"/>
        <pt x="1331" y="1247" on="1"/>
        <pt x="1331" y="1219" on="0"/>
        <pt x="1310" y="1219" on="1"/>
        <pt x="1297" y="1219" on="0"/>
        <pt x="1262" y="1258" on="1"/>
        <pt x="1202" y="1324" on="1"/>
        <pt x="1146" y="1383" on="0"/>
        <pt x="1079" y="1414" on="0"/>
        <pt x="1052" y="1420" on="1"/>
        <pt x="1002" y="1431" on="0"/>
        <pt x="919" y="1431" on="1"/>
        <pt x="649" y="1431" on="1"/>
        <pt x="595" y="1431" on="0"/>
        <pt x="555" y="1385" on="0"/>
        <pt x="555" y="1342" on="1"/>
        <pt x="555" y="916" on="1"/>
        <pt x="555" y="863" on="0"/>
        <pt x="643" y="863" on="1"/>
        <pt x="890" y="863" on="1"/>
        <pt x="960" y="863" on="0"/>
        <pt x="1018" y="933" on="1"/>
        <pt x="1038" y="957" on="0"/>
        <pt x="1058" y="1004" on="0"/>
        <pt x="1071" y="1020" on="0"/>
        <pt x="1083" y="1020" on="1"/>
        <pt x="1115" y="1020" on="0"/>
        <pt x="1115" y="964" on="1"/>
        <pt x="1107" y="803" on="1"/>
        <pt x="1115" y="634" on="1"/>
        <pt x="1115" y="578" on="0"/>
        <pt x="1083" y="578" on="1"/>
        <pt x="1071" y="578" on="0"/>
        <pt x="1059" y="595" on="0"/>
        <pt x="1039" y="642" on="0"/>
        <pt x="998" y="689" on="0"/>
        <pt x="976" y="704" on="1"/>
        <pt x="934" y="734" on="0"/>
        <pt x="890" y="734" on="1"/>
        <pt x="642" y="734" on="1"/>
        <pt x="600" y="734" on="0"/>
        <pt x="555" y="698" on="0"/>
        <pt x="555" y="672" on="1"/>
      </contour>
    </TTGlyph>
    <TTGlyph name="Eacute" xMin="104" yMin="-15" xMax="1396" yMax="2016">
      <component glyphName=".ttfautohint" x="104" y="0" flags="0x0"/>
      <component glyphName="E" x="0" y="0" flags="0x1204"/>
      <component glyphName="acute.cap" x="442" y="0" flags="0x1004"/>
    </TTGlyph>
    <TTGlyph name="Ebreve" xMin="104" yMin="-15" xMax="1396" yMax="2001">
      <component glyphName=".ttfautohint" x="104" y="0" flags="0x0"/>
      <component glyphName="E" x="0" y="0" flags="0x1204"/>
      <component glyphName="breve.cap" x="254" y="0" flags="0x1004"/>
    </TTGlyph>
    <TTGlyph name="Ecaron" xMin="104" yMin="-15" xMax="1396" yMax="2020">
      <component glyphName=".ttfautohint" x="104" y="0" flags="0x0"/>
      <component glyphName="E" x="0" y="0" flags="0x1204"/>
      <component glyphName="caron.cap" x="322" y="0" flags="0x1004"/>
    </TTGlyph>
    <TTGlyph name="Ecircumflex" xMin="104" yMin="-15" xMax="1396" yMax="2020">
      <component glyphName=".ttfautohint" x="104" y="0" flags="0x0"/>
      <component glyphName="E" x="0" y="0" flags="0x1204"/>
      <component glyphName="circumflex.cap" x="322" y="0" flags="0x1004"/>
    </TTGlyph>
    <TTGlyph name="Edieresis" xMin="104" yMin="-15" xMax="1396" yMax="1972">
      <component glyphName=".ttfautohint" x="104" y="0" flags="0x0"/>
      <component glyphName="E" x="0" y="0" flags="0x1204"/>
      <component glyphName="dieresis.cap" x="229" y="0" flags="0x1004"/>
    </TTGlyph>
    <TTGlyph name="Edotaccent" xMin="104" yMin="-15" xMax="1396" yMax="2020">
      <component glyphName=".ttfautohint" x="104" y="0" flags="0x0"/>
      <component glyphName="E" x="0" y="0" flags="0x1204"/>
      <component glyphName="dotaccent.cap" x="489" y="0" flags="0x1004"/>
    </TTGlyph>
    <TTGlyph name="Egrave" xMin="104" yMin="-15" xMax="1396" yMax="2016">
      <component glyphName=".ttfautohint" x="104" y="0" flags="0x0"/>
      <component glyphName="E" x="0" y="0" flags="0x1204"/>
      <component glyphName="grave.cap" x="442" y="0" flags="0x1004"/>
    </TTGlyph>
    <TTGlyph name="Emacron" xMin="104" yMin="-15" xMax="1396" yMax="1929">
      <component glyphName=".ttfautohint" x="104" y="0" flags="0x0"/>
      <component glyphName="E" x="0" y="0" flags="0x1204"/>
      <component glyphName="macron.cap" x="256" y="0" flags="0x1004"/>
    </TTGlyph>
    <TTGlyph name="Eng" xMin="10" yMin="-518" xMax="1769" yMax="1577">
      <contour>
        <pt x="169" y="-15" on="1"/>
        <pt x="74" y="-15" on="0"/>
        <pt x="74" y="37" on="1"/>
        <pt x="74" y="68" on="0"/>
        <pt x="113" y="68" on="1"/>
        <pt x="177" y="62" on="1"/>
        <pt x="245" y="62" on="0"/>
        <pt x="269" y="127" on="1"/>
        <pt x="290" y="183" on="0"/>
        <pt x="290" y="315" on="1"/>
        <pt x="291" y="1186" on="1"/>
        <pt x="291" y="1253" on="0"/>
        <pt x="210" y="1389" on="0"/>
        <pt x="116" y="1479" on="0"/>
        <pt x="30" y="1512" on="0"/>
        <pt x="10" y="1531" on="0"/>
        <pt x="10" y="1544" on="1"/>
        <pt x="10" y="1572" on="0"/>
        <pt x="68" y="1572" on="1"/>
        <pt x="383" y="1561" on="1"/>
        <pt x="1429" y="441" on="1"/>
        <pt x="1429" y="1246" on="1"/>
        <pt x="1429" y="1380" on="0"/>
        <pt x="1396" y="1468" on="0"/>
        <pt x="1352" y="1500" on="0"/>
        <pt x="1317" y="1500" on="1"/>
        <pt x="1244" y="1493" on="1"/>
        <pt x="1205" y="1493" on="0"/>
        <pt x="1205" y="1525" on="1"/>
        <pt x="1205" y="1558" on="0"/>
        <pt x="1256" y="1572" on="1"/>
        <pt x="1274" y="1577" on="0"/>
        <pt x="1301" y="1577" on="1"/>
        <pt x="1492" y="1562" on="1"/>
        <pt x="1514" y="1562" on="0"/>
        <pt x="1534" y="1564" on="1"/>
        <pt x="1574" y="1570" on="1"/>
        <pt x="1637" y="1577" on="0"/>
        <pt x="1702" y="1577" on="0"/>
        <pt x="1739" y="1567" on="0"/>
        <pt x="1750" y="1560" on="1"/>
        <pt x="1769" y="1546" on="0"/>
        <pt x="1769" y="1525" on="1"/>
        <pt x="1769" y="1493" on="0"/>
        <pt x="1731" y="1493" on="1"/>
        <pt x="1666" y="1500" on="1"/>
        <pt x="1599" y="1500" on="0"/>
        <pt x="1575" y="1436" on="1"/>
        <pt x="1554" y="1380" on="0"/>
        <pt x="1554" y="1246" on="1"/>
        <pt x="1554" y="187" on="1"/>
        <pt x="1553" y="184" on="1"/>
        <pt x="1553" y="-26" on="1"/>
        <pt x="1553" y="-270" on="0"/>
        <pt x="1365" y="-402" on="1"/>
        <pt x="1200" y="-518" on="0"/>
        <pt x="964" y="-518" on="1"/>
        <pt x="815" y="-518" on="0"/>
        <pt x="652" y="-448" on="1"/>
        <pt x="593" y="-423" on="0"/>
        <pt x="538" y="-387" on="1"/>
        <pt x="538" y="-266" on="1"/>
        <pt x="538" y="-163" on="0"/>
        <pt x="560" y="-149" on="1"/>
        <pt x="567" y="-144" on="0"/>
        <pt x="579" y="-144" on="1"/>
        <pt x="600" y="-144" on="0"/>
        <pt x="614" y="-204" on="1"/>
        <pt x="720" y="-407" on="0"/>
        <pt x="1014" y="-407" on="1"/>
        <pt x="1244" y="-407" on="0"/>
        <pt x="1328" y="-205" on="1"/>
        <pt x="1358" y="-131" on="0"/>
        <pt x="1358" y="-20" on="1"/>
        <pt x="1358" y="133" on="1"/>
        <pt x="414" y="1155" on="1"/>
        <pt x="414" y="315" on="1"/>
        <pt x="414" y="183" on="0"/>
        <pt x="447" y="95" on="0"/>
        <pt x="491" y="62" on="0"/>
        <pt x="526" y="62" on="1"/>
        <pt x="600" y="68" on="1"/>
        <pt x="639" y="68" on="0"/>
        <pt x="639" y="37" on="1"/>
        <pt x="639" y="19" on="0"/>
        <pt x="597" y="-15" on="0"/>
        <pt x="542" y="-15" on="1"/>
        <pt x="351" y="0" on="1"/>
        <pt x="330" y="0" on="0"/>
        <pt x="310" y="-2" on="1"/>
        <pt x="268" y="-8" on="1"/>
        <pt x="204" y="-15" on="0"/>
      </contour>
    </TTGlyph>
    <TTGlyph name="Eogonek" xMin="104" yMin="-465" xMax="1397" yMax="1576">
      <contour>
        <pt x="953" y="-282" on="1"/>
        <pt x="953" y="-123" on="0"/>
        <pt x="1083" y="0" on="1"/>
        <pt x="455" y="0" on="1"/>
        <pt x="414" y="0" on="0"/>
        <pt x="384" y="-2" on="1"/>
        <pt x="268" y="-12" on="1"/>
        <pt x="238" y="-15" on="0"/>
        <pt x="171" y="-15" on="0"/>
        <pt x="134" y="-2" on="0"/>
        <pt x="124" y="7" on="1"/>
        <pt x="104" y="24" on="0"/>
        <pt x="104" y="61" on="0"/>
        <pt x="124" y="90" on="0"/>
        <pt x="143" y="90" on="1"/>
        <pt x="207" y="83" on="1"/>
        <pt x="276" y="83" on="0"/>
        <pt x="300" y="144" on="1"/>
        <pt x="320" y="194" on="0"/>
        <pt x="320" y="330" on="1"/>
        <pt x="320" y="1233" on="1"/>
        <pt x="320" y="1366" on="0"/>
        <pt x="283" y="1448" on="0"/>
        <pt x="232" y="1478" on="0"/>
        <pt x="192" y="1478" on="1"/>
        <pt x="143" y="1472" on="1"/>
        <pt x="124" y="1472" on="0"/>
        <pt x="104" y="1498" on="0"/>
        <pt x="104" y="1524" on="0"/>
        <pt x="113" y="1545" on="0"/>
        <pt x="124" y="1554" on="1"/>
        <pt x="149" y="1576" on="0"/>
        <pt x="238" y="1576" on="0"/>
        <pt x="264" y="1574" on="1"/>
        <pt x="316" y="1568" on="1"/>
        <pt x="389" y="1561" on="0"/>
        <pt x="444" y="1561" on="1"/>
        <pt x="1271" y="1561" on="1"/>
        <pt x="1278" y="1488" on="0"/>
        <pt x="1297" y="1407" on="1"/>
        <pt x="1324" y="1294" on="1"/>
        <pt x="1331" y="1261" on="0"/>
        <pt x="1331" y="1247" on="1"/>
        <pt x="1331" y="1219" on="0"/>
        <pt x="1310" y="1219" on="1"/>
        <pt x="1297" y="1219" on="0"/>
        <pt x="1262" y="1258" on="1"/>
        <pt x="1262" y="1258" on="0"/>
        <pt x="1202" y="1324" on="1"/>
        <pt x="1146" y="1383" on="0"/>
        <pt x="1079" y="1414" on="0"/>
        <pt x="1052" y="1420" on="1"/>
        <pt x="1002" y="1431" on="0"/>
        <pt x="919" y="1431" on="1"/>
        <pt x="649" y="1431" on="1"/>
        <pt x="595" y="1431" on="0"/>
        <pt x="555" y="1385" on="0"/>
        <pt x="555" y="1342" on="1"/>
        <pt x="555" y="916" on="1"/>
        <pt x="555" y="863" on="0"/>
        <pt x="643" y="863" on="1"/>
        <pt x="890" y="863" on="1"/>
        <pt x="960" y="863" on="0"/>
        <pt x="1018" y="933" on="1"/>
        <pt x="1038" y="957" on="0"/>
        <pt x="1058" y="1004" on="0"/>
        <pt x="1071" y="1020" on="0"/>
        <pt x="1083" y="1020" on="1"/>
        <pt x="1115" y="1020" on="0"/>
        <pt x="1115" y="964" on="1"/>
        <pt x="1107" y="803" on="1"/>
        <pt x="1115" y="634" on="1"/>
        <pt x="1115" y="578" on="0"/>
        <pt x="1083" y="578" on="1"/>
        <pt x="1071" y="578" on="0"/>
        <pt x="1059" y="595" on="0"/>
        <pt x="1039" y="642" on="0"/>
        <pt x="998" y="689" on="0"/>
        <pt x="976" y="704" on="1"/>
        <pt x="934" y="734" on="0"/>
        <pt x="890" y="734" on="1"/>
        <pt x="642" y="734" on="1"/>
        <pt x="600" y="734" on="0"/>
        <pt x="555" y="698" on="0"/>
        <pt x="555" y="672" on="1"/>
        <pt x="555" y="264" on="1"/>
        <pt x="555" y="129" on="0"/>
        <pt x="649" y="129" on="1"/>
        <pt x="858" y="129" on="1"/>
        <pt x="1105" y="129" on="0"/>
        <pt x="1229" y="240" on="1"/>
        <pt x="1265" y="273" on="0"/>
        <pt x="1297" y="308" on="1"/>
        <pt x="1332" y="346" on="1"/>
        <pt x="1365" y="379" on="0"/>
        <pt x="1388" y="383" on="0"/>
        <pt x="1396" y="384" on="1"/>
        <pt x="1448" y="387" on="0"/>
        <pt x="1389" y="272" on="1"/>
        <pt x="1329" y="152" on="0"/>
        <pt x="1289" y="0" on="1"/>
        <pt x="1215" y="0" on="1"/>
        <pt x="1119" y="-91" on="0"/>
        <pt x="1119" y="-192" on="1"/>
        <pt x="1119" y="-303" on="0"/>
        <pt x="1246" y="-365" on="1"/>
        <pt x="1291" y="-387" on="0"/>
        <pt x="1357" y="-399" on="1"/>
        <pt x="1397" y="-410" on="0"/>
        <pt x="1397" y="-435" on="1"/>
        <pt x="1397" y="-446" on="0"/>
        <pt x="1379" y="-463" on="0"/>
        <pt x="1364" y="-463" on="1"/>
        <pt x="1143" y="-465" on="1"/>
        <pt x="1010" y="-465" on="0"/>
        <pt x="968" y="-367" on="1"/>
        <pt x="953" y="-332" on="0"/>
      </contour>
    </TTGlyph>
    <TTGlyph name="Eth" xMin="104" yMin="-24" xMax="1799" yMax="1592">
      <contour>
        <pt x="193" y="1477" on="1"/>
        <pt x="143" y="1471" on="1"/>
        <pt x="124" y="1471" on="0"/>
        <pt x="104" y="1497" on="0"/>
        <pt x="104" y="1523" on="0"/>
        <pt x="113" y="1544" on="0"/>
        <pt x="124" y="1553" on="1"/>
        <pt x="151" y="1575" on="0"/>
        <pt x="240" y="1575" on="0"/>
        <pt x="296" y="1571" on="0"/>
        <pt x="322" y="1568" on="1"/>
        <pt x="383" y="1561" on="0"/>
        <pt x="510" y="1561" on="0"/>
        <pt x="611" y="1571" on="0"/>
        <pt x="660" y="1576" on="1"/>
        <pt x="798" y="1592" on="0"/>
        <pt x="874" y="1592" on="1"/>
        <pt x="1337" y="1592" on="0"/>
        <pt x="1576" y="1368" on="1"/>
        <pt x="1799" y="1159" on="0"/>
        <pt x="1799" y="785" on="1"/>
        <pt x="1799" y="554" on="0"/>
        <pt x="1676" y="366" on="1"/>
        <pt x="1559" y="186" on="0"/>
        <pt x="1352" y="81" on="1"/>
        <pt x="1144" y="-24" on="0"/>
        <pt x="891" y="-24" on="1"/>
        <pt x="772" y="-24" on="0"/>
        <pt x="684" y="-16" on="1"/>
        <pt x="549" y="-4" on="1"/>
        <pt x="502" y="0" on="0"/>
        <pt x="412" y="0" on="0"/>
        <pt x="357" y="-5" on="0"/>
        <pt x="329" y="-8" on="1"/>
        <pt x="254" y="-16" on="0"/>
        <pt x="171" y="-16" on="0"/>
        <pt x="135" y="-3" on="0"/>
        <pt x="124" y="6" on="1"/>
        <pt x="104" y="22" on="0"/>
        <pt x="104" y="41" on="1"/>
        <pt x="104" y="88" on="0"/>
        <pt x="143" y="88" on="1"/>
        <pt x="208" y="82" on="1"/>
        <pt x="276" y="82" on="0"/>
        <pt x="299" y="136" on="1"/>
        <pt x="320" y="185" on="0"/>
        <pt x="320" y="314" on="1"/>
        <pt x="320" y="716" on="1"/>
        <pt x="197" y="716" on="1"/>
        <pt x="162" y="716" on="0"/>
        <pt x="120" y="736" on="0"/>
        <pt x="120" y="792" on="0"/>
        <pt x="131" y="811" on="0"/>
        <pt x="142" y="816" on="1"/>
        <pt x="156" y="823" on="0"/>
        <pt x="200" y="823" on="1"/>
        <pt x="320" y="823" on="1"/>
        <pt x="320" y="1232" on="1"/>
        <pt x="320" y="1363" on="0"/>
        <pt x="283" y="1447" on="0"/>
        <pt x="233" y="1477" on="0"/>
      </contour>
      <contour>
        <pt x="559" y="269" on="1"/>
        <pt x="559" y="184" on="0"/>
        <pt x="624" y="154" on="1"/>
        <pt x="689" y="125" on="0"/>
        <pt x="1038" y="125" on="0"/>
        <pt x="1282" y="187" on="0"/>
        <pt x="1367" y="261" on="1"/>
        <pt x="1541" y="412" on="0"/>
        <pt x="1541" y="763" on="1"/>
        <pt x="1541" y="1105" on="0"/>
        <pt x="1356" y="1280" on="1"/>
        <pt x="1180" y="1446" on="0"/>
        <pt x="851" y="1446" on="1"/>
        <pt x="702" y="1446" on="0"/>
        <pt x="598" y="1410" on="0"/>
        <pt x="559" y="1365" on="0"/>
        <pt x="559" y="1331" on="1"/>
        <pt x="559" y="823" on="1"/>
        <pt x="895" y="823" on="1"/>
        <pt x="956" y="823" on="0"/>
        <pt x="969" y="798" on="1"/>
        <pt x="975" y="786" on="0"/>
        <pt x="975" y="734" on="0"/>
        <pt x="933" y="716" on="0"/>
        <pt x="896" y="716" on="1"/>
        <pt x="559" y="716" on="1"/>
      </contour>
    </TTGlyph>
    <TTGlyph name="Euro" xMin="3" yMin="-23" xMax="1589" yMax="1601">
      <contour>
        <pt x="71" y="527" on="1"/>
        <pt x="3" y="527" on="0"/>
        <pt x="3" y="580" on="1"/>
        <pt x="3" y="623" on="0"/>
        <pt x="22" y="633" on="1"/>
        <pt x="46" y="646" on="0"/>
        <pt x="94" y="646" on="1"/>
        <pt x="158" y="646" on="1"/>
        <pt x="155" y="662" on="0"/>
        <pt x="154" y="692" on="1"/>
        <pt x="152" y="737" on="1"/>
        <pt x="152" y="753" on="0"/>
        <pt x="152" y="765" on="1"/>
        <pt x="152" y="777" on="0"/>
        <pt x="152" y="794" on="1"/>
        <pt x="154" y="830" on="1"/>
        <pt x="155" y="869" on="0"/>
        <pt x="159" y="896" on="1"/>
        <pt x="71" y="896" on="1"/>
        <pt x="3" y="896" on="0"/>
        <pt x="3" y="948" on="1"/>
        <pt x="3" y="990" on="0"/>
        <pt x="22" y="1000" on="1"/>
        <pt x="46" y="1013" on="0"/>
        <pt x="94" y="1013" on="1"/>
        <pt x="180" y="1013" on="1"/>
        <pt x="240" y="1263" on="0"/>
        <pt x="444" y="1420" on="1"/>
        <pt x="660" y="1587" on="0"/>
        <pt x="961" y="1587" on="1"/>
        <pt x="1146" y="1587" on="0"/>
        <pt x="1316" y="1520" on="1"/>
        <pt x="1348" y="1508" on="0"/>
        <pt x="1362" y="1508" on="1"/>
        <pt x="1391" y="1508" on="0"/>
        <pt x="1425" y="1542" on="1"/>
        <pt x="1483" y="1601" on="0"/>
        <pt x="1516" y="1601" on="0"/>
        <pt x="1530" y="1579" on="0"/>
        <pt x="1530" y="1535" on="1"/>
        <pt x="1530" y="1422" on="0"/>
        <pt x="1546" y="1365" on="1"/>
        <pt x="1560" y="1311" on="1"/>
        <pt x="1581" y="1238" on="0"/>
        <pt x="1581" y="1160" on="0"/>
        <pt x="1552" y="1160" on="1"/>
        <pt x="1532" y="1160" on="0"/>
        <pt x="1516" y="1183" on="1"/>
        <pt x="1439" y="1293" on="0"/>
        <pt x="1256" y="1376" on="1"/>
        <pt x="1076" y="1458" on="0"/>
        <pt x="817" y="1458" on="0"/>
        <pt x="642" y="1389" on="0"/>
        <pt x="578" y="1329" on="1"/>
        <pt x="449" y="1208" on="0"/>
        <pt x="420" y="1013" on="1"/>
        <pt x="1208" y="1013" on="1"/>
        <pt x="1298" y="1013" on="0"/>
        <pt x="1298" y="963" on="1"/>
        <pt x="1298" y="921" on="0"/>
        <pt x="1280" y="911" on="1"/>
        <pt x="1256" y="896" on="0"/>
        <pt x="1210" y="896" on="1"/>
        <pt x="412" y="896" on="1"/>
        <pt x="408" y="860" on="0"/>
        <pt x="408" y="702" on="0"/>
        <pt x="420" y="646" on="1"/>
        <pt x="1087" y="646" on="1"/>
        <pt x="1178" y="646" on="0"/>
        <pt x="1178" y="606" on="1"/>
        <pt x="1178" y="561" on="0"/>
        <pt x="1131" y="527" on="0"/>
        <pt x="1088" y="527" on="1"/>
        <pt x="440" y="527" on="1"/>
        <pt x="510" y="309" on="0"/>
        <pt x="682" y="204" on="1"/>
        <pt x="831" y="113" on="0"/>
        <pt x="1042" y="113" on="1"/>
        <pt x="1189" y="113" on="0"/>
        <pt x="1310" y="191" on="1"/>
        <pt x="1435" y="272" on="0"/>
        <pt x="1488" y="406" on="1"/>
        <pt x="1488" y="445" on="0"/>
        <pt x="1522" y="464" on="1"/>
        <pt x="1531" y="468" on="0"/>
        <pt x="1544" y="468" on="0"/>
        <pt x="1562" y="464" on="0"/>
        <pt x="1570" y="460" on="1"/>
        <pt x="1589" y="449" on="0"/>
        <pt x="1589" y="430" on="1"/>
        <pt x="1589" y="348" on="0"/>
        <pt x="1495" y="186" on="0"/>
        <pt x="1414" y="122" on="1"/>
        <pt x="1234" y="-23" on="0"/>
        <pt x="998" y="-23" on="1"/>
        <pt x="671" y="-23" on="0"/>
        <pt x="456" y="118" on="1"/>
        <pt x="234" y="262" on="0"/>
        <pt x="177" y="527" on="1"/>
      </contour>
    </TTGlyph>
    <TTGlyph name="F" xMin="105" yMin="-14" xMax="1364" yMax="1576">
      <contour>
        <pt x="728" y="-14" on="1"/>
        <pt x="439" y="0" on="1"/>
        <pt x="389" y="0" on="0"/>
        <pt x="344" y="-5" on="1"/>
        <pt x="263" y="-14" on="0"/>
        <pt x="172" y="-14" on="0"/>
        <pt x="136" y="-1" on="0"/>
        <pt x="125" y="8" on="1"/>
        <pt x="105" y="24" on="0"/>
        <pt x="105" y="43" on="1"/>
        <pt x="105" y="90" on="0"/>
        <pt x="144" y="90" on="1"/>
        <pt x="208" y="84" on="1"/>
        <pt x="277" y="84" on="0"/>
        <pt x="300" y="138" on="1"/>
        <pt x="320" y="185" on="0"/>
        <pt x="320" y="316" on="1"/>
        <pt x="320" y="1233" on="1"/>
        <pt x="320" y="1368" on="0"/>
        <pt x="284" y="1448" on="0"/>
        <pt x="234" y="1478" on="0"/>
        <pt x="193" y="1478" on="1"/>
        <pt x="144" y="1472" on="1"/>
        <pt x="125" y="1472" on="0"/>
        <pt x="105" y="1498" on="0"/>
        <pt x="105" y="1524" on="0"/>
        <pt x="114" y="1545" on="0"/>
        <pt x="125" y="1554" on="1"/>
        <pt x="152" y="1576" on="0"/>
        <pt x="240" y="1576" on="0"/>
        <pt x="271" y="1574" on="1"/>
        <pt x="388" y="1564" on="1"/>
        <pt x="416" y="1561" on="0"/>
        <pt x="452" y="1561" on="1"/>
        <pt x="1290" y="1561" on="1"/>
        <pt x="1297" y="1514" on="0"/>
        <pt x="1310" y="1466" on="1"/>
        <pt x="1335" y="1371" on="1"/>
        <pt x="1364" y="1264" on="0"/>
        <pt x="1364" y="1193" on="0"/>
        <pt x="1342" y="1193" on="1"/>
        <pt x="1325" y="1193" on="0"/>
        <pt x="1271" y="1261" on="0"/>
        <pt x="1205" y="1336" on="0"/>
        <pt x="1164" y="1366" on="1"/>
        <pt x="1071" y="1431" on="0"/>
        <pt x="939" y="1431" on="1"/>
        <pt x="649" y="1431" on="1"/>
        <pt x="605" y="1431" on="0"/>
        <pt x="556" y="1373" on="0"/>
        <pt x="556" y="1322" on="1"/>
        <pt x="556" y="912" on="1"/>
        <pt x="556" y="859" on="0"/>
        <pt x="643" y="859" on="1"/>
        <pt x="918" y="859" on="1"/>
        <pt x="986" y="859" on="0"/>
        <pt x="1044" y="929" on="1"/>
        <pt x="1064" y="953" on="0"/>
        <pt x="1084" y="1000" on="0"/>
        <pt x="1097" y="1016" on="0"/>
        <pt x="1111" y="1016" on="1"/>
        <pt x="1141" y="1016" on="0"/>
        <pt x="1141" y="960" on="1"/>
        <pt x="1133" y="787" on="1"/>
        <pt x="1141" y="630" on="1"/>
        <pt x="1141" y="574" on="0"/>
        <pt x="1111" y="574" on="1"/>
        <pt x="1090" y="574" on="0"/>
        <pt x="1079" y="604" on="1"/>
        <pt x="1037" y="697" on="0"/>
        <pt x="959" y="722" on="1"/>
        <pt x="937" y="729" on="0"/>
        <pt x="918" y="729" on="1"/>
        <pt x="642" y="729" on="1"/>
        <pt x="601" y="729" on="0"/>
        <pt x="556" y="694" on="0"/>
        <pt x="556" y="668" on="1"/>
        <pt x="556" y="316" on="1"/>
        <pt x="556" y="186" on="0"/>
        <pt x="588" y="110" on="0"/>
        <pt x="632" y="84" on="0"/>
        <pt x="668" y="84" on="1"/>
        <pt x="795" y="93" on="1"/>
        <pt x="812" y="93" on="0"/>
        <pt x="832" y="62" on="0"/>
        <pt x="832" y="39" on="0"/>
        <pt x="820" y="17" on="0"/>
        <pt x="808" y="8" on="1"/>
        <pt x="777" y="-14" on="0"/>
      </contour>
    </TTGlyph>
    <TTGlyph name="G" xMin="98" yMin="-24" xMax="1806" yMax="1619">
      <contour>
        <pt x="1767" y="736" on="1"/>
        <pt x="1696" y="745" on="1"/>
        <pt x="1645" y="745" on="0"/>
        <pt x="1644" y="589" on="1"/>
        <pt x="1643" y="548" on="0"/>
        <pt x="1643" y="512" on="1"/>
        <pt x="1643" y="203" on="1"/>
        <pt x="1553" y="156" on="1"/>
        <pt x="1515" y="136" on="0"/>
        <pt x="1445" y="86" on="0"/>
        <pt x="1339" y="33" on="0"/>
        <pt x="1276" y="14" on="1"/>
        <pt x="1148" y="-23" on="0"/>
        <pt x="766" y="-23" on="0"/>
        <pt x="440" y="98" on="0"/>
        <pt x="328" y="202" on="1"/>
        <pt x="98" y="416" on="0"/>
        <pt x="98" y="744" on="1"/>
        <pt x="98" y="926" on="0"/>
        <pt x="228" y="1237" on="0"/>
        <pt x="346" y="1350" on="1"/>
        <pt x="599" y="1592" on="0"/>
        <pt x="998" y="1592" on="1"/>
        <pt x="1155" y="1592" on="0"/>
        <pt x="1299" y="1535" on="1"/>
        <pt x="1339" y="1519" on="0"/>
        <pt x="1358" y="1519" on="1"/>
        <pt x="1388" y="1519" on="0"/>
        <pt x="1424" y="1558" on="1"/>
        <pt x="1483" y="1619" on="0"/>
        <pt x="1503" y="1619" on="1"/>
        <pt x="1533" y="1619" on="0"/>
        <pt x="1533" y="1521" on="0"/>
        <pt x="1553" y="1413" on="0"/>
        <pt x="1566" y="1362" on="1"/>
        <pt x="1588" y="1268" on="1"/>
        <pt x="1598" y="1225" on="0"/>
        <pt x="1598" y="1203" on="1"/>
        <pt x="1598" y="1156" on="0"/>
        <pt x="1571" y="1156" on="1"/>
        <pt x="1548" y="1156" on="0"/>
        <pt x="1535" y="1179" on="1"/>
        <pt x="1463" y="1309" on="0"/>
        <pt x="1299" y="1380" on="1"/>
        <pt x="1147" y="1446" on="0"/>
        <pt x="825" y="1446" on="0"/>
        <pt x="597" y="1351" on="0"/>
        <pt x="516" y="1267" on="1"/>
        <pt x="345" y="1090" on="0"/>
        <pt x="345" y="816" on="1"/>
        <pt x="345" y="501" on="0"/>
        <pt x="549" y="308" on="1"/>
        <pt x="746" y="123" on="0"/>
        <pt x="1047" y="123" on="1"/>
        <pt x="1172" y="123" on="0"/>
        <pt x="1284" y="174" on="1"/>
        <pt x="1412" y="232" on="0"/>
        <pt x="1412" y="322" on="1"/>
        <pt x="1412" y="512" on="1"/>
        <pt x="1412" y="642" on="0"/>
        <pt x="1379" y="719" on="0"/>
        <pt x="1335" y="745" on="0"/>
        <pt x="1300" y="745" on="1"/>
        <pt x="1226" y="734" on="1"/>
        <pt x="1207" y="734" on="0"/>
        <pt x="1187" y="766" on="0"/>
        <pt x="1187" y="789" on="0"/>
        <pt x="1196" y="811" on="0"/>
        <pt x="1206" y="820" on="1"/>
        <pt x="1231" y="843" on="0"/>
        <pt x="1323" y="843" on="0"/>
        <pt x="1387" y="838" on="0"/>
        <pt x="1414" y="835" on="1"/>
        <pt x="1488" y="827" on="0"/>
        <pt x="1526" y="827" on="1"/>
        <pt x="1712" y="843" on="1"/>
        <pt x="1784" y="843" on="0"/>
        <pt x="1802" y="800" on="1"/>
        <pt x="1806" y="789" on="0"/>
        <pt x="1806" y="766" on="0"/>
        <pt x="1786" y="736" on="0"/>
      </contour>
    </TTGlyph>
    <TTGlyph name="Gbreve" xMin="98" yMin="-23" xMax="1806" yMax="2001">
      <component glyphName=".ttfautohint" x="98" y="0" flags="0x0"/>
      <component glyphName="G" x="0" y="0" flags="0x1204"/>
      <component glyphName="breve.cap" x="455" y="0" flags="0x1004"/>
    </TTGlyph>
    <TTGlyph name="Gcircumflex" xMin="98" yMin="-23" xMax="1806" yMax="2020">
      <component glyphName=".ttfautohint" x="98" y="0" flags="0x0"/>
      <component glyphName="G" x="0" y="0" flags="0x1204"/>
      <component glyphName="circumflex.cap" x="523" y="0" flags="0x1004"/>
    </TTGlyph>
    <TTGlyph name="Gcommaaccent" xMin="98" yMin="-525" xMax="1806" yMax="1619">
      <component glyphName=".ttfautohint" x="98" y="0" flags="0x0"/>
      <component glyphName="G" x="0" y="0" flags="0x1204"/>
      <component glyphName="commaaccent" x="713" y="0" flags="0x1004"/>
    </TTGlyph>
    <TTGlyph name="Gdotaccent" xMin="98" yMin="-23" xMax="1806" yMax="2020">
      <component glyphName=".ttfautohint" x="98" y="0" flags="0x0"/>
      <component glyphName="G" x="0" y="0" flags="0x1204"/>
      <component glyphName="dotaccent.cap" x="690" y="0" flags="0x1004"/>
    </TTGlyph>
    <TTGlyph name="H" xMin="104" yMin="-15" xMax="1833" yMax="1576">
      <contour>
        <pt x="668" y="83" on="1"/>
        <pt x="732" y="89" on="1"/>
        <pt x="751" y="89" on="0"/>
        <pt x="771" y="61" on="0"/>
        <pt x="771" y="38" on="0"/>
        <pt x="762" y="16" on="0"/>
        <pt x="751" y="7" on="1"/>
        <pt x="716" y="-22" on="0"/>
        <pt x="606" y="-12" on="1"/>
        <pt x="575" y="-10" on="0"/>
        <pt x="548" y="-8" on="1"/>
        <pt x="494" y="-2" on="1"/>
        <pt x="468" y="0" on="0"/>
        <pt x="437" y="0" on="1"/>
        <pt x="406" y="0" on="0"/>
        <pt x="380" y="-2" on="1"/>
        <pt x="327" y="-8" on="1"/>
        <pt x="246" y="-15" on="0"/>
        <pt x="171" y="-15" on="0"/>
        <pt x="135" y="-2" on="0"/>
        <pt x="124" y="7" on="1"/>
        <pt x="104" y="23" on="0"/>
        <pt x="104" y="61" on="0"/>
        <pt x="124" y="89" on="0"/>
        <pt x="142" y="89" on="1"/>
        <pt x="208" y="83" on="1"/>
        <pt x="276" y="83" on="0"/>
        <pt x="299" y="137" on="1"/>
        <pt x="320" y="186" on="0"/>
        <pt x="320" y="315" on="1"/>
        <pt x="320" y="1245" on="1"/>
        <pt x="320" y="1375" on="0"/>
        <pt x="287" y="1452" on="0"/>
        <pt x="243" y="1478" on="0"/>
        <pt x="208" y="1478" on="1"/>
        <pt x="142" y="1472" on="1"/>
        <pt x="124" y="1472" on="0"/>
        <pt x="104" y="1499" on="0"/>
        <pt x="104" y="1523" on="0"/>
        <pt x="113" y="1544" on="0"/>
        <pt x="124" y="1554" on="1"/>
        <pt x="150" y="1576" on="0"/>
        <pt x="238" y="1576" on="0"/>
        <pt x="300" y="1571" on="0"/>
        <pt x="327" y="1568" on="1"/>
        <pt x="380" y="1564" on="1"/>
        <pt x="406" y="1561" on="0"/>
        <pt x="437" y="1561" on="1"/>
        <pt x="468" y="1561" on="0"/>
        <pt x="494" y="1564" on="1"/>
        <pt x="548" y="1568" on="1"/>
        <pt x="629" y="1576" on="0"/>
        <pt x="704" y="1576" on="0"/>
        <pt x="740" y="1563" on="0"/>
        <pt x="751" y="1554" on="1"/>
        <pt x="771" y="1536" on="0"/>
        <pt x="771" y="1518" on="1"/>
        <pt x="771" y="1472" on="0"/>
        <pt x="732" y="1472" on="1"/>
        <pt x="668" y="1478" on="1"/>
        <pt x="599" y="1478" on="0"/>
        <pt x="576" y="1424" on="1"/>
        <pt x="556" y="1377" on="0"/>
        <pt x="556" y="1245" on="1"/>
        <pt x="556" y="1023" on="1"/>
        <pt x="556" y="972" on="0"/>
        <pt x="662" y="972" on="1"/>
        <pt x="1276" y="972" on="1"/>
        <pt x="1382" y="972" on="0"/>
        <pt x="1382" y="1023" on="1"/>
        <pt x="1382" y="1245" on="1"/>
        <pt x="1382" y="1375" on="0"/>
        <pt x="1349" y="1452" on="0"/>
        <pt x="1305" y="1478" on="0"/>
        <pt x="1270" y="1478" on="1"/>
        <pt x="1270" y="1478" on="0"/>
        <pt x="1204" y="1472" on="1"/>
        <pt x="1187" y="1472" on="0"/>
        <pt x="1167" y="1499" on="0"/>
        <pt x="1167" y="1523" on="0"/>
        <pt x="1176" y="1544" on="0"/>
        <pt x="1186" y="1554" on="1"/>
        <pt x="1211" y="1576" on="0"/>
        <pt x="1301" y="1576" on="0"/>
        <pt x="1362" y="1571" on="0"/>
        <pt x="1389" y="1568" on="1"/>
        <pt x="1442" y="1564" on="1"/>
        <pt x="1468" y="1561" on="0"/>
        <pt x="1531" y="1561" on="0"/>
        <pt x="1558" y="1564" on="1"/>
        <pt x="1611" y="1568" on="1"/>
        <pt x="1692" y="1576" on="0"/>
        <pt x="1766" y="1576" on="0"/>
        <pt x="1803" y="1563" on="0"/>
        <pt x="1814" y="1554" on="1"/>
        <pt x="1833" y="1536" on="0"/>
        <pt x="1833" y="1499" on="0"/>
        <pt x="1812" y="1472" on="0"/>
        <pt x="1795" y="1472" on="1"/>
        <pt x="1730" y="1478" on="1"/>
        <pt x="1662" y="1478" on="0"/>
        <pt x="1638" y="1424" on="1"/>
        <pt x="1617" y="1374" on="0"/>
        <pt x="1617" y="1245" on="1"/>
        <pt x="1617" y="315" on="1"/>
        <pt x="1617" y="187" on="0"/>
        <pt x="1651" y="109" on="0"/>
        <pt x="1695" y="83" on="0"/>
        <pt x="1730" y="83" on="1"/>
        <pt x="1795" y="89" on="1"/>
        <pt x="1812" y="89" on="0"/>
        <pt x="1833" y="61" on="0"/>
        <pt x="1833" y="38" on="0"/>
        <pt x="1824" y="16" on="0"/>
        <pt x="1814" y="7" on="1"/>
        <pt x="1780" y="-22" on="0"/>
        <pt x="1668" y="-12" on="1"/>
        <pt x="1638" y="-10" on="0"/>
        <pt x="1611" y="-8" on="1"/>
        <pt x="1558" y="-2" on="1"/>
        <pt x="1531" y="0" on="0"/>
        <pt x="1468" y="0" on="0"/>
        <pt x="1442" y="-2" on="1"/>
        <pt x="1389" y="-8" on="1"/>
        <pt x="1308" y="-15" on="0"/>
        <pt x="1233" y="-15" on="0"/>
        <pt x="1197" y="-2" on="0"/>
        <pt x="1186" y="7" on="1"/>
        <pt x="1167" y="24" on="0"/>
        <pt x="1167" y="61" on="0"/>
        <pt x="1187" y="89" on="0"/>
        <pt x="1204" y="89" on="1"/>
        <pt x="1270" y="83" on="1"/>
        <pt x="1338" y="83" on="0"/>
        <pt x="1361" y="137" on="1"/>
        <pt x="1382" y="186" on="0"/>
        <pt x="1382" y="315" on="1"/>
        <pt x="1382" y="766" on="1"/>
        <pt x="1382" y="792" on="0"/>
        <pt x="1332" y="829" on="0"/>
        <pt x="1276" y="829" on="1"/>
        <pt x="662" y="829" on="1"/>
        <pt x="605" y="829" on="0"/>
        <pt x="556" y="792" on="0"/>
        <pt x="556" y="766" on="1"/>
        <pt x="556" y="315" on="1"/>
        <pt x="556" y="184" on="0"/>
        <pt x="588" y="109" on="0"/>
        <pt x="632" y="83" on="0"/>
      </contour>
    </TTGlyph>
    <TTGlyph name="Hbar" xMin="91" yMin="-15" xMax="1841" yMax="1576">
      <contour>
        <pt x="668" y="83" on="1"/>
        <pt x="732" y="89" on="1"/>
        <pt x="751" y="89" on="0"/>
        <pt x="771" y="61" on="0"/>
        <pt x="771" y="38" on="0"/>
        <pt x="762" y="16" on="0"/>
        <pt x="751" y="7" on="1"/>
        <pt x="716" y="-22" on="0"/>
        <pt x="606" y="-12" on="1"/>
        <pt x="575" y="-10" on="0"/>
        <pt x="548" y="-8" on="1"/>
        <pt x="494" y="-2" on="1"/>
        <pt x="468" y="0" on="0"/>
        <pt x="437" y="0" on="1"/>
        <pt x="406" y="0" on="0"/>
        <pt x="380" y="-2" on="1"/>
        <pt x="327" y="-8" on="1"/>
        <pt x="246" y="-15" on="0"/>
        <pt x="171" y="-15" on="0"/>
        <pt x="135" y="-2" on="0"/>
        <pt x="124" y="7" on="1"/>
        <pt x="104" y="23" on="0"/>
        <pt x="104" y="61" on="0"/>
        <pt x="124" y="89" on="0"/>
        <pt x="142" y="89" on="1"/>
        <pt x="208" y="83" on="1"/>
        <pt x="276" y="83" on="0"/>
        <pt x="299" y="137" on="1"/>
        <pt x="320" y="186" on="0"/>
        <pt x="320" y="315" on="1"/>
        <pt x="320" y="1087" on="1"/>
        <pt x="187" y="1087" on="1"/>
        <pt x="91" y="1087" on="0"/>
        <pt x="91" y="1144" on="1"/>
        <pt x="91" y="1193" on="0"/>
        <pt x="190" y="1193" on="1"/>
        <pt x="320" y="1193" on="1"/>
        <pt x="320" y="1245" on="1"/>
        <pt x="320" y="1375" on="0"/>
        <pt x="287" y="1452" on="0"/>
        <pt x="243" y="1478" on="0"/>
        <pt x="208" y="1478" on="1"/>
        <pt x="142" y="1472" on="1"/>
        <pt x="124" y="1472" on="0"/>
        <pt x="104" y="1499" on="0"/>
        <pt x="104" y="1523" on="0"/>
        <pt x="113" y="1544" on="0"/>
        <pt x="124" y="1554" on="1"/>
        <pt x="150" y="1576" on="0"/>
        <pt x="238" y="1576" on="0"/>
        <pt x="300" y="1571" on="0"/>
        <pt x="327" y="1568" on="1"/>
        <pt x="380" y="1564" on="1"/>
        <pt x="406" y="1561" on="0"/>
        <pt x="437" y="1561" on="1"/>
        <pt x="468" y="1561" on="0"/>
        <pt x="494" y="1564" on="1"/>
        <pt x="548" y="1568" on="1"/>
        <pt x="629" y="1576" on="0"/>
        <pt x="704" y="1576" on="0"/>
        <pt x="740" y="1563" on="0"/>
        <pt x="751" y="1554" on="1"/>
        <pt x="771" y="1536" on="0"/>
        <pt x="771" y="1518" on="1"/>
        <pt x="771" y="1472" on="0"/>
        <pt x="732" y="1472" on="1"/>
        <pt x="668" y="1478" on="1"/>
        <pt x="599" y="1478" on="0"/>
        <pt x="576" y="1424" on="1"/>
        <pt x="556" y="1377" on="0"/>
        <pt x="556" y="1245" on="1"/>
        <pt x="556" y="1193" on="1"/>
        <pt x="1382" y="1193" on="1"/>
        <pt x="1382" y="1245" on="1"/>
        <pt x="1382" y="1375" on="0"/>
        <pt x="1349" y="1452" on="0"/>
        <pt x="1305" y="1478" on="0"/>
        <pt x="1270" y="1478" on="1"/>
        <pt x="1270" y="1478" on="0"/>
        <pt x="1204" y="1472" on="1"/>
        <pt x="1187" y="1472" on="0"/>
        <pt x="1167" y="1499" on="0"/>
        <pt x="1167" y="1523" on="0"/>
        <pt x="1176" y="1544" on="0"/>
        <pt x="1186" y="1554" on="1"/>
        <pt x="1211" y="1576" on="0"/>
        <pt x="1301" y="1576" on="0"/>
        <pt x="1362" y="1571" on="0"/>
        <pt x="1389" y="1568" on="1"/>
        <pt x="1442" y="1564" on="1"/>
        <pt x="1468" y="1561" on="0"/>
        <pt x="1531" y="1561" on="0"/>
        <pt x="1558" y="1564" on="1"/>
        <pt x="1611" y="1568" on="1"/>
        <pt x="1692" y="1576" on="0"/>
        <pt x="1766" y="1576" on="0"/>
        <pt x="1803" y="1563" on="0"/>
        <pt x="1814" y="1554" on="1"/>
        <pt x="1833" y="1536" on="0"/>
        <pt x="1833" y="1499" on="0"/>
        <pt x="1812" y="1472" on="0"/>
        <pt x="1795" y="1472" on="1"/>
        <pt x="1730" y="1478" on="1"/>
        <pt x="1662" y="1478" on="0"/>
        <pt x="1638" y="1424" on="1"/>
        <pt x="1617" y="1374" on="0"/>
        <pt x="1617" y="1245" on="1"/>
        <pt x="1617" y="1193" on="1"/>
        <pt x="1742" y="1193" on="1"/>
        <pt x="1812" y="1193" on="0"/>
        <pt x="1832" y="1168" on="1"/>
        <pt x="1841" y="1157" on="0"/>
        <pt x="1841" y="1137" on="1"/>
        <pt x="1841" y="1087" on="0"/>
        <pt x="1743" y="1087" on="1"/>
        <pt x="1617" y="1087" on="1"/>
        <pt x="1617" y="315" on="1"/>
        <pt x="1617" y="187" on="0"/>
        <pt x="1651" y="109" on="0"/>
        <pt x="1695" y="83" on="0"/>
        <pt x="1730" y="83" on="1"/>
        <pt x="1795" y="89" on="1"/>
        <pt x="1812" y="89" on="0"/>
        <pt x="1833" y="61" on="0"/>
        <pt x="1833" y="38" on="0"/>
        <pt x="1824" y="16" on="0"/>
        <pt x="1814" y="7" on="1"/>
        <pt x="1780" y="-22" on="0"/>
        <pt x="1668" y="-12" on="1"/>
        <pt x="1638" y="-10" on="0"/>
        <pt x="1611" y="-8" on="1"/>
        <pt x="1558" y="-2" on="1"/>
        <pt x="1531" y="0" on="0"/>
        <pt x="1468" y="0" on="0"/>
        <pt x="1442" y="-2" on="1"/>
        <pt x="1389" y="-8" on="1"/>
        <pt x="1308" y="-15" on="0"/>
        <pt x="1233" y="-15" on="0"/>
        <pt x="1197" y="-2" on="0"/>
        <pt x="1186" y="7" on="1"/>
        <pt x="1167" y="24" on="0"/>
        <pt x="1167" y="61" on="0"/>
        <pt x="1187" y="89" on="0"/>
        <pt x="1204" y="89" on="1"/>
        <pt x="1270" y="83" on="1"/>
        <pt x="1338" y="83" on="0"/>
        <pt x="1361" y="137" on="1"/>
        <pt x="1382" y="186" on="0"/>
        <pt x="1382" y="315" on="1"/>
        <pt x="1382" y="766" on="1"/>
        <pt x="1382" y="792" on="0"/>
        <pt x="1332" y="829" on="0"/>
        <pt x="1276" y="829" on="1"/>
        <pt x="662" y="829" on="1"/>
        <pt x="605" y="829" on="0"/>
        <pt x="556" y="792" on="0"/>
        <pt x="556" y="766" on="1"/>
        <pt x="556" y="315" on="1"/>
        <pt x="556" y="184" on="0"/>
        <pt x="588" y="109" on="0"/>
        <pt x="632" y="83" on="0"/>
      </contour>
      <contour>
        <pt x="1276" y="972" on="1"/>
        <pt x="1382" y="972" on="0"/>
        <pt x="1382" y="1023" on="1"/>
        <pt x="1382" y="1087" on="1"/>
        <pt x="556" y="1087" on="1"/>
        <pt x="556" y="1023" on="1"/>
        <pt x="556" y="972" on="0"/>
        <pt x="662" y="972" on="1"/>
      </contour>
    </TTGlyph>
    <TTGlyph name="Hcircumflex" xMin="104" yMin="-15" xMax="1833" yMax="2020">
      <component glyphName=".ttfautohint" x="104" y="0" flags="0x0"/>
      <component glyphName="H" x="0" y="0" flags="0x1204"/>
      <component glyphName="circumflex.cap" x="511" y="0" flags="0x1004"/>
    </TTGlyph>
    <TTGlyph name="I" xMin="105" yMin="-15" xMax="771" yMax="1576">
      <contour>
        <pt x="668" y="84" on="1"/>
        <pt x="733" y="90" on="1"/>
        <pt x="752" y="90" on="0"/>
        <pt x="771" y="62" on="0"/>
        <pt x="771" y="39" on="0"/>
        <pt x="762" y="17" on="0"/>
        <pt x="752" y="8" on="1"/>
        <pt x="726" y="-14" on="0"/>
        <pt x="637" y="-14" on="0"/>
        <pt x="576" y="-10" on="0"/>
        <pt x="549" y="-7" on="1"/>
        <pt x="438" y="5" on="0"/>
        <pt x="370" y="-2" on="1"/>
        <pt x="265" y="-14" on="0"/>
        <pt x="172" y="-14" on="0"/>
        <pt x="135" y="-1" on="0"/>
        <pt x="124" y="8" on="1"/>
        <pt x="105" y="25" on="0"/>
        <pt x="105" y="62" on="0"/>
        <pt x="125" y="90" on="0"/>
        <pt x="144" y="90" on="1"/>
        <pt x="208" y="84" on="1"/>
        <pt x="276" y="84" on="0"/>
        <pt x="299" y="138" on="1"/>
        <pt x="320" y="187" on="0"/>
        <pt x="320" y="316" on="1"/>
        <pt x="320" y="1245" on="1"/>
        <pt x="320" y="1375" on="0"/>
        <pt x="287" y="1452" on="0"/>
        <pt x="243" y="1478" on="0"/>
        <pt x="208" y="1478" on="1"/>
        <pt x="144" y="1472" on="1"/>
        <pt x="125" y="1472" on="0"/>
        <pt x="105" y="1499" on="0"/>
        <pt x="105" y="1523" on="0"/>
        <pt x="114" y="1544" on="0"/>
        <pt x="124" y="1554" on="1"/>
        <pt x="149" y="1576" on="0"/>
        <pt x="239" y="1576" on="0"/>
        <pt x="301" y="1571" on="0"/>
        <pt x="328" y="1568" on="1"/>
        <pt x="381" y="1564" on="1"/>
        <pt x="407" y="1561" on="0"/>
        <pt x="470" y="1561" on="0"/>
        <pt x="496" y="1564" on="1"/>
        <pt x="549" y="1568" on="1"/>
        <pt x="630" y="1576" on="0"/>
        <pt x="705" y="1576" on="0"/>
        <pt x="741" y="1563" on="0"/>
        <pt x="752" y="1554" on="1"/>
        <pt x="771" y="1536" on="0"/>
        <pt x="771" y="1517" on="1"/>
        <pt x="771" y="1472" on="0"/>
        <pt x="733" y="1472" on="1"/>
        <pt x="668" y="1478" on="1"/>
        <pt x="600" y="1478" on="0"/>
        <pt x="577" y="1424" on="1"/>
        <pt x="556" y="1375" on="0"/>
        <pt x="556" y="1245" on="1"/>
        <pt x="556" y="316" on="1"/>
        <pt x="556" y="187" on="0"/>
        <pt x="589" y="110" on="0"/>
        <pt x="633" y="84" on="0"/>
      </contour>
    </TTGlyph>
    <TTGlyph name="IJ" xMin="105" yMin="-23" xMax="2263" yMax="1576">
      <component glyphName=".ttfautohint" x="105" y="0" flags="0x0"/>
      <component glyphName="I" x="0" y="0" flags="0x1004"/>
      <component glyphName="J" x="876" y="0" flags="0x1004"/>
    </TTGlyph>
    <TTGlyph name="Iacute" xMin="105" yMin="-14" xMax="771" yMax="2016">
      <component glyphName=".ttfautohint" x="105" y="0" flags="0x0"/>
      <component glyphName="I" x="0" y="0" flags="0x1204"/>
      <component glyphName="acute.cap" x="109" y="0" flags="0x1004"/>
    </TTGlyph>
    <TTGlyph name="Ibreve" xMin="10" yMin="-14" xMax="849" yMax="2001">
      <component glyphName=".ttfautohint" x="10" y="0" flags="0x0"/>
      <component glyphName="I" x="0" y="0" flags="0x1204"/>
      <component glyphName="breve.cap" x="-78" y="0" flags="0x1004"/>
    </TTGlyph>
    <TTGlyph name="Icircumflex" xMin="86" yMin="-14" xMax="772" yMax="2020">
      <component glyphName=".ttfautohint" x="86" y="0" flags="0x0"/>
      <component glyphName="I" x="0" y="0" flags="0x1204"/>
      <component glyphName="circumflex.cap" x="-10" y="0" flags="0x1004"/>
    </TTGlyph>
    <TTGlyph name="Idieresis" xMin="-6" yMin="-14" xMax="866" yMax="1972">
      <component glyphName=".ttfautohint" x="0" y="0" flags="0x0"/>
      <component glyphName="I" x="0" y="0" flags="0x1204"/>
      <component glyphName="dieresis.cap" x="-103" y="0" flags="0x1004"/>
    </TTGlyph>
    <TTGlyph name="Idotaccent" xMin="105" yMin="-14" xMax="771" yMax="2020">
      <component glyphName=".ttfautohint" x="105" y="0" flags="0x0"/>
      <component glyphName="I" x="0" y="0" flags="0x1204"/>
      <component glyphName="dotaccent.cap" x="156" y="0" flags="0x1004"/>
    </TTGlyph>
    <TTGlyph name="Igrave" xMin="105" yMin="-14" xMax="771" yMax="2016">
      <component glyphName=".ttfautohint" x="105" y="0" flags="0x0"/>
      <component glyphName="I" x="0" y="0" flags="0x1204"/>
      <component glyphName="grave.cap" x="109" y="0" flags="0x1004"/>
    </TTGlyph>
    <TTGlyph name="Imacron" xMin="23" yMin="-14" xMax="846" yMax="1929">
      <component glyphName=".ttfautohint" x="23" y="0" flags="0x0"/>
      <component glyphName="I" x="0" y="0" flags="0x1204"/>
      <component glyphName="macron.cap" x="-76" y="0" flags="0x1004"/>
    </TTGlyph>
    <TTGlyph name="Iogonek" xMin="105" yMin="-465" xMax="771" yMax="1576">
      <contour>
        <pt x="269" y="-282" on="1"/>
        <pt x="269" y="-123" on="0"/>
        <pt x="398" y="-1" on="1"/>
        <pt x="366" y="-2" on="0"/>
        <pt x="325" y="-7" on="1"/>
        <pt x="257" y="-14" on="0"/>
        <pt x="172" y="-14" on="0"/>
        <pt x="135" y="-1" on="0"/>
        <pt x="124" y="8" on="1"/>
        <pt x="105" y="25" on="0"/>
        <pt x="105" y="62" on="0"/>
        <pt x="125" y="90" on="0"/>
        <pt x="144" y="90" on="1"/>
        <pt x="208" y="84" on="1"/>
        <pt x="276" y="84" on="0"/>
        <pt x="299" y="138" on="1"/>
        <pt x="320" y="187" on="0"/>
        <pt x="320" y="316" on="1"/>
        <pt x="320" y="1245" on="1"/>
        <pt x="320" y="1375" on="0"/>
        <pt x="287" y="1452" on="0"/>
        <pt x="243" y="1478" on="0"/>
        <pt x="208" y="1478" on="1"/>
        <pt x="144" y="1472" on="1"/>
        <pt x="125" y="1472" on="0"/>
        <pt x="105" y="1499" on="0"/>
        <pt x="105" y="1523" on="0"/>
        <pt x="114" y="1544" on="0"/>
        <pt x="124" y="1554" on="1"/>
        <pt x="149" y="1576" on="0"/>
        <pt x="239" y="1576" on="0"/>
        <pt x="301" y="1571" on="0"/>
        <pt x="328" y="1568" on="1"/>
        <pt x="381" y="1564" on="1"/>
        <pt x="407" y="1561" on="0"/>
        <pt x="470" y="1561" on="0"/>
        <pt x="496" y="1564" on="1"/>
        <pt x="549" y="1568" on="1"/>
        <pt x="630" y="1576" on="0"/>
        <pt x="705" y="1576" on="0"/>
        <pt x="741" y="1563" on="0"/>
        <pt x="752" y="1554" on="1"/>
        <pt x="771" y="1536" on="0"/>
        <pt x="771" y="1517" on="1"/>
        <pt x="771" y="1472" on="0"/>
        <pt x="733" y="1472" on="1"/>
        <pt x="668" y="1478" on="1"/>
        <pt x="600" y="1478" on="0"/>
        <pt x="577" y="1424" on="1"/>
        <pt x="556" y="1375" on="0"/>
        <pt x="556" y="1245" on="1"/>
        <pt x="556" y="316" on="1"/>
        <pt x="556" y="187" on="0"/>
        <pt x="589" y="110" on="0"/>
        <pt x="633" y="84" on="0"/>
        <pt x="668" y="84" on="1"/>
        <pt x="733" y="90" on="1"/>
        <pt x="752" y="90" on="0"/>
        <pt x="771" y="62" on="0"/>
        <pt x="771" y="39" on="0"/>
        <pt x="762" y="17" on="0"/>
        <pt x="752" y="8" on="1"/>
        <pt x="726" y="-14" on="0"/>
        <pt x="628" y="-14" on="0"/>
        <pt x="593" y="-11" on="1"/>
        <pt x="526" y="-5" on="1"/>
        <pt x="435" y="-92" on="0"/>
        <pt x="435" y="-192" on="1"/>
        <pt x="435" y="-303" on="0"/>
        <pt x="562" y="-365" on="1"/>
        <pt x="607" y="-387" on="0"/>
        <pt x="673" y="-399" on="1"/>
        <pt x="713" y="-410" on="0"/>
        <pt x="713" y="-435" on="1"/>
        <pt x="713" y="-446" on="0"/>
        <pt x="695" y="-463" on="0"/>
        <pt x="680" y="-463" on="1"/>
        <pt x="459" y="-465" on="1"/>
        <pt x="326" y="-465" on="0"/>
        <pt x="284" y="-367" on="1"/>
        <pt x="269" y="-332" on="0"/>
      </contour>
    </TTGlyph>
    <TTGlyph name="Itilde" xMin="49" yMin="-14" xMax="810" yMax="1940">
      <component glyphName=".ttfautohint" x="49" y="0" flags="0x0"/>
      <component glyphName="I" x="0" y="0" flags="0x1204"/>
      <component glyphName="tilde.cap" x="-47" y="0" flags="0x1004"/>
    </TTGlyph>
    <TTGlyph name="J" xMin="156" yMin="-23" xMax="1387" yMax="1576">
      <contour>
        <pt x="1348" y="1472" on="1"/>
        <pt x="1283" y="1478" on="1"/>
        <pt x="1215" y="1478" on="0"/>
        <pt x="1192" y="1424" on="1"/>
        <pt x="1171" y="1375" on="0"/>
        <pt x="1171" y="1245" on="1"/>
        <pt x="1171" y="489" on="1"/>
        <pt x="1171" y="244" on="0"/>
        <pt x="984" y="102" on="1"/>
        <pt x="817" y="-23" on="0"/>
        <pt x="583" y="-23" on="1"/>
        <pt x="435" y="-23" on="0"/>
        <pt x="270" y="46" on="1"/>
        <pt x="211" y="70" on="0"/>
        <pt x="156" y="106" on="1"/>
        <pt x="156" y="481" on="1"/>
        <pt x="156" y="603" on="0"/>
        <pt x="205" y="603" on="1"/>
        <pt x="238" y="603" on="0"/>
        <pt x="253" y="543" on="1"/>
        <pt x="340" y="201" on="0"/>
        <pt x="521" y="136" on="1"/>
        <pt x="575" y="116" on="0"/>
        <pt x="693" y="116" on="0"/>
        <pt x="804" y="161" on="0"/>
        <pt x="845" y="210" on="1"/>
        <pt x="935" y="316" on="0"/>
        <pt x="935" y="524" on="1"/>
        <pt x="935" y="1245" on="1"/>
        <pt x="935" y="1374" on="0"/>
        <pt x="896" y="1452" on="0"/>
        <pt x="849" y="1478" on="0"/>
        <pt x="813" y="1478" on="1"/>
        <pt x="738" y="1472" on="1"/>
        <pt x="720" y="1472" on="0"/>
        <pt x="700" y="1499" on="0"/>
        <pt x="700" y="1523" on="0"/>
        <pt x="709" y="1544" on="0"/>
        <pt x="720" y="1554" on="1"/>
        <pt x="744" y="1576" on="0"/>
        <pt x="833" y="1576" on="0"/>
        <pt x="866" y="1574" on="1"/>
        <pt x="992" y="1564" on="1"/>
        <pt x="1022" y="1561" on="0"/>
        <pt x="1085" y="1561" on="0"/>
        <pt x="1111" y="1564" on="1"/>
        <pt x="1164" y="1568" on="1"/>
        <pt x="1245" y="1576" on="0"/>
        <pt x="1320" y="1576" on="0"/>
        <pt x="1356" y="1563" on="0"/>
        <pt x="1367" y="1554" on="1"/>
        <pt x="1387" y="1536" on="0"/>
        <pt x="1387" y="1518" on="1"/>
        <pt x="1387" y="1472" on="0"/>
      </contour>
    </TTGlyph>
    <TTGlyph name="Jcircumflex" xMin="156" yMin="-23" xMax="1387" yMax="2020">
      <component glyphName=".ttfautohint" x="156" y="0" flags="0x0"/>
      <component glyphName="J" x="0" y="0" flags="0x1204"/>
      <component glyphName="circumflex.cap" x="597" y="0" flags="0x1004"/>
    </TTGlyph>
    <TTGlyph name="K" xMin="104" yMin="-15" xMax="1625" yMax="1576">
      <contour>
        <pt x="668" y="84" on="1"/>
        <pt x="732" y="90" on="1"/>
        <pt x="751" y="90" on="0"/>
        <pt x="771" y="62" on="0"/>
        <pt x="771" y="39" on="0"/>
        <pt x="762" y="17" on="0"/>
        <pt x="751" y="8" on="1"/>
        <pt x="724" y="-14" on="0"/>
        <pt x="637" y="-14" on="0"/>
        <pt x="576" y="-10" on="0"/>
        <pt x="549" y="-7" on="1"/>
        <pt x="486" y="0" on="0"/>
        <pt x="437" y="0" on="1"/>
        <pt x="389" y="0" on="0"/>
        <pt x="344" y="-5" on="1"/>
        <pt x="263" y="-14" on="0"/>
        <pt x="171" y="-14" on="0"/>
        <pt x="135" y="-1" on="0"/>
        <pt x="124" y="8" on="1"/>
        <pt x="104" y="24" on="0"/>
        <pt x="104" y="43" on="1"/>
        <pt x="104" y="90" on="0"/>
        <pt x="143" y="90" on="1"/>
        <pt x="208" y="84" on="1"/>
        <pt x="276" y="84" on="0"/>
        <pt x="299" y="138" on="1"/>
        <pt x="320" y="187" on="0"/>
        <pt x="320" y="316" on="1"/>
        <pt x="320" y="1245" on="1"/>
        <pt x="320" y="1375" on="0"/>
        <pt x="287" y="1452" on="0"/>
        <pt x="243" y="1478" on="0"/>
        <pt x="208" y="1478" on="1"/>
        <pt x="143" y="1472" on="1"/>
        <pt x="124" y="1472" on="0"/>
        <pt x="104" y="1499" on="0"/>
        <pt x="104" y="1523" on="0"/>
        <pt x="113" y="1544" on="0"/>
        <pt x="124" y="1554" on="1"/>
        <pt x="150" y="1576" on="0"/>
        <pt x="238" y="1576" on="0"/>
        <pt x="299" y="1571" on="0"/>
        <pt x="326" y="1568" on="1"/>
        <pt x="380" y="1564" on="1"/>
        <pt x="406" y="1561" on="0"/>
        <pt x="437" y="1561" on="1"/>
        <pt x="468" y="1561" on="0"/>
        <pt x="522" y="1566" on="0"/>
        <pt x="549" y="1568" on="1"/>
        <pt x="630" y="1576" on="0"/>
        <pt x="704" y="1576" on="0"/>
        <pt x="740" y="1563" on="0"/>
        <pt x="751" y="1554" on="1"/>
        <pt x="771" y="1536" on="0"/>
        <pt x="771" y="1518" on="1"/>
        <pt x="771" y="1472" on="0"/>
        <pt x="732" y="1472" on="1"/>
        <pt x="668" y="1478" on="1"/>
        <pt x="599" y="1478" on="0"/>
        <pt x="576" y="1424" on="1"/>
        <pt x="555" y="1375" on="0"/>
        <pt x="555" y="1245" on="1"/>
        <pt x="555" y="898" on="1"/>
        <pt x="638" y="923" on="0"/>
        <pt x="727" y="987" on="1"/>
        <pt x="883" y="1101" on="0"/>
        <pt x="1074" y="1282" on="1"/>
        <pt x="1204" y="1407" on="0"/>
        <pt x="1204" y="1450" on="1"/>
        <pt x="1204" y="1478" on="0"/>
        <pt x="1162" y="1478" on="1"/>
        <pt x="1097" y="1481" on="1"/>
        <pt x="1080" y="1481" on="0"/>
        <pt x="1058" y="1508" on="0"/>
        <pt x="1058" y="1523" on="1"/>
        <pt x="1058" y="1575" on="0"/>
        <pt x="1143" y="1575" on="1"/>
        <pt x="1363" y="1561" on="1"/>
        <pt x="1520" y="1575" on="1"/>
        <pt x="1612" y="1575" on="0"/>
        <pt x="1612" y="1523" on="1"/>
        <pt x="1612" y="1494" on="0"/>
        <pt x="1583" y="1471" on="0"/>
        <pt x="1574" y="1471" on="1"/>
        <pt x="1508" y="1477" on="1"/>
        <pt x="1455" y="1477" on="0"/>
        <pt x="1330" y="1355" on="1"/>
        <pt x="906" y="941" on="0"/>
        <pt x="690" y="838" on="1"/>
        <pt x="894" y="804" on="0"/>
        <pt x="1020" y="713" on="1"/>
        <pt x="1161" y="610" on="0"/>
        <pt x="1271" y="391" on="1"/>
        <pt x="1338" y="253" on="0"/>
        <pt x="1418" y="170" on="1"/>
        <pt x="1485" y="102" on="0"/>
        <pt x="1535" y="102" on="1"/>
        <pt x="1584" y="112" on="1"/>
        <pt x="1614" y="112" on="0"/>
        <pt x="1623" y="66" on="1"/>
        <pt x="1625" y="56" on="0"/>
        <pt x="1625" y="37" on="0"/>
        <pt x="1606" y="14" on="0"/>
        <pt x="1590" y="6" on="1"/>
        <pt x="1554" y="-12" on="0"/>
        <pt x="1417" y="-12" on="0"/>
        <pt x="1265" y="39" on="0"/>
        <pt x="1198" y="92" on="1"/>
        <pt x="1070" y="195" on="0"/>
        <pt x="959" y="420" on="1"/>
        <pt x="839" y="660" on="0"/>
        <pt x="670" y="714" on="1"/>
        <pt x="616" y="732" on="0"/>
        <pt x="555" y="738" on="1"/>
        <pt x="555" y="316" on="1"/>
        <pt x="555" y="187" on="0"/>
        <pt x="588" y="110" on="0"/>
        <pt x="632" y="84" on="0"/>
      </contour>
    </TTGlyph>
    <TTGlyph name="Kcommaaccent" xMin="104" yMin="-525" xMax="1625" yMax="1576">
      <component glyphName=".ttfautohint" x="104" y="0" flags="0x0"/>
      <component glyphName="K" x="0" y="0" flags="0x1204"/>
      <component glyphName="commaaccent" x="624" y="0" flags="0x1004"/>
    </TTGlyph>
    <TTGlyph name="L" xMin="105" yMin="-15" xMax="1341" yMax="1576">
      <contour>
        <pt x="1317" y="406" on="1"/>
        <pt x="1341" y="406" on="0"/>
        <pt x="1341" y="379" on="1"/>
        <pt x="1341" y="368" on="0"/>
        <pt x="1323" y="331" on="0"/>
        <pt x="1310" y="274" on="1"/>
        <pt x="1281" y="138" on="0"/>
        <pt x="1281" y="33" on="0"/>
        <pt x="1284" y="0" on="1"/>
        <pt x="505" y="0" on="1"/>
        <pt x="436" y="0" on="0"/>
        <pt x="370" y="-5" on="1"/>
        <pt x="272" y="-12" on="1"/>
        <pt x="239" y="-15" on="0"/>
        <pt x="171" y="-15" on="0"/>
        <pt x="135" y="-2" on="0"/>
        <pt x="124" y="7" on="1"/>
        <pt x="105" y="24" on="0"/>
        <pt x="105" y="61" on="0"/>
        <pt x="125" y="90" on="0"/>
        <pt x="143" y="90" on="1"/>
        <pt x="208" y="83" on="1"/>
        <pt x="277" y="83" on="0"/>
        <pt x="301" y="144" on="1"/>
        <pt x="320" y="192" on="0"/>
        <pt x="320" y="330" on="1"/>
        <pt x="320" y="1245" on="1"/>
        <pt x="320" y="1375" on="0"/>
        <pt x="287" y="1452" on="0"/>
        <pt x="243" y="1478" on="0"/>
        <pt x="208" y="1478" on="1"/>
        <pt x="143" y="1472" on="1"/>
        <pt x="125" y="1472" on="0"/>
        <pt x="105" y="1499" on="0"/>
        <pt x="105" y="1523" on="0"/>
        <pt x="114" y="1544" on="0"/>
        <pt x="124" y="1554" on="1"/>
        <pt x="149" y="1576" on="0"/>
        <pt x="239" y="1576" on="0"/>
        <pt x="300" y="1571" on="0"/>
        <pt x="327" y="1568" on="1"/>
        <pt x="380" y="1564" on="1"/>
        <pt x="406" y="1561" on="0"/>
        <pt x="469" y="1561" on="0"/>
        <pt x="496" y="1564" on="1"/>
        <pt x="549" y="1568" on="1"/>
        <pt x="630" y="1576" on="0"/>
        <pt x="704" y="1576" on="0"/>
        <pt x="741" y="1563" on="0"/>
        <pt x="752" y="1554" on="1"/>
        <pt x="772" y="1536" on="0"/>
        <pt x="772" y="1499" on="0"/>
        <pt x="751" y="1472" on="0"/>
        <pt x="733" y="1472" on="1"/>
        <pt x="668" y="1478" on="1"/>
        <pt x="601" y="1478" on="0"/>
        <pt x="576" y="1424" on="1"/>
        <pt x="555" y="1376" on="0"/>
        <pt x="555" y="1245" on="1"/>
        <pt x="555" y="264" on="1"/>
        <pt x="555" y="129" on="0"/>
        <pt x="648" y="129" on="1"/>
        <pt x="851" y="129" on="1"/>
        <pt x="968" y="129" on="0"/>
        <pt x="1099" y="200" on="0"/>
        <pt x="1202" y="295" on="0"/>
        <pt x="1266" y="372" on="1"/>
        <pt x="1298" y="406" on="0"/>
      </contour>
    </TTGlyph>
    <TTGlyph name="Lacute" xMin="109" yMin="-15" xMax="1400" yMax="2020">
      <contour>
        <pt x="841" y="1659" on="1"/>
        <pt x="809" y="1643" on="0"/>
        <pt x="779" y="1643" on="0"/>
        <pt x="765" y="1663" on="0"/>
        <pt x="765" y="1672" on="1"/>
        <pt x="765" y="1685" on="0"/>
        <pt x="782" y="1708" on="1"/>
        <pt x="941" y="1905" on="1"/>
        <pt x="1019" y="2002" on="0"/>
        <pt x="1082" y="2016" on="1"/>
        <pt x="1102" y="2020" on="0"/>
        <pt x="1162" y="2020" on="0"/>
        <pt x="1214" y="1973" on="0"/>
        <pt x="1214" y="1932" on="1"/>
        <pt x="1214" y="1852" on="0"/>
        <pt x="1077" y="1779" on="1"/>
      </contour>
      <contour>
        <pt x="1376" y="398" on="1"/>
        <pt x="1400" y="398" on="0"/>
        <pt x="1400" y="372" on="1"/>
        <pt x="1400" y="345" on="0"/>
        <pt x="1356" y="254" on="0"/>
        <pt x="1330" y="193" on="0"/>
        <pt x="1319" y="160" on="1"/>
        <pt x="1297" y="95" on="0"/>
        <pt x="1275" y="0" on="1"/>
        <pt x="502" y="0" on="1"/>
        <pt x="434" y="0" on="0"/>
        <pt x="369" y="-5" on="1"/>
        <pt x="272" y="-12" on="1"/>
        <pt x="241" y="-15" on="0"/>
        <pt x="174" y="-15" on="0"/>
        <pt x="139" y="-2" on="0"/>
        <pt x="128" y="7" on="1"/>
        <pt x="109" y="24" on="0"/>
        <pt x="109" y="60" on="0"/>
        <pt x="129" y="88" on="0"/>
        <pt x="147" y="88" on="1"/>
        <pt x="210" y="81" on="1"/>
        <pt x="279" y="81" on="0"/>
        <pt x="302" y="140" on="1"/>
        <pt x="320" y="188" on="0"/>
        <pt x="320" y="324" on="1"/>
        <pt x="320" y="1204" on="1"/>
        <pt x="320" y="1333" on="0"/>
        <pt x="288" y="1406" on="0"/>
        <pt x="245" y="1432" on="0"/>
        <pt x="210" y="1432" on="1"/>
        <pt x="147" y="1426" on="1"/>
        <pt x="129" y="1426" on="0"/>
        <pt x="109" y="1453" on="0"/>
        <pt x="109" y="1476" on="0"/>
        <pt x="118" y="1497" on="0"/>
        <pt x="128" y="1506" on="1"/>
        <pt x="154" y="1528" on="0"/>
        <pt x="241" y="1528" on="0"/>
        <pt x="301" y="1523" on="0"/>
        <pt x="353" y="1518" on="0"/>
        <pt x="405" y="1513" on="0"/>
        <pt x="466" y="1513" on="0"/>
        <pt x="492" y="1516" on="1"/>
        <pt x="544" y="1520" on="1"/>
        <pt x="624" y="1528" on="0"/>
        <pt x="697" y="1528" on="0"/>
        <pt x="733" y="1515" on="0"/>
        <pt x="744" y="1506" on="1"/>
        <pt x="763" y="1489" on="0"/>
        <pt x="763" y="1453" on="0"/>
        <pt x="743" y="1426" on="0"/>
        <pt x="725" y="1426" on="1"/>
        <pt x="661" y="1432" on="1"/>
        <pt x="594" y="1432" on="0"/>
        <pt x="571" y="1378" on="1"/>
        <pt x="551" y="1333" on="0"/>
        <pt x="551" y="1204" on="1"/>
        <pt x="551" y="259" on="1"/>
        <pt x="551" y="126" on="0"/>
        <pt x="642" y="126" on="1"/>
        <pt x="851" y="126" on="1"/>
        <pt x="990" y="126" on="0"/>
        <pt x="1063" y="162" on="1"/>
        <pt x="1188" y="223" on="0"/>
        <pt x="1326" y="365" on="1"/>
        <pt x="1357" y="398" on="0"/>
      </contour>
    </TTGlyph>
    <TTGlyph name="Lcaron" xMin="105" yMin="-10" xMax="1341" yMax="1581">
      <component glyphName=".ttfautohint" x="105" y="0" flags="0x0"/>
      <component glyphName="L" x="0" y="5" flags="0x1204"/>
      <component glyphName="caronvertical" x="870" y="0" flags="0x1004"/>
    </TTGlyph>
    <TTGlyph name="Lcommaaccent" xMin="105" yMin="-525" xMax="1341" yMax="1576">
      <component glyphName=".ttfautohint" x="105" y="0" flags="0x0"/>
      <component glyphName="L" x="0" y="0" flags="0x1204"/>
      <component glyphName="commaaccent" x="504" y="0" flags="0x1004"/>
    </TTGlyph>
    <TTGlyph name="Ldot" xMin="105" yMin="-15" xMax="1430" yMax="1576">
      <component glyphName=".ttfautohint" x="105" y="0" flags="0x0"/>
      <component glyphName="L" x="0" y="0" flags="0x1204"/>
      <component glyphName="period" x="918" y="790" flags="0x1004"/>
    </TTGlyph>
    <TTGlyph name="Lslash" xMin="105" yMin="-15" xMax="1341" yMax="1576">
      <contour>
        <pt x="1317" y="406" on="1"/>
        <pt x="1341" y="406" on="0"/>
        <pt x="1341" y="379" on="1"/>
        <pt x="1341" y="368" on="0"/>
        <pt x="1323" y="331" on="0"/>
        <pt x="1310" y="274" on="1"/>
        <pt x="1281" y="138" on="0"/>
        <pt x="1281" y="33" on="0"/>
        <pt x="1284" y="0" on="1"/>
        <pt x="505" y="0" on="1"/>
        <pt x="436" y="0" on="0"/>
        <pt x="370" y="-5" on="1"/>
        <pt x="272" y="-12" on="1"/>
        <pt x="239" y="-15" on="0"/>
        <pt x="171" y="-15" on="0"/>
        <pt x="135" y="-2" on="0"/>
        <pt x="124" y="7" on="1"/>
        <pt x="105" y="24" on="0"/>
        <pt x="105" y="61" on="0"/>
        <pt x="125" y="90" on="0"/>
        <pt x="143" y="90" on="1"/>
        <pt x="208" y="83" on="1"/>
        <pt x="277" y="83" on="0"/>
        <pt x="301" y="144" on="1"/>
        <pt x="320" y="192" on="0"/>
        <pt x="320" y="330" on="1"/>
        <pt x="320" y="622" on="1"/>
        <pt x="257" y="588" on="1"/>
        <pt x="192" y="553" on="0"/>
        <pt x="148" y="553" on="0"/>
        <pt x="120" y="579" on="0"/>
        <pt x="120" y="602" on="1"/>
        <pt x="120" y="643" on="0"/>
        <pt x="181" y="676" on="1"/>
        <pt x="320" y="750" on="1"/>
        <pt x="320" y="1245" on="1"/>
        <pt x="320" y="1375" on="0"/>
        <pt x="287" y="1452" on="0"/>
        <pt x="243" y="1478" on="0"/>
        <pt x="208" y="1478" on="1"/>
        <pt x="143" y="1472" on="1"/>
        <pt x="125" y="1472" on="0"/>
        <pt x="105" y="1499" on="0"/>
        <pt x="105" y="1523" on="0"/>
        <pt x="114" y="1544" on="0"/>
        <pt x="124" y="1554" on="1"/>
        <pt x="149" y="1576" on="0"/>
        <pt x="239" y="1576" on="0"/>
        <pt x="300" y="1571" on="0"/>
        <pt x="327" y="1568" on="1"/>
        <pt x="380" y="1564" on="1"/>
        <pt x="406" y="1561" on="0"/>
        <pt x="469" y="1561" on="0"/>
        <pt x="496" y="1564" on="1"/>
        <pt x="549" y="1568" on="1"/>
        <pt x="630" y="1576" on="0"/>
        <pt x="704" y="1576" on="0"/>
        <pt x="741" y="1563" on="0"/>
        <pt x="752" y="1554" on="1"/>
        <pt x="772" y="1536" on="0"/>
        <pt x="772" y="1499" on="0"/>
        <pt x="751" y="1472" on="0"/>
        <pt x="733" y="1472" on="1"/>
        <pt x="733" y="1472" on="0"/>
        <pt x="668" y="1478" on="1"/>
        <pt x="601" y="1478" on="0"/>
        <pt x="576" y="1424" on="1"/>
        <pt x="555" y="1376" on="0"/>
        <pt x="555" y="1245" on="1"/>
        <pt x="555" y="876" on="1"/>
        <pt x="753" y="983" on="1"/>
        <pt x="837" y="1028" on="0"/>
        <pt x="876" y="1028" on="0"/>
        <pt x="906" y="1003" on="0"/>
        <pt x="906" y="982" on="1"/>
        <pt x="906" y="940" on="0"/>
        <pt x="822" y="895" on="1"/>
        <pt x="555" y="750" on="1"/>
        <pt x="555" y="264" on="1"/>
        <pt x="555" y="129" on="0"/>
        <pt x="648" y="129" on="1"/>
        <pt x="851" y="129" on="1"/>
        <pt x="968" y="129" on="0"/>
        <pt x="1099" y="200" on="0"/>
        <pt x="1202" y="295" on="0"/>
        <pt x="1266" y="372" on="1"/>
        <pt x="1298" y="406" on="0"/>
      </contour>
    </TTGlyph>
    <TTGlyph name="M" xMin="59" yMin="-15" xMax="2047" yMax="1578">
      <contour>
        <pt x="553" y="-15" on="1"/>
        <pt x="369" y="0" on="1"/>
        <pt x="346" y="0" on="0"/>
        <pt x="326" y="-2" on="1"/>
        <pt x="285" y="-8" on="1"/>
        <pt x="222" y="-15" on="0"/>
        <pt x="159" y="-15" on="0"/>
        <pt x="122" y="-2" on="0"/>
        <pt x="112" y="7" on="1"/>
        <pt x="92" y="24" on="0"/>
        <pt x="92" y="61" on="0"/>
        <pt x="112" y="89" on="0"/>
        <pt x="131" y="89" on="1"/>
        <pt x="195" y="83" on="1"/>
        <pt x="261" y="83" on="0"/>
        <pt x="282" y="137" on="1"/>
        <pt x="297" y="178" on="0"/>
        <pt x="297" y="315" on="1"/>
        <pt x="298" y="1164" on="1"/>
        <pt x="298" y="1256" on="0"/>
        <pt x="261" y="1346" on="0"/>
        <pt x="208" y="1421" on="0"/>
        <pt x="143" y="1469" on="0"/>
        <pt x="91" y="1496" on="0"/>
        <pt x="59" y="1511" on="0"/>
        <pt x="59" y="1530" on="0"/>
        <pt x="65" y="1548" on="0"/>
        <pt x="72" y="1556" on="1"/>
        <pt x="87" y="1575" on="0"/>
        <pt x="157" y="1575" on="0"/>
        <pt x="222" y="1571" on="0"/>
        <pt x="256" y="1568" on="1"/>
        <pt x="337" y="1561" on="0"/>
        <pt x="426" y="1561" on="1"/>
        <pt x="1077" y="541" on="1"/>
        <pt x="1603" y="1562" on="1"/>
        <pt x="1692" y="1562" on="0"/>
        <pt x="1761" y="1568" on="1"/>
        <pt x="1892" y="1578" on="0"/>
        <pt x="1973" y="1578" on="0"/>
        <pt x="2009" y="1565" on="0"/>
        <pt x="2020" y="1556" on="1"/>
        <pt x="2040" y="1538" on="0"/>
        <pt x="2040" y="1501" on="0"/>
        <pt x="2019" y="1473" on="0"/>
        <pt x="2002" y="1473" on="1"/>
        <pt x="1937" y="1480" on="1"/>
        <pt x="1872" y="1480" on="0"/>
        <pt x="1852" y="1431" on="1"/>
        <pt x="1832" y="1385" on="0"/>
        <pt x="1832" y="1243" on="1"/>
        <pt x="1832" y="315" on="1"/>
        <pt x="1832" y="184" on="0"/>
        <pt x="1864" y="109" on="0"/>
        <pt x="1908" y="83" on="0"/>
        <pt x="1944" y="83" on="1"/>
        <pt x="2009" y="89" on="1"/>
        <pt x="2027" y="89" on="0"/>
        <pt x="2047" y="61" on="0"/>
        <pt x="2047" y="38" on="0"/>
        <pt x="2038" y="16" on="0"/>
        <pt x="2028" y="7" on="1"/>
        <pt x="1994" y="-22" on="0"/>
        <pt x="1882" y="-12" on="1"/>
        <pt x="1851" y="-10" on="0"/>
        <pt x="1824" y="-8" on="1"/>
        <pt x="1770" y="-2" on="1"/>
        <pt x="1744" y="0" on="0"/>
        <pt x="1713" y="0" on="1"/>
        <pt x="1682" y="0" on="0"/>
        <pt x="1656" y="-2" on="1"/>
        <pt x="1603" y="-8" on="1"/>
        <pt x="1522" y="-15" on="0"/>
        <pt x="1447" y="-15" on="0"/>
        <pt x="1411" y="-2" on="0"/>
        <pt x="1400" y="7" on="1"/>
        <pt x="1381" y="24" on="0"/>
        <pt x="1381" y="42" on="1"/>
        <pt x="1381" y="89" on="0"/>
        <pt x="1419" y="89" on="1"/>
        <pt x="1484" y="83" on="1"/>
        <pt x="1552" y="83" on="0"/>
        <pt x="1575" y="138" on="1"/>
        <pt x="1596" y="187" on="0"/>
        <pt x="1596" y="315" on="1"/>
        <pt x="1606" y="1263" on="1"/>
        <pt x="1078" y="255" on="1"/>
        <pt x="1049" y="199" on="0"/>
        <pt x="1018" y="199" on="1"/>
        <pt x="1002" y="199" on="0"/>
        <pt x="975" y="234" on="0"/>
        <pt x="931" y="302" on="1"/>
        <pt x="822" y="476" on="1"/>
        <pt x="504" y="1004" on="0"/>
        <pt x="431" y="1115" on="1"/>
        <pt x="431" y="315" on="1"/>
        <pt x="431" y="186" on="0"/>
        <pt x="464" y="109" on="0"/>
        <pt x="508" y="83" on="0"/>
        <pt x="544" y="83" on="1"/>
        <pt x="608" y="89" on="1"/>
        <pt x="626" y="89" on="0"/>
        <pt x="647" y="61" on="0"/>
        <pt x="647" y="38" on="0"/>
        <pt x="638" y="16" on="0"/>
        <pt x="627" y="7" on="1"/>
        <pt x="600" y="-15" on="0"/>
      </contour>
    </TTGlyph>
    <TTGlyph name="N" xMin="50" yMin="-39" xMax="1779" yMax="1577">
      <contour>
        <pt x="552" y="-15" on="1"/>
        <pt x="361" y="0" on="1"/>
        <pt x="340" y="0" on="0"/>
        <pt x="320" y="-2" on="1"/>
        <pt x="278" y="-8" on="1"/>
        <pt x="214" y="-15" on="0"/>
        <pt x="151" y="-15" on="0"/>
        <pt x="115" y="-2" on="0"/>
        <pt x="104" y="7" on="1"/>
        <pt x="84" y="23" on="0"/>
        <pt x="84" y="42" on="1"/>
        <pt x="84" y="89" on="0"/>
        <pt x="123" y="89" on="1"/>
        <pt x="187" y="83" on="1"/>
        <pt x="254" y="83" on="0"/>
        <pt x="274" y="137" on="1"/>
        <pt x="290" y="178" on="0"/>
        <pt x="290" y="315" on="1"/>
        <pt x="291" y="1189" on="1"/>
        <pt x="291" y="1253" on="0"/>
        <pt x="223" y="1378" on="0"/>
        <pt x="145" y="1461" on="0"/>
        <pt x="108" y="1478" on="1"/>
        <pt x="50" y="1506" on="0"/>
        <pt x="50" y="1537" on="1"/>
        <pt x="50" y="1547" on="0"/>
        <pt x="76" y="1575" on="0"/>
        <pt x="109" y="1575" on="1"/>
        <pt x="372" y="1561" on="1"/>
        <pt x="1440" y="390" on="1"/>
        <pt x="1440" y="1246" on="1"/>
        <pt x="1440" y="1376" on="0"/>
        <pt x="1406" y="1454" on="0"/>
        <pt x="1362" y="1480" on="0"/>
        <pt x="1327" y="1480" on="1"/>
        <pt x="1254" y="1473" on="1"/>
        <pt x="1236" y="1473" on="0"/>
        <pt x="1215" y="1501" on="0"/>
        <pt x="1215" y="1524" on="0"/>
        <pt x="1225" y="1545" on="0"/>
        <pt x="1236" y="1554" on="1"/>
        <pt x="1262" y="1577" on="0"/>
        <pt x="1311" y="1577" on="1"/>
        <pt x="1502" y="1562" on="1"/>
        <pt x="1524" y="1562" on="0"/>
        <pt x="1544" y="1564" on="1"/>
        <pt x="1584" y="1570" on="1"/>
        <pt x="1647" y="1577" on="0"/>
        <pt x="1712" y="1577" on="0"/>
        <pt x="1749" y="1564" on="0"/>
        <pt x="1760" y="1554" on="1"/>
        <pt x="1779" y="1537" on="0"/>
        <pt x="1779" y="1501" on="0"/>
        <pt x="1759" y="1473" on="0"/>
        <pt x="1742" y="1473" on="1"/>
        <pt x="1676" y="1480" on="1"/>
        <pt x="1610" y="1480" on="0"/>
        <pt x="1590" y="1426" on="1"/>
        <pt x="1574" y="1385" on="0"/>
        <pt x="1574" y="1246" on="1"/>
        <pt x="1571" y="142" on="1"/>
        <pt x="1571" y="65" on="0"/>
        <pt x="1599" y="27" on="0"/>
        <pt x="1610" y="19" on="1"/>
        <pt x="1624" y="9" on="0"/>
        <pt x="1624" y="-9" on="1"/>
        <pt x="1624" y="-39" on="0"/>
        <pt x="1591" y="-39" on="1"/>
        <pt x="1554" y="-39" on="0"/>
        <pt x="1482" y="11" on="1"/>
        <pt x="424" y="1158" on="1"/>
        <pt x="424" y="315" on="1"/>
        <pt x="424" y="186" on="0"/>
        <pt x="457" y="109" on="0"/>
        <pt x="501" y="83" on="0"/>
        <pt x="536" y="83" on="1"/>
        <pt x="610" y="89" on="1"/>
        <pt x="629" y="89" on="0"/>
        <pt x="649" y="61" on="0"/>
        <pt x="649" y="38" on="0"/>
        <pt x="639" y="16" on="0"/>
        <pt x="628" y="7" on="1"/>
        <pt x="601" y="-15" on="0"/>
      </contour>
    </TTGlyph>
    <TTGlyph name="Nacute" xMin="50" yMin="-39" xMax="1779" yMax="2016">
      <component glyphName=".ttfautohint" x="50" y="0" flags="0x0"/>
      <component glyphName="N" x="0" y="0" flags="0x1204"/>
      <component glyphName="acute.cap" x="613" y="0" flags="0x1004"/>
    </TTGlyph>
    <TTGlyph name="Ncaron" xMin="50" yMin="-39" xMax="1779" yMax="2020">
      <component glyphName=".ttfautohint" x="50" y="0" flags="0x0"/>
      <component glyphName="N" x="0" y="0" flags="0x1204"/>
      <component glyphName="caron.cap" x="493" y="0" flags="0x1004"/>
    </TTGlyph>
    <TTGlyph name="Ncommaaccent" xMin="50" yMin="-525" xMax="1779" yMax="1577">
      <component glyphName=".ttfautohint" x="50" y="0" flags="0x0"/>
      <component glyphName="N" x="0" y="0" flags="0x1204"/>
      <component glyphName="commaaccent" x="705" y="0" flags="0x1004"/>
    </TTGlyph>
    <TTGlyph name="Ntilde" xMin="50" yMin="-39" xMax="1779" yMax="1940">
      <component glyphName=".ttfautohint" x="50" y="0" flags="0x0"/>
      <component glyphName="N" x="0" y="0" flags="0x1204"/>
      <component glyphName="tilde.cap" x="456" y="0" flags="0x1004"/>
    </TTGlyph>
    <TTGlyph name="O" xMin="99" yMin="-23" xMax="1747" yMax="1592">
      <contour>
        <pt x="99" y="792" on="1"/>
        <pt x="99" y="936" on="0"/>
        <pt x="217" y="1244" on="0"/>
        <pt x="328" y="1356" on="1"/>
        <pt x="562" y="1592" on="0"/>
        <pt x="950" y="1592" on="1"/>
        <pt x="1175" y="1592" on="0"/>
        <pt x="1362" y="1482" on="1"/>
        <pt x="1538" y="1377" on="0"/>
        <pt x="1642" y="1196" on="1"/>
        <pt x="1747" y="1014" on="0"/>
        <pt x="1747" y="802" on="1"/>
        <pt x="1747" y="547" on="0"/>
        <pt x="1630" y="354" on="1"/>
        <pt x="1523" y="175" on="0"/>
        <pt x="1328" y="74" on="1"/>
        <pt x="1141" y="-23" on="0"/>
        <pt x="912" y="-23" on="1"/>
        <pt x="672" y="-23" on="0"/>
        <pt x="482" y="84" on="1"/>
        <pt x="99" y="297" on="0"/>
      </contour>
      <contour>
        <pt x="320" y="902" on="1"/>
        <pt x="320" y="775" on="0"/>
        <pt x="377" y="559" on="0"/>
        <pt x="476" y="385" on="0"/>
        <pt x="612" y="256" on="0"/>
        <pt x="690" y="213" on="1"/>
        <pt x="848" y="127" on="0"/>
        <pt x="1026" y="127" on="1"/>
        <pt x="1231" y="127" on="0"/>
        <pt x="1360" y="256" on="1"/>
        <pt x="1501" y="399" on="0"/>
        <pt x="1501" y="662" on="1"/>
        <pt x="1501" y="1010" on="0"/>
        <pt x="1299" y="1232" on="1"/>
        <pt x="1105" y="1445" on="0"/>
        <pt x="836" y="1445" on="1"/>
        <pt x="613" y="1445" on="0"/>
        <pt x="470" y="1300" on="1"/>
        <pt x="320" y="1149" on="0"/>
      </contour>
    </TTGlyph>
    <TTGlyph name="OE" xMin="104" yMin="-23" xMax="2270" yMax="1592">
      <contour>
        <pt x="2246" y="384" on="1"/>
        <pt x="2270" y="384" on="0"/>
        <pt x="2270" y="336" on="0"/>
        <pt x="2232" y="272" on="1"/>
        <pt x="2165" y="158" on="0"/>
        <pt x="2111" y="0" on="1"/>
        <pt x="1277" y="0" on="1"/>
        <pt x="1217" y="0" on="0"/>
        <pt x="1143" y="-8" on="1"/>
        <pt x="1003" y="-23" on="0"/>
        <pt x="917" y="-23" on="1"/>
        <pt x="547" y="-23" on="0"/>
        <pt x="325" y="189" on="1"/>
        <pt x="104" y="400" on="0"/>
        <pt x="104" y="744" on="1"/>
        <pt x="104" y="1116" on="0"/>
        <pt x="332" y="1350" on="1"/>
        <pt x="568" y="1592" on="0"/>
        <pt x="954" y="1592" on="1"/>
        <pt x="1049" y="1592" on="0"/>
        <pt x="1178" y="1572" on="0"/>
        <pt x="1217" y="1569" on="1"/>
        <pt x="1321" y="1561" on="0"/>
        <pt x="1438" y="1561" on="1"/>
        <pt x="2092" y="1561" on="1"/>
        <pt x="2101" y="1483" on="0"/>
        <pt x="2127" y="1396" on="1"/>
        <pt x="2164" y="1272" on="1"/>
        <pt x="2174" y="1236" on="0"/>
        <pt x="2174" y="1222" on="1"/>
        <pt x="2174" y="1193" on="0"/>
        <pt x="2153" y="1193" on="1"/>
        <pt x="2134" y="1193" on="0"/>
        <pt x="2083" y="1258" on="0"/>
        <pt x="2015" y="1333" on="0"/>
        <pt x="1972" y="1363" on="1"/>
        <pt x="1873" y="1431" on="0"/>
        <pt x="1741" y="1431" on="1"/>
        <pt x="1469" y="1431" on="1"/>
        <pt x="1416" y="1431" on="0"/>
        <pt x="1377" y="1385" on="0"/>
        <pt x="1377" y="1342" on="1"/>
        <pt x="1377" y="916" on="1"/>
        <pt x="1377" y="863" on="0"/>
        <pt x="1463" y="863" on="1"/>
        <pt x="1712" y="863" on="1"/>
        <pt x="1782" y="863" on="0"/>
        <pt x="1840" y="933" on="1"/>
        <pt x="1860" y="957" on="0"/>
        <pt x="1879" y="1004" on="0"/>
        <pt x="1893" y="1020" on="0"/>
        <pt x="1905" y="1020" on="1"/>
        <pt x="1936" y="1020" on="0"/>
        <pt x="1936" y="964" on="1"/>
        <pt x="1927" y="803" on="1"/>
        <pt x="1936" y="645" on="1"/>
        <pt x="1936" y="589" on="0"/>
        <pt x="1905" y="589" on="1"/>
        <pt x="1887" y="589" on="0"/>
        <pt x="1860" y="652" on="0"/>
        <pt x="1820" y="700" on="0"/>
        <pt x="1798" y="715" on="1"/>
        <pt x="1752" y="745" on="0"/>
        <pt x="1712" y="745" on="1"/>
        <pt x="1462" y="745" on="1"/>
        <pt x="1421" y="745" on="0"/>
        <pt x="1377" y="708" on="0"/>
        <pt x="1377" y="682" on="1"/>
        <pt x="1377" y="264" on="1"/>
        <pt x="1377" y="129" on="0"/>
        <pt x="1469" y="129" on="1"/>
        <pt x="1679" y="129" on="1"/>
        <pt x="1928" y="129" on="0"/>
        <pt x="2069" y="240" on="1"/>
        <pt x="2110" y="273" on="0"/>
        <pt x="2145" y="308" on="1"/>
        <pt x="2182" y="346" on="1"/>
        <pt x="2214" y="378" on="0"/>
        <pt x="2240" y="383" on="0"/>
      </contour>
      <contour>
        <pt x="1141" y="1376" on="1"/>
        <pt x="997" y="1450" on="0"/>
        <pt x="732" y="1450" on="0"/>
        <pt x="544" y="1373" on="0"/>
        <pt x="474" y="1302" on="1"/>
        <pt x="325" y="1149" on="0"/>
        <pt x="325" y="906" on="1"/>
        <pt x="325" y="667" on="0"/>
        <pt x="432" y="480" on="1"/>
        <pt x="528" y="311" on="0"/>
        <pt x="696" y="214" on="1"/>
        <pt x="853" y="122" on="0"/>
        <pt x="1031" y="122" on="1"/>
        <pt x="1097" y="122" on="0"/>
        <pt x="1141" y="135" on="1"/>
      </contour>
    </TTGlyph>
    <TTGlyph name="Oacute" xMin="99" yMin="-23" xMax="1747" yMax="2016">
      <component glyphName=".ttfautohint" x="99" y="0" flags="0x0"/>
      <component glyphName="O" x="0" y="0" flags="0x1204"/>
      <component glyphName="acute.cap" x="581" y="0" flags="0x1004"/>
    </TTGlyph>
    <TTGlyph name="Obreve" xMin="99" yMin="-23" xMax="1747" yMax="2001">
      <component glyphName=".ttfautohint" x="99" y="0" flags="0x0"/>
      <component glyphName="O" x="0" y="0" flags="0x1204"/>
      <component glyphName="breve.cap" x="393" y="0" flags="0x1004"/>
    </TTGlyph>
    <TTGlyph name="Ocircumflex" xMin="99" yMin="-23" xMax="1747" yMax="2020">
      <component glyphName=".ttfautohint" x="99" y="0" flags="0x0"/>
      <component glyphName="O" x="0" y="0" flags="0x1204"/>
      <component glyphName="circumflex.cap" x="461" y="0" flags="0x1004"/>
    </TTGlyph>
    <TTGlyph name="Odieresis" xMin="99" yMin="-23" xMax="1747" yMax="1972">
      <component glyphName=".ttfautohint" x="99" y="0" flags="0x0"/>
      <component glyphName="O" x="0" y="0" flags="0x1204"/>
      <component glyphName="dieresis.cap" x="368" y="0" flags="0x1004"/>
    </TTGlyph>
    <TTGlyph name="Ograve" xMin="99" yMin="-23" xMax="1747" yMax="2016">
      <component glyphName=".ttfautohint" x="99" y="0" flags="0x0"/>
      <component glyphName="O" x="0" y="0" flags="0x1204"/>
      <component glyphName="grave.cap" x="581" y="0" flags="0x1004"/>
    </TTGlyph>
    <TTGlyph name="Ohungarumlaut" xMin="99" yMin="-23" xMax="1747" yMax="2017">
      <component glyphName=".ttfautohint" x="99" y="0" flags="0x0"/>
      <component glyphName="O" x="0" y="0" flags="0x1204"/>
      <component glyphName="hungarumlaut.cap" x="628" y="0" flags="0x1004"/>
    </TTGlyph>
    <TTGlyph name="Omacron" xMin="99" yMin="-23" xMax="1747" yMax="1929">
      <component glyphName=".ttfautohint" x="99" y="0" flags="0x0"/>
      <component glyphName="O" x="0" y="0" flags="0x1204"/>
      <component glyphName="macron.cap" x="395" y="0" flags="0x1004"/>
    </TTGlyph>
    <TTGlyph name="Omega" xMin="194" yMin="0" xMax="1848" yMax="1584">
      <contour>
        <pt x="941" y="69" on="1"/>
        <pt x="941" y="9" on="0"/>
        <pt x="900" y="0" on="1"/>
        <pt x="194" y="0" on="1"/>
        <pt x="194" y="371" on="1"/>
        <pt x="194" y="408" on="0"/>
        <pt x="240" y="408" on="1"/>
        <pt x="263" y="408" on="0"/>
        <pt x="302" y="390" on="0"/>
        <pt x="304" y="379" on="1"/>
        <pt x="337" y="195" on="1"/>
        <pt x="661" y="195" on="1"/>
        <pt x="523" y="289" on="0"/>
        <pt x="426" y="450" on="1"/>
        <pt x="316" y="635" on="0"/>
        <pt x="316" y="838" on="1"/>
        <pt x="316" y="1194" on="0"/>
        <pt x="544" y="1398" on="1"/>
        <pt x="750" y="1584" on="0"/>
        <pt x="1041" y="1584" on="1"/>
        <pt x="1344" y="1584" on="0"/>
        <pt x="1528" y="1405" on="1"/>
        <pt x="1720" y="1219" on="0"/>
        <pt x="1720" y="895" on="1"/>
        <pt x="1720" y="714" on="0"/>
        <pt x="1612" y="506" on="1"/>
        <pt x="1513" y="316" on="0"/>
        <pt x="1374" y="195" on="1"/>
        <pt x="1700" y="195" on="1"/>
        <pt x="1732" y="379" on="1"/>
        <pt x="1734" y="390" on="0"/>
        <pt x="1775" y="408" on="0"/>
        <pt x="1798" y="408" on="1"/>
        <pt x="1844" y="408" on="0"/>
        <pt x="1844" y="371" on="1"/>
        <pt x="1848" y="0" on="1"/>
        <pt x="1161" y="0" on="1"/>
        <pt x="1122" y="8" on="0"/>
        <pt x="1122" y="73" on="1"/>
        <pt x="1122" y="103" on="0"/>
        <pt x="1146" y="164" on="0"/>
        <pt x="1166" y="177" on="1"/>
        <pt x="1398" y="328" on="0"/>
        <pt x="1468" y="648" on="1"/>
        <pt x="1491" y="753" on="0"/>
        <pt x="1491" y="1031" on="0"/>
        <pt x="1414" y="1250" on="0"/>
        <pt x="1350" y="1318" on="1"/>
        <pt x="1227" y="1447" on="0"/>
        <pt x="1028" y="1447" on="1"/>
        <pt x="682" y="1447" on="0"/>
        <pt x="580" y="1116" on="1"/>
        <pt x="544" y="1001" on="0"/>
        <pt x="544" y="715" on="0"/>
        <pt x="608" y="503" on="0"/>
        <pt x="659" y="419" on="1"/>
        <pt x="758" y="257" on="0"/>
        <pt x="894" y="177" on="1"/>
        <pt x="915" y="164" on="0"/>
        <pt x="941" y="101" on="0"/>
      </contour>
    </TTGlyph>
    <TTGlyph name="Oslash" xMin="103" yMin="-206" xMax="1751" yMax="1752">
      <contour>
        <pt x="1386" y="92" on="0"/>
        <pt x="1084" y="-18" on="0"/>
        <pt x="698" y="-18" on="0"/>
        <pt x="524" y="60" on="1"/>
        <pt x="379" y="-155" on="1"/>
        <pt x="344" y="-206" on="0"/>
        <pt x="302" y="-206" on="1"/>
        <pt x="279" y="-206" on="0"/>
        <pt x="246" y="-178" on="0"/>
        <pt x="246" y="-157" on="1"/>
        <pt x="246" y="-121" on="0"/>
        <pt x="280" y="-72" on="1"/>
        <pt x="412" y="122" on="1"/>
        <pt x="264" y="223" on="0"/>
        <pt x="103" y="543" on="0"/>
        <pt x="103" y="931" on="0"/>
        <pt x="221" y="1242" on="0"/>
        <pt x="332" y="1356" on="1"/>
        <pt x="567" y="1597" on="0"/>
        <pt x="953" y="1597" on="1"/>
        <pt x="1169" y="1597" on="0"/>
        <pt x="1344" y="1498" on="1"/>
        <pt x="1481" y="1699" on="1"/>
        <pt x="1516" y="1752" on="0"/>
        <pt x="1548" y="1752" on="1"/>
        <pt x="1612" y="1752" on="0"/>
        <pt x="1612" y="1703" on="1"/>
        <pt x="1612" y="1667" on="0"/>
        <pt x="1574" y="1614" on="1"/>
        <pt x="1449" y="1428" on="1"/>
        <pt x="1666" y="1258" on="0"/>
        <pt x="1730" y="988" on="1"/>
        <pt x="1751" y="900" on="0"/>
        <pt x="1751" y="807" on="1"/>
        <pt x="1751" y="609" on="0"/>
        <pt x="1616" y="302" on="0"/>
      </contour>
      <contour>
        <pt x="1225" y="1322" on="1"/>
        <pt x="1046" y="1476" on="0"/>
        <pt x="840" y="1476" on="1"/>
        <pt x="620" y="1476" on="0"/>
        <pt x="474" y="1318" on="1"/>
        <pt x="324" y="1157" on="0"/>
        <pt x="324" y="911" on="1"/>
        <pt x="324" y="552" on="0"/>
        <pt x="546" y="321" on="1"/>
      </contour>
      <contour>
        <pt x="644" y="237" on="1"/>
        <pt x="823" y="107" on="0"/>
        <pt x="1030" y="107" on="1"/>
        <pt x="1232" y="107" on="0"/>
        <pt x="1364" y="248" on="1"/>
        <pt x="1505" y="401" on="0"/>
        <pt x="1505" y="667" on="1"/>
        <pt x="1505" y="991" on="0"/>
        <pt x="1314" y="1228" on="1"/>
      </contour>
    </TTGlyph>
    <TTGlyph name="Otilde" xMin="99" yMin="-23" xMax="1747" yMax="1940">
      <component glyphName=".ttfautohint" x="99" y="0" flags="0x0"/>
      <component glyphName="O" x="0" y="0" flags="0x1204"/>
      <component glyphName="tilde.cap" x="424" y="0" flags="0x1004"/>
    </TTGlyph>
    <TTGlyph name="P" xMin="125" yMin="-14" xMax="1436" yMax="1592">
      <contour>
        <pt x="810" y="593" on="1"/>
        <pt x="711" y="593" on="0"/>
        <pt x="575" y="631" on="1"/>
        <pt x="575" y="316" on="1"/>
        <pt x="575" y="188" on="0"/>
        <pt x="608" y="110" on="0"/>
        <pt x="652" y="84" on="0"/>
        <pt x="703" y="84" on="0"/>
        <pt x="727" y="87" on="0"/>
        <pt x="738" y="88" on="1"/>
        <pt x="759" y="92" on="1"/>
        <pt x="770" y="93" on="0"/>
        <pt x="801" y="93" on="0"/>
        <pt x="821" y="62" on="0"/>
        <pt x="821" y="39" on="0"/>
        <pt x="809" y="17" on="0"/>
        <pt x="796" y="8" on="1"/>
        <pt x="766" y="-14" on="0"/>
        <pt x="673" y="-14" on="0"/>
        <pt x="606" y="-10" on="0"/>
        <pt x="576" y="-7" on="1"/>
        <pt x="457" y="5" on="0"/>
        <pt x="388" y="-2" on="1"/>
        <pt x="213" y="-22" on="0"/>
        <pt x="155" y="-1" on="0"/>
        <pt x="144" y="8" on="1"/>
        <pt x="125" y="25" on="0"/>
        <pt x="125" y="62" on="0"/>
        <pt x="145" y="90" on="0"/>
        <pt x="163" y="90" on="1"/>
        <pt x="228" y="84" on="1"/>
        <pt x="296" y="84" on="0"/>
        <pt x="319" y="138" on="1"/>
        <pt x="340" y="187" on="0"/>
        <pt x="340" y="316" on="1"/>
        <pt x="340" y="1233" on="1"/>
        <pt x="340" y="1366" on="0"/>
        <pt x="303" y="1448" on="0"/>
        <pt x="252" y="1478" on="0"/>
        <pt x="212" y="1478" on="1"/>
        <pt x="163" y="1472" on="1"/>
        <pt x="145" y="1472" on="0"/>
        <pt x="125" y="1498" on="0"/>
        <pt x="125" y="1524" on="0"/>
        <pt x="134" y="1545" on="0"/>
        <pt x="144" y="1554" on="1"/>
        <pt x="170" y="1576" on="0"/>
        <pt x="260" y="1576" on="0"/>
        <pt x="317" y="1571" on="0"/>
        <pt x="342" y="1568" on="1"/>
        <pt x="419" y="1561" on="0"/>
        <pt x="517" y="1561" on="0"/>
        <pt x="586" y="1566" on="0"/>
        <pt x="644" y="1572" on="0"/>
        <pt x="696" y="1581" on="0"/>
        <pt x="726" y="1584" on="1"/>
        <pt x="806" y="1592" on="0"/>
        <pt x="1031" y="1592" on="0"/>
        <pt x="1243" y="1522" on="0"/>
        <pt x="1310" y="1460" on="1"/>
        <pt x="1436" y="1342" on="0"/>
        <pt x="1436" y="1129" on="1"/>
        <pt x="1436" y="873" on="0"/>
        <pt x="1250" y="726" on="1"/>
        <pt x="1081" y="593" on="0"/>
      </contour>
      <contour>
        <pt x="775" y="1445" on="1"/>
        <pt x="575" y="1445" on="0"/>
        <pt x="575" y="1331" on="1"/>
        <pt x="575" y="803" on="1"/>
        <pt x="703" y="733" on="0"/>
        <pt x="854" y="733" on="1"/>
        <pt x="1009" y="733" on="0"/>
        <pt x="1096" y="824" on="1"/>
        <pt x="1180" y="911" on="0"/>
        <pt x="1180" y="1059" on="1"/>
        <pt x="1180" y="1352" on="0"/>
        <pt x="940" y="1423" on="1"/>
        <pt x="865" y="1445" on="0"/>
      </contour>
    </TTGlyph>
    <TTGlyph name="Q" xMin="99" yMin="-441" xMax="1899" yMax="1592">
      <contour>
        <pt x="686" y="-163" on="0"/>
        <pt x="661" y="-130" on="0"/>
        <pt x="661" y="-91" on="0"/>
        <pt x="733" y="-33" on="0"/>
        <pt x="805" y="-13" on="1"/>
        <pt x="480" y="19" on="0"/>
        <pt x="290" y="225" on="1"/>
        <pt x="99" y="431" on="0"/>
        <pt x="99" y="749" on="1"/>
        <pt x="99" y="1120" on="0"/>
        <pt x="328" y="1352" on="1"/>
        <pt x="563" y="1592" on="0"/>
        <pt x="950" y="1592" on="1"/>
        <pt x="1291" y="1592" on="0"/>
        <pt x="1521" y="1359" on="1"/>
        <pt x="1666" y="1212" on="0"/>
        <pt x="1720" y="1012" on="1"/>
        <pt x="1747" y="913" on="0"/>
        <pt x="1747" y="639" on="0"/>
        <pt x="1648" y="366" on="0"/>
        <pt x="1562" y="264" on="1"/>
        <pt x="1388" y="59" on="0"/>
        <pt x="1107" y="1" on="1"/>
        <pt x="1295" y="-27" on="0"/>
        <pt x="1440" y="-148" on="1"/>
        <pt x="1521" y="-216" on="1"/>
        <pt x="1605" y="-291" on="0"/>
        <pt x="1715" y="-291" on="1"/>
        <pt x="1762" y="-291" on="0"/>
        <pt x="1789" y="-276" on="1"/>
        <pt x="1827" y="-253" on="1"/>
        <pt x="1839" y="-246" on="0"/>
        <pt x="1862" y="-246" on="0"/>
        <pt x="1878" y="-257" on="0"/>
        <pt x="1884" y="-265" on="1"/>
        <pt x="1899" y="-283" on="0"/>
        <pt x="1899" y="-318" on="0"/>
        <pt x="1863" y="-367" on="0"/>
        <pt x="1830" y="-389" on="1"/>
        <pt x="1752" y="-441" on="0"/>
        <pt x="1568" y="-441" on="0"/>
        <pt x="1429" y="-403" on="0"/>
        <pt x="1364" y="-368" on="1"/>
        <pt x="1247" y="-304" on="0"/>
        <pt x="1109" y="-173" on="1"/>
        <pt x="1047" y="-115" on="0"/>
        <pt x="1019" y="-104" on="1"/>
        <pt x="973" y="-84" on="0"/>
        <pt x="865" y="-84" on="0"/>
        <pt x="792" y="-113" on="0"/>
        <pt x="764" y="-132" on="1"/>
        <pt x="728" y="-158" on="1"/>
        <pt x="719" y="-164" on="0"/>
      </contour>
      <contour>
        <pt x="320" y="908" on="1"/>
        <pt x="320" y="781" on="0"/>
        <pt x="377" y="563" on="0"/>
        <pt x="476" y="389" on="0"/>
        <pt x="612" y="258" on="0"/>
        <pt x="690" y="214" on="1"/>
        <pt x="848" y="127" on="0"/>
        <pt x="1026" y="127" on="1"/>
        <pt x="1230" y="127" on="0"/>
        <pt x="1360" y="258" on="1"/>
        <pt x="1501" y="402" on="0"/>
        <pt x="1501" y="667" on="1"/>
        <pt x="1501" y="1015" on="0"/>
        <pt x="1299" y="1234" on="1"/>
        <pt x="1106" y="1445" on="0"/>
        <pt x="836" y="1445" on="1"/>
        <pt x="614" y="1445" on="0"/>
        <pt x="470" y="1302" on="1"/>
        <pt x="320" y="1154" on="0"/>
      </contour>
    </TTGlyph>
    <TTGlyph name="R" xMin="103" yMin="-16" xMax="1618" yMax="1592">
      <contour>
        <pt x="668" y="83" on="1"/>
        <pt x="732" y="89" on="1"/>
        <pt x="750" y="89" on="0"/>
        <pt x="771" y="61" on="0"/>
        <pt x="771" y="38" on="0"/>
        <pt x="762" y="16" on="0"/>
        <pt x="751" y="7" on="1"/>
        <pt x="724" y="-15" on="0"/>
        <pt x="637" y="-15" on="0"/>
        <pt x="576" y="-10" on="0"/>
        <pt x="522" y="-5" on="0"/>
        <pt x="468" y="0" on="0"/>
        <pt x="405" y="0" on="0"/>
        <pt x="378" y="-2" on="1"/>
        <pt x="325" y="-8" on="1"/>
        <pt x="244" y="-15" on="0"/>
        <pt x="171" y="-15" on="0"/>
        <pt x="134" y="-2" on="0"/>
        <pt x="123" y="7" on="1"/>
        <pt x="103" y="23" on="0"/>
        <pt x="103" y="61" on="0"/>
        <pt x="124" y="89" on="0"/>
        <pt x="142" y="89" on="1"/>
        <pt x="206" y="83" on="1"/>
        <pt x="274" y="83" on="0"/>
        <pt x="298" y="137" on="1"/>
        <pt x="320" y="185" on="0"/>
        <pt x="320" y="315" on="1"/>
        <pt x="320" y="1232" on="1"/>
        <pt x="320" y="1366" on="0"/>
        <pt x="282" y="1447" on="0"/>
        <pt x="232" y="1477" on="0"/>
        <pt x="192" y="1477" on="1"/>
        <pt x="142" y="1471" on="1"/>
        <pt x="124" y="1471" on="0"/>
        <pt x="103" y="1497" on="0"/>
        <pt x="103" y="1523" on="0"/>
        <pt x="112" y="1544" on="0"/>
        <pt x="123" y="1553" on="1"/>
        <pt x="150" y="1575" on="0"/>
        <pt x="238" y="1575" on="0"/>
        <pt x="294" y="1571" on="0"/>
        <pt x="320" y="1568" on="1"/>
        <pt x="379" y="1561" on="0"/>
        <pt x="502" y="1561" on="0"/>
        <pt x="560" y="1566" on="1"/>
        <pt x="851" y="1592" on="0"/>
        <pt x="1058" y="1592" on="0"/>
        <pt x="1265" y="1517" on="0"/>
        <pt x="1330" y="1456" on="1"/>
        <pt x="1455" y="1337" on="0"/>
        <pt x="1455" y="1154" on="1"/>
        <pt x="1455" y="932" on="0"/>
        <pt x="1294" y="807" on="1"/>
        <pt x="1149" y="695" on="0"/>
        <pt x="921" y="695" on="1"/>
        <pt x="905" y="695" on="1"/>
        <pt x="1001" y="640" on="0"/>
        <pt x="1060" y="576" on="1"/>
        <pt x="1161" y="468" on="0"/>
        <pt x="1291" y="247" on="0"/>
        <pt x="1367" y="163" on="0"/>
        <pt x="1400" y="140" on="1"/>
        <pt x="1456" y="102" on="0"/>
        <pt x="1517" y="102" on="1"/>
        <pt x="1574" y="115" on="1"/>
        <pt x="1603" y="113" on="0"/>
        <pt x="1610" y="99" on="1"/>
        <pt x="1618" y="80" on="0"/>
        <pt x="1618" y="44" on="0"/>
        <pt x="1599" y="20" on="0"/>
        <pt x="1580" y="10" on="1"/>
        <pt x="1501" y="-30" on="0"/>
        <pt x="1332" y="-3" on="1"/>
        <pt x="1218" y="15" on="0"/>
        <pt x="1132" y="92" on="1"/>
        <pt x="1044" y="169" on="0"/>
        <pt x="889" y="415" on="0"/>
        <pt x="800" y="569" on="0"/>
        <pt x="750" y="634" on="0"/>
        <pt x="719" y="655" on="1"/>
        <pt x="658" y="696" on="0"/>
        <pt x="554" y="696" on="1"/>
        <pt x="554" y="315" on="1"/>
        <pt x="554" y="185" on="0"/>
        <pt x="588" y="109" on="0"/>
        <pt x="632" y="83" on="0"/>
      </contour>
      <contour>
        <pt x="733" y="798" on="1"/>
        <pt x="842" y="799" on="1"/>
        <pt x="1083" y="799" on="0"/>
        <pt x="1170" y="966" on="1"/>
        <pt x="1199" y="1023" on="0"/>
        <pt x="1199" y="1177" on="0"/>
        <pt x="1153" y="1303" on="0"/>
        <pt x="1102" y="1348" on="1"/>
        <pt x="995" y="1445" on="0"/>
        <pt x="780" y="1445" on="1"/>
        <pt x="645" y="1445" on="0"/>
        <pt x="574" y="1409" on="0"/>
        <pt x="554" y="1364" on="0"/>
        <pt x="554" y="1330" on="1"/>
        <pt x="554" y="828" on="1"/>
        <pt x="622" y="798" on="0"/>
      </contour>
    </TTGlyph>
    <TTGlyph name="Racute" xMin="103" yMin="-15" xMax="1618" yMax="2016">
      <component glyphName=".ttfautohint" x="103" y="0" flags="0x0"/>
      <component glyphName="R" x="0" y="0" flags="0x1204"/>
      <component glyphName="acute.cap" x="509" y="0" flags="0x1004"/>
    </TTGlyph>
    <TTGlyph name="Rcaron" xMin="103" yMin="-15" xMax="1618" yMax="2020">
      <component glyphName=".ttfautohint" x="103" y="0" flags="0x0"/>
      <component glyphName="R" x="0" y="0" flags="0x1204"/>
      <component glyphName="caron.cap" x="389" y="0" flags="0x1004"/>
    </TTGlyph>
    <TTGlyph name="Rcommaaccent" xMin="103" yMin="-525" xMax="1618" yMax="1592">
      <component glyphName=".ttfautohint" x="103" y="0" flags="0x0"/>
      <component glyphName="R" x="0" y="0" flags="0x1204"/>
      <component glyphName="commaaccent" x="547" y="0" flags="0x1004"/>
    </TTGlyph>
    <TTGlyph name="S" xMin="153" yMin="-23" xMax="1307" yMax="1616">
      <contour>
        <pt x="1183" y="1143" on="1"/>
        <pt x="1169" y="1143" on="0"/>
        <pt x="1150" y="1171" on="0"/>
        <pt x="1104" y="1266" on="0"/>
        <pt x="1014" y="1359" on="0"/>
        <pt x="958" y="1389" on="1"/>
        <pt x="850" y="1446" on="0"/>
        <pt x="689" y="1446" on="1"/>
        <pt x="539" y="1446" on="0"/>
        <pt x="459" y="1382" on="1"/>
        <pt x="390" y="1328" on="0"/>
        <pt x="390" y="1244" on="1"/>
        <pt x="390" y="1138" on="0"/>
        <pt x="456" y="1069" on="1"/>
        <pt x="537" y="984" on="0"/>
        <pt x="894" y="891" on="0"/>
        <pt x="1111" y="792" on="0"/>
        <pt x="1178" y="730" on="1"/>
        <pt x="1307" y="613" on="0"/>
        <pt x="1307" y="432" on="1"/>
        <pt x="1307" y="223" on="0"/>
        <pt x="1158" y="100" on="1"/>
        <pt x="1007" y="-23" on="0"/>
        <pt x="743" y="-23" on="1"/>
        <pt x="474" y="-23" on="0"/>
        <pt x="266" y="74" on="1"/>
        <pt x="153" y="127" on="1"/>
        <pt x="153" y="481" on="1"/>
        <pt x="153" y="603" on="0"/>
        <pt x="195" y="603" on="1"/>
        <pt x="224" y="603" on="0"/>
        <pt x="233" y="543" on="1"/>
        <pt x="254" y="353" on="0"/>
        <pt x="412" y="229" on="1"/>
        <pt x="557" y="116" on="0"/>
        <pt x="736" y="116" on="1"/>
        <pt x="1087" y="116" on="0"/>
        <pt x="1087" y="354" on="1"/>
        <pt x="1087" y="463" on="0"/>
        <pt x="1018" y="537" on="1"/>
        <pt x="925" y="636" on="0"/>
        <pt x="705" y="687" on="1"/>
        <pt x="437" y="748" on="0"/>
        <pt x="301" y="878" on="1"/>
        <pt x="177" y="996" on="0"/>
        <pt x="177" y="1159" on="1"/>
        <pt x="177" y="1336" on="0"/>
        <pt x="306" y="1455" on="1"/>
        <pt x="454" y="1592" on="0"/>
        <pt x="717" y="1592" on="1"/>
        <pt x="890" y="1592" on="0"/>
        <pt x="1002" y="1546" on="1"/>
        <pt x="1023" y="1537" on="0"/>
        <pt x="1028" y="1537" on="0"/>
        <pt x="1037" y="1539" on="0"/>
        <pt x="1043" y="1544" on="1"/>
        <pt x="1053" y="1551" on="0"/>
        <pt x="1070" y="1574" on="1"/>
        <pt x="1102" y="1616" on="0"/>
        <pt x="1119" y="1616" on="1"/>
        <pt x="1159" y="1616" on="0"/>
        <pt x="1161" y="1564" on="1"/>
        <pt x="1166" y="1418" on="0"/>
        <pt x="1184" y="1343" on="1"/>
        <pt x="1213" y="1222" on="0"/>
        <pt x="1213" y="1143" on="0"/>
      </contour>
    </TTGlyph>
    <TTGlyph name="Sacute" xMin="153" yMin="-23" xMax="1307" yMax="2016">
      <component glyphName=".ttfautohint" x="153" y="0" flags="0x0"/>
      <component glyphName="S" x="0" y="0" flags="0x1204"/>
      <component glyphName="acute.cap" x="376" y="0" flags="0x1004"/>
    </TTGlyph>
    <TTGlyph name="Scaron" xMin="153" yMin="-23" xMax="1307" yMax="2020">
      <component glyphName=".ttfautohint" x="153" y="0" flags="0x0"/>
      <component glyphName="S" x="0" y="0" flags="0x1204"/>
      <component glyphName="caron.cap" x="256" y="0" flags="0x1004"/>
    </TTGlyph>
    <TTGlyph name="Scedilla" xMin="153" yMin="-521" xMax="1307" yMax="1616">
      <contour>
        <pt x="1183" y="1143" on="1"/>
        <pt x="1169" y="1143" on="0"/>
        <pt x="1150" y="1171" on="0"/>
        <pt x="1104" y="1266" on="0"/>
        <pt x="1014" y="1359" on="0"/>
        <pt x="958" y="1389" on="1"/>
        <pt x="850" y="1446" on="0"/>
        <pt x="689" y="1446" on="1"/>
        <pt x="539" y="1446" on="0"/>
        <pt x="459" y="1382" on="1"/>
        <pt x="390" y="1328" on="0"/>
        <pt x="390" y="1244" on="1"/>
        <pt x="390" y="1138" on="0"/>
        <pt x="456" y="1069" on="1"/>
        <pt x="537" y="984" on="0"/>
        <pt x="894" y="891" on="0"/>
        <pt x="1111" y="792" on="0"/>
        <pt x="1178" y="730" on="1"/>
        <pt x="1307" y="613" on="0"/>
        <pt x="1307" y="432" on="1"/>
        <pt x="1307" y="225" on="0"/>
        <pt x="1160" y="102" on="1"/>
        <pt x="1011" y="-21" on="0"/>
        <pt x="752" y="-23" on="1"/>
        <pt x="720" y="-152" on="1"/>
        <pt x="736" y="-152" on="1"/>
        <pt x="891" y="-152" on="0"/>
        <pt x="956" y="-248" on="1"/>
        <pt x="976" y="-277" on="0"/>
        <pt x="976" y="-352" on="0"/>
        <pt x="930" y="-427" on="0"/>
        <pt x="892" y="-456" on="1"/>
        <pt x="805" y="-521" on="0"/>
        <pt x="704" y="-521" on="1"/>
        <pt x="570" y="-521" on="0"/>
        <pt x="498" y="-462" on="1"/>
        <pt x="472" y="-440" on="0"/>
        <pt x="472" y="-389" on="0"/>
        <pt x="502" y="-352" on="0"/>
        <pt x="526" y="-352" on="1"/>
        <pt x="569" y="-352" on="0"/>
        <pt x="606" y="-388" on="1"/>
        <pt x="663" y="-443" on="0"/>
        <pt x="750" y="-443" on="1"/>
        <pt x="786" y="-443" on="0"/>
        <pt x="803" y="-420" on="1"/>
        <pt x="831" y="-381" on="0"/>
        <pt x="831" y="-291" on="0"/>
        <pt x="764" y="-232" on="0"/>
        <pt x="719" y="-232" on="1"/>
        <pt x="648" y="-232" on="0"/>
        <pt x="599" y="-251" on="1"/>
        <pt x="647" y="-20" on="1"/>
        <pt x="489" y="-9" on="0"/>
        <pt x="303" y="56" on="0"/>
        <pt x="252" y="80" on="1"/>
        <pt x="153" y="127" on="1"/>
        <pt x="153" y="481" on="1"/>
        <pt x="153" y="603" on="0"/>
        <pt x="195" y="603" on="1"/>
        <pt x="224" y="603" on="0"/>
        <pt x="233" y="543" on="1"/>
        <pt x="254" y="353" on="0"/>
        <pt x="412" y="229" on="1"/>
        <pt x="557" y="116" on="0"/>
        <pt x="736" y="116" on="1"/>
        <pt x="1087" y="116" on="0"/>
        <pt x="1087" y="354" on="1"/>
        <pt x="1087" y="463" on="0"/>
        <pt x="1018" y="537" on="1"/>
        <pt x="925" y="636" on="0"/>
        <pt x="705" y="687" on="1"/>
        <pt x="437" y="748" on="0"/>
        <pt x="301" y="878" on="1"/>
        <pt x="177" y="996" on="0"/>
        <pt x="177" y="1159" on="1"/>
        <pt x="177" y="1336" on="0"/>
        <pt x="306" y="1455" on="1"/>
        <pt x="454" y="1592" on="0"/>
        <pt x="717" y="1592" on="1"/>
        <pt x="890" y="1592" on="0"/>
        <pt x="1002" y="1546" on="1"/>
        <pt x="1023" y="1537" on="0"/>
        <pt x="1028" y="1537" on="0"/>
        <pt x="1037" y="1539" on="0"/>
        <pt x="1043" y="1544" on="1"/>
        <pt x="1053" y="1551" on="0"/>
        <pt x="1070" y="1574" on="1"/>
        <pt x="1102" y="1616" on="0"/>
        <pt x="1119" y="1616" on="1"/>
        <pt x="1159" y="1616" on="0"/>
        <pt x="1161" y="1564" on="1"/>
        <pt x="1166" y="1418" on="0"/>
        <pt x="1184" y="1343" on="1"/>
        <pt x="1213" y="1222" on="0"/>
        <pt x="1213" y="1143" on="0"/>
      </contour>
    </TTGlyph>
    <TTGlyph name="Scircumflex" xMin="153" yMin="-23" xMax="1307" yMax="2020">
      <component glyphName=".ttfautohint" x="153" y="0" flags="0x0"/>
      <component glyphName="S" x="0" y="0" flags="0x1204"/>
      <component glyphName="circumflex.cap" x="256" y="0" flags="0x1004"/>
    </TTGlyph>
    <TTGlyph name="Scommaaccent" xMin="153" yMin="-520" xMax="1307" yMax="1616">
      <component glyphName=".ttfautohint" x="153" y="0" flags="0x0"/>
      <component glyphName="S" x="0" y="0" flags="0x1204"/>
      <component glyphName="commaaccent" x="462" y="5" flags="0x1004"/>
    </TTGlyph>
    <TTGlyph name="T" xMin="49" yMin="-16" xMax="1535" yMax="1625">
      <contour>
        <pt x="73" y="1171" on="1"/>
        <pt x="49" y="1171" on="0"/>
        <pt x="49" y="1241" on="0"/>
        <pt x="58" y="1299" on="0"/>
        <pt x="72" y="1351" on="0"/>
        <pt x="81" y="1376" on="1"/>
        <pt x="100" y="1428" on="1"/>
        <pt x="124" y="1496" on="0"/>
        <pt x="142" y="1604" on="0"/>
        <pt x="162" y="1625" on="0"/>
        <pt x="174" y="1625" on="1"/>
        <pt x="194" y="1625" on="0"/>
        <pt x="226" y="1583" on="1"/>
        <pt x="242" y="1564" on="0"/>
        <pt x="305" y="1561" on="0"/>
        <pt x="334" y="1561" on="1"/>
        <pt x="1346" y="1561" on="1"/>
        <pt x="1409" y="1561" on="0"/>
        <pt x="1473" y="1605" on="0"/>
        <pt x="1497" y="1625" on="0"/>
        <pt x="1513" y="1625" on="0"/>
        <pt x="1526" y="1623" on="0"/>
        <pt x="1532" y="1619" on="1"/>
        <pt x="1549" y="1609" on="0"/>
        <pt x="1520" y="1540" on="0"/>
        <pt x="1484" y="1433" on="0"/>
        <pt x="1469" y="1382" on="1"/>
        <pt x="1442" y="1289" on="0"/>
        <pt x="1431" y="1238" on="1"/>
        <pt x="1417" y="1168" on="0"/>
        <pt x="1392" y="1168" on="1"/>
        <pt x="1366" y="1168" on="0"/>
        <pt x="1355" y="1231" on="0"/>
        <pt x="1341" y="1280" on="0"/>
        <pt x="1330" y="1300" on="1"/>
        <pt x="1262" y="1420" on="0"/>
        <pt x="908" y="1420" on="1"/>
        <pt x="908" y="336" on="1"/>
        <pt x="908" y="204" on="0"/>
        <pt x="941" y="116" on="0"/>
        <pt x="985" y="83" on="0"/>
        <pt x="1036" y="83" on="0"/>
        <pt x="1048" y="84" on="1"/>
        <pt x="1077" y="88" on="0"/>
        <pt x="1103" y="92" on="0"/>
        <pt x="1134" y="92" on="0"/>
        <pt x="1154" y="61" on="0"/>
        <pt x="1154" y="38" on="0"/>
        <pt x="1142" y="16" on="0"/>
        <pt x="1129" y="7" on="1"/>
        <pt x="1097" y="-15" on="0"/>
        <pt x="1006" y="-15" on="0"/>
        <pt x="939" y="-10" on="0"/>
        <pt x="910" y="-8" on="1"/>
        <pt x="852" y="-2" on="1"/>
        <pt x="824" y="0" on="0"/>
        <pt x="791" y="0" on="1"/>
        <pt x="758" y="0" on="0"/>
        <pt x="730" y="-2" on="1"/>
        <pt x="672" y="-8" on="1"/>
        <pt x="585" y="-15" on="0"/>
        <pt x="504" y="-15" on="0"/>
        <pt x="465" y="-2" on="0"/>
        <pt x="452" y="7" on="1"/>
        <pt x="427" y="25" on="0"/>
        <pt x="427" y="61" on="0"/>
        <pt x="447" y="92" on="0"/>
        <pt x="479" y="92" on="0"/>
        <pt x="500" y="89" on="0"/>
        <pt x="510" y="88" on="1"/>
        <pt x="542" y="83" on="0"/>
        <pt x="596" y="83" on="0"/>
        <pt x="640" y="115" on="0"/>
        <pt x="652" y="147" on="1"/>
        <pt x="673" y="203" on="0"/>
        <pt x="673" y="336" on="1"/>
        <pt x="673" y="1421" on="1"/>
        <pt x="475" y="1421" on="0"/>
        <pt x="388" y="1393" on="1"/>
        <pt x="375" y="1389" on="0"/>
        <pt x="301" y="1371" on="0"/>
        <pt x="207" y="1300" on="0"/>
        <pt x="135" y="1227" on="0"/>
        <pt x="86" y="1171" on="0"/>
      </contour>
    </TTGlyph>
    <TTGlyph name="Tbar" xMin="49" yMin="-16" xMax="1535" yMax="1625">
      <contour>
        <pt x="1200" y="917" on="1"/>
        <pt x="1200" y="867" on="0"/>
        <pt x="1101" y="867" on="1"/>
        <pt x="908" y="867" on="1"/>
        <pt x="908" y="336" on="1"/>
        <pt x="908" y="204" on="0"/>
        <pt x="941" y="116" on="0"/>
        <pt x="985" y="83" on="0"/>
        <pt x="1036" y="83" on="0"/>
        <pt x="1048" y="84" on="1"/>
        <pt x="1077" y="88" on="0"/>
        <pt x="1103" y="92" on="0"/>
        <pt x="1134" y="92" on="0"/>
        <pt x="1154" y="61" on="0"/>
        <pt x="1154" y="38" on="0"/>
        <pt x="1142" y="16" on="0"/>
        <pt x="1129" y="7" on="1"/>
        <pt x="1097" y="-15" on="0"/>
        <pt x="1006" y="-15" on="0"/>
        <pt x="939" y="-10" on="0"/>
        <pt x="910" y="-8" on="1"/>
        <pt x="852" y="-2" on="1"/>
        <pt x="824" y="0" on="0"/>
        <pt x="791" y="0" on="1"/>
        <pt x="758" y="0" on="0"/>
        <pt x="730" y="-2" on="1"/>
        <pt x="672" y="-8" on="1"/>
        <pt x="585" y="-15" on="0"/>
        <pt x="504" y="-15" on="0"/>
        <pt x="465" y="-2" on="0"/>
        <pt x="452" y="7" on="1"/>
        <pt x="427" y="25" on="0"/>
        <pt x="427" y="61" on="0"/>
        <pt x="447" y="92" on="0"/>
        <pt x="479" y="92" on="0"/>
        <pt x="500" y="89" on="0"/>
        <pt x="510" y="88" on="1"/>
        <pt x="542" y="83" on="0"/>
        <pt x="596" y="83" on="0"/>
        <pt x="640" y="115" on="0"/>
        <pt x="652" y="147" on="1"/>
        <pt x="673" y="203" on="0"/>
        <pt x="673" y="336" on="1"/>
        <pt x="673" y="867" on="1"/>
        <pt x="392" y="867" on="1"/>
        <pt x="296" y="867" on="0"/>
        <pt x="296" y="924" on="1"/>
        <pt x="296" y="974" on="0"/>
        <pt x="395" y="974" on="1"/>
        <pt x="673" y="974" on="1"/>
        <pt x="673" y="1421" on="1"/>
        <pt x="475" y="1421" on="0"/>
        <pt x="388" y="1393" on="1"/>
        <pt x="375" y="1389" on="0"/>
        <pt x="301" y="1371" on="0"/>
        <pt x="207" y="1300" on="0"/>
        <pt x="135" y="1227" on="0"/>
        <pt x="86" y="1171" on="0"/>
        <pt x="73" y="1171" on="1"/>
        <pt x="49" y="1171" on="0"/>
        <pt x="49" y="1241" on="0"/>
        <pt x="58" y="1299" on="0"/>
        <pt x="72" y="1351" on="0"/>
        <pt x="81" y="1376" on="1"/>
        <pt x="100" y="1428" on="1"/>
        <pt x="124" y="1496" on="0"/>
        <pt x="142" y="1604" on="0"/>
        <pt x="162" y="1625" on="0"/>
        <pt x="174" y="1625" on="1"/>
        <pt x="194" y="1625" on="0"/>
        <pt x="226" y="1583" on="1"/>
        <pt x="242" y="1564" on="0"/>
        <pt x="305" y="1561" on="0"/>
        <pt x="334" y="1561" on="1"/>
        <pt x="1346" y="1561" on="1"/>
        <pt x="1409" y="1561" on="0"/>
        <pt x="1473" y="1605" on="0"/>
        <pt x="1497" y="1625" on="0"/>
        <pt x="1513" y="1625" on="0"/>
        <pt x="1526" y="1623" on="0"/>
        <pt x="1532" y="1619" on="1"/>
        <pt x="1549" y="1609" on="0"/>
        <pt x="1520" y="1540" on="0"/>
        <pt x="1484" y="1433" on="0"/>
        <pt x="1469" y="1382" on="1"/>
        <pt x="1442" y="1289" on="0"/>
        <pt x="1431" y="1238" on="1"/>
        <pt x="1417" y="1168" on="0"/>
        <pt x="1392" y="1168" on="1"/>
        <pt x="1366" y="1168" on="0"/>
        <pt x="1355" y="1231" on="0"/>
        <pt x="1341" y="1280" on="0"/>
        <pt x="1330" y="1300" on="1"/>
        <pt x="1262" y="1420" on="0"/>
        <pt x="908" y="1420" on="1"/>
        <pt x="908" y="974" on="1"/>
        <pt x="1120" y="974" on="1"/>
        <pt x="1181" y="974" on="0"/>
        <pt x="1194" y="948" on="1"/>
        <pt x="1200" y="937" on="0"/>
      </contour>
    </TTGlyph>
    <TTGlyph name="Tcaron" xMin="49" yMin="-15" xMax="1535" yMax="2020">
      <component glyphName=".ttfautohint" x="49" y="0" flags="0x0"/>
      <component glyphName="T" x="0" y="0" flags="0x1204"/>
      <component glyphName="caron.cap" x="331" y="0" flags="0x1004"/>
    </TTGlyph>
    <TTGlyph name="Tcommaaccent" xMin="49" yMin="-520" xMax="1535" yMax="1625">
      <component glyphName=".ttfautohint" x="49" y="0" flags="0x0"/>
      <component glyphName="T" x="0" y="0" flags="0x1204"/>
      <component glyphName="commaaccent" x="537" y="5" flags="0x1004"/>
    </TTGlyph>
    <TTGlyph name="Thorn" xMin="125" yMin="-15" xMax="1467" yMax="1576">
      <contour>
        <pt x="801" y="329" on="1"/>
        <pt x="692" y="329" on="0"/>
        <pt x="576" y="358" on="1"/>
        <pt x="576" y="217" on="0"/>
        <pt x="605" y="122" on="0"/>
        <pt x="650" y="83" on="0"/>
        <pt x="704" y="83" on="0"/>
        <pt x="728" y="86" on="0"/>
        <pt x="749" y="89" on="0"/>
        <pt x="770" y="92" on="0"/>
        <pt x="802" y="92" on="0"/>
        <pt x="822" y="61" on="0"/>
        <pt x="822" y="38" on="0"/>
        <pt x="810" y="16" on="0"/>
        <pt x="797" y="7" on="1"/>
        <pt x="765" y="-15" on="0"/>
        <pt x="674" y="-15" on="0"/>
        <pt x="606" y="-10" on="0"/>
        <pt x="576" y="-8" on="1"/>
        <pt x="519" y="-2" on="1"/>
        <pt x="491" y="0" on="0"/>
        <pt x="459" y="0" on="1"/>
        <pt x="427" y="0" on="0"/>
        <pt x="401" y="-2" on="1"/>
        <pt x="348" y="-8" on="1"/>
        <pt x="267" y="-15" on="0"/>
        <pt x="192" y="-15" on="0"/>
        <pt x="156" y="-2" on="0"/>
        <pt x="145" y="7" on="1"/>
        <pt x="125" y="23" on="0"/>
        <pt x="125" y="42" on="1"/>
        <pt x="125" y="89" on="0"/>
        <pt x="164" y="89" on="1"/>
        <pt x="228" y="83" on="1"/>
        <pt x="295" y="83" on="0"/>
        <pt x="319" y="144" on="1"/>
        <pt x="340" y="198" on="0"/>
        <pt x="340" y="330" on="1"/>
        <pt x="340" y="1228" on="1"/>
        <pt x="340" y="1360" on="0"/>
        <pt x="307" y="1447" on="0"/>
        <pt x="263" y="1478" on="0"/>
        <pt x="228" y="1478" on="1"/>
        <pt x="164" y="1472" on="1"/>
        <pt x="145" y="1472" on="0"/>
        <pt x="125" y="1499" on="0"/>
        <pt x="125" y="1523" on="0"/>
        <pt x="134" y="1544" on="0"/>
        <pt x="145" y="1554" on="1"/>
        <pt x="171" y="1576" on="0"/>
        <pt x="259" y="1576" on="0"/>
        <pt x="321" y="1571" on="0"/>
        <pt x="348" y="1568" on="1"/>
        <pt x="401" y="1564" on="1"/>
        <pt x="427" y="1561" on="0"/>
        <pt x="459" y="1561" on="1"/>
        <pt x="491" y="1561" on="0"/>
        <pt x="519" y="1564" on="1"/>
        <pt x="576" y="1568" on="1"/>
        <pt x="665" y="1576" on="0"/>
        <pt x="745" y="1576" on="0"/>
        <pt x="784" y="1563" on="0"/>
        <pt x="797" y="1554" on="1"/>
        <pt x="822" y="1535" on="0"/>
        <pt x="822" y="1499" on="0"/>
        <pt x="802" y="1469" on="0"/>
        <pt x="770" y="1469" on="0"/>
        <pt x="749" y="1472" on="0"/>
        <pt x="738" y="1474" on="1"/>
        <pt x="707" y="1478" on="0"/>
        <pt x="652" y="1478" on="0"/>
        <pt x="608" y="1446" on="0"/>
        <pt x="596" y="1414" on="1"/>
        <pt x="576" y="1362" on="0"/>
        <pt x="576" y="1228" on="1"/>
        <pt x="576" y="1223" on="1"/>
        <pt x="730" y="1260" on="0"/>
        <pt x="996" y="1260" on="0"/>
        <pt x="1226" y="1197" on="0"/>
        <pt x="1305" y="1140" on="1"/>
        <pt x="1467" y="1022" on="0"/>
        <pt x="1467" y="820" on="1"/>
        <pt x="1467" y="578" on="0"/>
        <pt x="1266" y="445" on="1"/>
        <pt x="1091" y="329" on="0"/>
      </contour>
      <contour>
        <pt x="576" y="520" on="1"/>
        <pt x="692" y="460" on="0"/>
        <pt x="854" y="460" on="1"/>
        <pt x="1108" y="460" on="0"/>
        <pt x="1185" y="619" on="1"/>
        <pt x="1211" y="673" on="0"/>
        <pt x="1211" y="838" on="0"/>
        <pt x="1145" y="982" on="0"/>
        <pt x="1087" y="1031" on="1"/>
        <pt x="970" y="1130" on="0"/>
        <pt x="776" y="1130" on="1"/>
        <pt x="693" y="1130" on="0"/>
        <pt x="651" y="1102" on="1"/>
        <pt x="576" y="1053" on="0"/>
        <pt x="576" y="989" on="1"/>
      </contour>
    </TTGlyph>
    <TTGlyph name="U" xMin="56" yMin="-23" xMax="1789" yMax="1576">
      <contour>
        <pt x="1411" y="-6" on="1"/>
        <pt x="1348" y="-6" on="0"/>
        <pt x="1339" y="115" on="1"/>
        <pt x="1138" y="-23" on="0"/>
        <pt x="908" y="-23" on="1"/>
        <pt x="601" y="-23" on="0"/>
        <pt x="436" y="131" on="1"/>
        <pt x="272" y="283" on="0"/>
        <pt x="272" y="557" on="1"/>
        <pt x="272" y="1245" on="1"/>
        <pt x="272" y="1374" on="0"/>
        <pt x="238" y="1452" on="0"/>
        <pt x="194" y="1478" on="0"/>
        <pt x="159" y="1478" on="1"/>
        <pt x="94" y="1472" on="1"/>
        <pt x="76" y="1472" on="0"/>
        <pt x="56" y="1499" on="0"/>
        <pt x="56" y="1523" on="0"/>
        <pt x="65" y="1544" on="0"/>
        <pt x="76" y="1554" on="1"/>
        <pt x="100" y="1576" on="0"/>
        <pt x="189" y="1576" on="0"/>
        <pt x="251" y="1571" on="0"/>
        <pt x="278" y="1568" on="1"/>
        <pt x="332" y="1564" on="1"/>
        <pt x="358" y="1561" on="0"/>
        <pt x="389" y="1561" on="1"/>
        <pt x="420" y="1561" on="0"/>
        <pt x="446" y="1564" on="1"/>
        <pt x="499" y="1568" on="1"/>
        <pt x="580" y="1576" on="0"/>
        <pt x="656" y="1576" on="0"/>
        <pt x="692" y="1563" on="0"/>
        <pt x="702" y="1554" on="1"/>
        <pt x="722" y="1536" on="0"/>
        <pt x="722" y="1499" on="0"/>
        <pt x="702" y="1472" on="0"/>
        <pt x="685" y="1472" on="1"/>
        <pt x="619" y="1478" on="1"/>
        <pt x="550" y="1478" on="0"/>
        <pt x="527" y="1424" on="1"/>
        <pt x="507" y="1377" on="0"/>
        <pt x="507" y="1245" on="1"/>
        <pt x="507" y="538" on="1"/>
        <pt x="507" y="337" on="0"/>
        <pt x="627" y="228" on="1"/>
        <pt x="740" y="126" on="0"/>
        <pt x="1161" y="126" on="0"/>
        <pt x="1338" y="277" on="1"/>
        <pt x="1338" y="1245" on="1"/>
        <pt x="1338" y="1375" on="0"/>
        <pt x="1305" y="1452" on="0"/>
        <pt x="1261" y="1478" on="0"/>
        <pt x="1226" y="1478" on="1"/>
        <pt x="1161" y="1472" on="1"/>
        <pt x="1143" y="1472" on="0"/>
        <pt x="1123" y="1499" on="0"/>
        <pt x="1123" y="1523" on="0"/>
        <pt x="1132" y="1544" on="0"/>
        <pt x="1143" y="1554" on="1"/>
        <pt x="1169" y="1576" on="0"/>
        <pt x="1257" y="1576" on="0"/>
        <pt x="1319" y="1571" on="0"/>
        <pt x="1346" y="1568" on="1"/>
        <pt x="1399" y="1564" on="1"/>
        <pt x="1425" y="1561" on="0"/>
        <pt x="1488" y="1561" on="0"/>
        <pt x="1514" y="1564" on="1"/>
        <pt x="1567" y="1568" on="1"/>
        <pt x="1648" y="1576" on="0"/>
        <pt x="1723" y="1576" on="0"/>
        <pt x="1759" y="1563" on="0"/>
        <pt x="1770" y="1554" on="1"/>
        <pt x="1789" y="1536" on="0"/>
        <pt x="1789" y="1517" on="1"/>
        <pt x="1789" y="1472" on="0"/>
        <pt x="1752" y="1472" on="1"/>
        <pt x="1686" y="1478" on="1"/>
        <pt x="1590" y="1478" on="0"/>
        <pt x="1578" y="1346" on="1"/>
        <pt x="1574" y="1303" on="0"/>
        <pt x="1574" y="1245" on="1"/>
        <pt x="1577" y="355" on="1"/>
        <pt x="1577" y="182" on="0"/>
        <pt x="1603" y="104" on="0"/>
        <pt x="1644" y="79" on="0"/>
        <pt x="1701" y="79" on="0"/>
        <pt x="1730" y="91" on="0"/>
        <pt x="1755" y="91" on="0"/>
        <pt x="1776" y="68" on="0"/>
        <pt x="1776" y="46" on="0"/>
        <pt x="1767" y="23" on="0"/>
        <pt x="1756" y="14" on="1"/>
        <pt x="1728" y="-9" on="0"/>
        <pt x="1659" y="-9" on="0"/>
        <pt x="1638" y="-8" on="1"/>
        <pt x="1594" y="-4" on="1"/>
        <pt x="1572" y="-3" on="0"/>
        <pt x="1533" y="0" on="0"/>
        <pt x="1521" y="0" on="1"/>
      </contour>
    </TTGlyph>
    <TTGlyph name="Uacute" xMin="56" yMin="-23" xMax="1789" yMax="2016">
      <component glyphName=".ttfautohint" x="56" y="0" flags="0x0"/>
      <component glyphName="U" x="0" y="0" flags="0x1204"/>
      <component glyphName="acute.cap" x="595" y="0" flags="0x1004"/>
    </TTGlyph>
    <TTGlyph name="Ubreve" xMin="56" yMin="-23" xMax="1789" yMax="2001">
      <component glyphName=".ttfautohint" x="56" y="0" flags="0x0"/>
      <component glyphName="U" x="0" y="0" flags="0x1204"/>
      <component glyphName="breve.cap" x="407" y="0" flags="0x1004"/>
    </TTGlyph>
    <TTGlyph name="Ucircumflex" xMin="56" yMin="-23" xMax="1789" yMax="2020">
      <component glyphName=".ttfautohint" x="56" y="0" flags="0x0"/>
      <component glyphName="U" x="0" y="0" flags="0x1204"/>
      <component glyphName="circumflex.cap" x="475" y="0" flags="0x1004"/>
    </TTGlyph>
    <TTGlyph name="Udieresis" xMin="56" yMin="-23" xMax="1789" yMax="1972">
      <component glyphName=".ttfautohint" x="56" y="0" flags="0x0"/>
      <component glyphName="U" x="0" y="0" flags="0x1204"/>
      <component glyphName="dieresis.cap" x="382" y="0" flags="0x1004"/>
    </TTGlyph>
    <TTGlyph name="Ugrave" xMin="56" yMin="-23" xMax="1789" yMax="2016">
      <component glyphName=".ttfautohint" x="56" y="0" flags="0x0"/>
      <component glyphName="U" x="0" y="0" flags="0x1204"/>
      <component glyphName="grave.cap" x="595" y="0" flags="0x1004"/>
    </TTGlyph>
    <TTGlyph name="Uhungarumlaut" xMin="56" yMin="-23" xMax="1789" yMax="2017">
      <component glyphName=".ttfautohint" x="56" y="0" flags="0x0"/>
      <component glyphName="U" x="0" y="0" flags="0x1204"/>
      <component glyphName="hungarumlaut.cap" x="642" y="0" flags="0x1004"/>
    </TTGlyph>
    <TTGlyph name="Umacron" xMin="56" yMin="-23" xMax="1789" yMax="1929">
      <component glyphName=".ttfautohint" x="56" y="0" flags="0x0"/>
      <component glyphName="U" x="0" y="0" flags="0x1204"/>
      <component glyphName="macron.cap" x="409" y="0" flags="0x1004"/>
    </TTGlyph>
    <TTGlyph name="Uogonek" xMin="56" yMin="-465" xMax="1789" yMax="1576">
      <contour>
        <pt x="1393" y="-3" on="1"/>
        <pt x="1346" y="10" on="0"/>
        <pt x="1339" y="115" on="1"/>
        <pt x="1138" y="-23" on="0"/>
        <pt x="908" y="-23" on="1"/>
        <pt x="601" y="-23" on="0"/>
        <pt x="436" y="131" on="1"/>
        <pt x="272" y="283" on="0"/>
        <pt x="272" y="557" on="1"/>
        <pt x="272" y="1245" on="1"/>
        <pt x="272" y="1374" on="0"/>
        <pt x="238" y="1452" on="0"/>
        <pt x="194" y="1478" on="0"/>
        <pt x="159" y="1478" on="1"/>
        <pt x="94" y="1472" on="1"/>
        <pt x="76" y="1472" on="0"/>
        <pt x="56" y="1499" on="0"/>
        <pt x="56" y="1523" on="0"/>
        <pt x="65" y="1544" on="0"/>
        <pt x="76" y="1554" on="1"/>
        <pt x="100" y="1576" on="0"/>
        <pt x="189" y="1576" on="0"/>
        <pt x="251" y="1571" on="0"/>
        <pt x="278" y="1568" on="1"/>
        <pt x="332" y="1564" on="1"/>
        <pt x="358" y="1561" on="0"/>
        <pt x="389" y="1561" on="1"/>
        <pt x="420" y="1561" on="0"/>
        <pt x="446" y="1564" on="1"/>
        <pt x="499" y="1568" on="1"/>
        <pt x="580" y="1576" on="0"/>
        <pt x="656" y="1576" on="0"/>
        <pt x="692" y="1563" on="0"/>
        <pt x="702" y="1554" on="1"/>
        <pt x="722" y="1536" on="0"/>
        <pt x="722" y="1499" on="0"/>
        <pt x="702" y="1472" on="0"/>
        <pt x="685" y="1472" on="1"/>
        <pt x="619" y="1478" on="1"/>
        <pt x="550" y="1478" on="0"/>
        <pt x="527" y="1424" on="1"/>
        <pt x="507" y="1377" on="0"/>
        <pt x="507" y="1245" on="1"/>
        <pt x="507" y="538" on="1"/>
        <pt x="507" y="337" on="0"/>
        <pt x="627" y="228" on="1"/>
        <pt x="740" y="126" on="0"/>
        <pt x="1161" y="126" on="0"/>
        <pt x="1338" y="277" on="1"/>
        <pt x="1338" y="1245" on="1"/>
        <pt x="1338" y="1375" on="0"/>
        <pt x="1305" y="1452" on="0"/>
        <pt x="1261" y="1478" on="0"/>
        <pt x="1226" y="1478" on="1"/>
        <pt x="1161" y="1472" on="1"/>
        <pt x="1143" y="1472" on="0"/>
        <pt x="1123" y="1499" on="0"/>
        <pt x="1123" y="1523" on="0"/>
        <pt x="1132" y="1544" on="0"/>
        <pt x="1143" y="1554" on="1"/>
        <pt x="1169" y="1576" on="0"/>
        <pt x="1257" y="1576" on="0"/>
        <pt x="1319" y="1571" on="0"/>
        <pt x="1346" y="1568" on="1"/>
        <pt x="1399" y="1564" on="1"/>
        <pt x="1425" y="1561" on="0"/>
        <pt x="1488" y="1561" on="0"/>
        <pt x="1514" y="1564" on="1"/>
        <pt x="1567" y="1568" on="1"/>
        <pt x="1648" y="1576" on="0"/>
        <pt x="1723" y="1576" on="0"/>
        <pt x="1759" y="1563" on="0"/>
        <pt x="1770" y="1554" on="1"/>
        <pt x="1789" y="1536" on="0"/>
        <pt x="1789" y="1517" on="1"/>
        <pt x="1789" y="1472" on="0"/>
        <pt x="1752" y="1472" on="1"/>
        <pt x="1686" y="1478" on="1"/>
        <pt x="1590" y="1478" on="0"/>
        <pt x="1578" y="1346" on="1"/>
        <pt x="1574" y="1303" on="0"/>
        <pt x="1574" y="1245" on="1"/>
        <pt x="1577" y="355" on="1"/>
        <pt x="1577" y="182" on="0"/>
        <pt x="1603" y="104" on="0"/>
        <pt x="1644" y="79" on="0"/>
        <pt x="1701" y="79" on="0"/>
        <pt x="1730" y="91" on="0"/>
        <pt x="1755" y="91" on="0"/>
        <pt x="1776" y="68" on="0"/>
        <pt x="1776" y="46" on="0"/>
        <pt x="1767" y="23" on="0"/>
        <pt x="1756" y="14" on="1"/>
        <pt x="1728" y="-9" on="0"/>
        <pt x="1661" y="-9" on="0"/>
        <pt x="1620" y="-6" on="0"/>
        <pt x="1600" y="-4" on="1"/>
        <pt x="1560" y="-2" on="1"/>
        <pt x="1541" y="0" on="0"/>
        <pt x="1528" y="0" on="1"/>
        <pt x="1475" y="-92" on="0"/>
        <pt x="1475" y="-192" on="1"/>
        <pt x="1475" y="-302" on="0"/>
        <pt x="1608" y="-365" on="1"/>
        <pt x="1655" y="-387" on="0"/>
        <pt x="1721" y="-399" on="1"/>
        <pt x="1762" y="-410" on="0"/>
        <pt x="1762" y="-435" on="1"/>
        <pt x="1762" y="-446" on="0"/>
        <pt x="1743" y="-463" on="0"/>
        <pt x="1728" y="-463" on="1"/>
        <pt x="1507" y="-465" on="1"/>
        <pt x="1371" y="-465" on="0"/>
        <pt x="1326" y="-367" on="1"/>
        <pt x="1310" y="-332" on="0"/>
        <pt x="1310" y="-282" on="1"/>
        <pt x="1310" y="-129" on="0"/>
      </contour>
    </TTGlyph>
    <TTGlyph name="Uring" xMin="56" yMin="-23" xMax="1789" yMax="2010">
      <component glyphName=".ttfautohint" x="56" y="0" flags="0x0"/>
      <component glyphName="U" x="0" y="0" flags="0x1204"/>
      <component glyphName="ring.cap" x="588" y="0" flags="0x1004"/>
    </TTGlyph>
    <TTGlyph name="Utilde" xMin="56" yMin="-23" xMax="1789" yMax="1940">
      <component glyphName=".ttfautohint" x="56" y="0" flags="0x0"/>
      <component glyphName="U" x="0" y="0" flags="0x1204"/>
      <component glyphName="tilde.cap" x="438" y="0" flags="0x1004"/>
    </TTGlyph>
    <TTGlyph name="V" xMin="-30" yMin="-38" xMax="1766" yMax="1575">
      <contour>
        <pt x="1728" y="1471" on="1"/>
        <pt x="1671" y="1478" on="1"/>
        <pt x="1621" y="1478" on="0"/>
        <pt x="1591" y="1442" on="1"/>
        <pt x="1536" y="1374" on="0"/>
        <pt x="1457" y="1204" on="1"/>
        <pt x="1043" y="274" on="1"/>
        <pt x="970" y="103" on="0"/>
        <pt x="970" y="49" on="1"/>
        <pt x="970" y="24" on="0"/>
        <pt x="986" y="12" on="1"/>
        <pt x="1010" y="-4" on="1"/>
        <pt x="1017" y="-10" on="0"/>
        <pt x="1017" y="-19" on="1"/>
        <pt x="1017" y="-38" on="0"/>
        <pt x="971" y="-38" on="0"/>
        <pt x="904" y="-14" on="0"/>
        <pt x="860" y="26" on="1"/>
        <pt x="754" y="121" on="0"/>
        <pt x="654" y="340" on="1"/>
        <pt x="222" y="1275" on="1"/>
        <pt x="165" y="1402" on="0"/>
        <pt x="111" y="1465" on="0"/>
        <pt x="80" y="1478" on="0"/>
        <pt x="64" y="1478" on="1"/>
        <pt x="9" y="1471" on="1"/>
        <pt x="-9" y="1471" on="0"/>
        <pt x="-30" y="1496" on="0"/>
        <pt x="-30" y="1522" on="0"/>
        <pt x="-18" y="1544" on="0"/>
        <pt x="-6" y="1554" on="1"/>
        <pt x="20" y="1575" on="0"/>
        <pt x="113" y="1575" on="0"/>
        <pt x="207" y="1561" on="0"/>
        <pt x="264" y="1561" on="1"/>
        <pt x="533" y="1575" on="1"/>
        <pt x="584" y="1575" on="0"/>
        <pt x="636" y="1536" on="0"/>
        <pt x="636" y="1512" on="1"/>
        <pt x="636" y="1472" on="0"/>
        <pt x="599" y="1472" on="1"/>
        <pt x="521" y="1480" on="1"/>
        <pt x="458" y="1480" on="0"/>
        <pt x="458" y="1434" on="1"/>
        <pt x="458" y="1396" on="0"/>
        <pt x="500" y="1305" on="1"/>
        <pt x="867" y="495" on="1"/>
        <pt x="902" y="411" on="0"/>
        <pt x="919" y="401" on="0"/>
        <pt x="923" y="401" on="1"/>
        <pt x="931" y="401" on="0"/>
        <pt x="955" y="459" on="1"/>
        <pt x="1328" y="1265" on="1"/>
        <pt x="1369" y="1358" on="0"/>
        <pt x="1369" y="1444" on="1"/>
        <pt x="1369" y="1481" on="0"/>
        <pt x="1315" y="1481" on="1"/>
        <pt x="1228" y="1472" on="1"/>
        <pt x="1211" y="1472" on="0"/>
        <pt x="1190" y="1497" on="0"/>
        <pt x="1190" y="1533" on="0"/>
        <pt x="1238" y="1575" on="0"/>
        <pt x="1359" y="1575" on="0"/>
        <pt x="1479" y="1561" on="0"/>
        <pt x="1517" y="1561" on="1"/>
        <pt x="1683" y="1575" on="1"/>
        <pt x="1717" y="1575" on="0"/>
        <pt x="1766" y="1536" on="0"/>
        <pt x="1766" y="1516" on="1"/>
        <pt x="1766" y="1471" on="0"/>
      </contour>
    </TTGlyph>
    <TTGlyph name="W" xMin="-54" yMin="-38" xMax="2480" yMax="1576">
      <contour>
        <pt x="684" y="-35" on="1"/>
        <pt x="669" y="-35" on="0"/>
        <pt x="669" y="-17" on="1"/>
        <pt x="669" y="-3" on="0"/>
        <pt x="680" y="5" on="1"/>
        <pt x="696" y="16" on="0"/>
        <pt x="696" y="48" on="0"/>
        <pt x="686" y="89" on="0"/>
        <pt x="678" y="118" on="1"/>
        <pt x="660" y="178" on="0"/>
        <pt x="592" y="338" on="1"/>
        <pt x="198" y="1272" on="1"/>
        <pt x="121" y="1444" on="0"/>
        <pt x="72" y="1470" on="1"/>
        <pt x="56" y="1479" on="0"/>
        <pt x="41" y="1479" on="1"/>
        <pt x="-15" y="1472" on="1"/>
        <pt x="-34" y="1472" on="0"/>
        <pt x="-54" y="1497" on="0"/>
        <pt x="-54" y="1523" on="0"/>
        <pt x="-42" y="1545" on="0"/>
        <pt x="-30" y="1554" on="1"/>
        <pt x="-4" y="1576" on="0"/>
        <pt x="87" y="1576" on="0"/>
        <pt x="182" y="1561" on="0"/>
        <pt x="273" y="1561" on="0"/>
        <pt x="302" y="1564" on="1"/>
        <pt x="423" y="1574" on="1"/>
        <pt x="454" y="1576" on="0"/>
        <pt x="540" y="1576" on="0"/>
        <pt x="592" y="1537" on="0"/>
        <pt x="592" y="1513" on="1"/>
        <pt x="592" y="1473" on="0"/>
        <pt x="554" y="1473" on="1"/>
        <pt x="478" y="1481" on="1"/>
        <pt x="413" y="1481" on="0"/>
        <pt x="413" y="1435" on="1"/>
        <pt x="413" y="1407" on="0"/>
        <pt x="454" y="1306" on="1"/>
        <pt x="800" y="462" on="1"/>
        <pt x="822" y="406" on="0"/>
        <pt x="839" y="389" on="1"/>
        <pt x="861" y="368" on="0"/>
        <pt x="870" y="368" on="1"/>
        <pt x="897" y="368" on="0"/>
        <pt x="917" y="426" on="1"/>
        <pt x="1176" y="1159" on="1"/>
        <pt x="1128" y="1276" on="1"/>
        <pt x="1083" y="1406" on="0"/>
        <pt x="1029" y="1467" on="0"/>
        <pt x="993" y="1479" on="0"/>
        <pt x="972" y="1479" on="1"/>
        <pt x="916" y="1472" on="1"/>
        <pt x="897" y="1472" on="0"/>
        <pt x="877" y="1497" on="0"/>
        <pt x="877" y="1523" on="0"/>
        <pt x="889" y="1545" on="0"/>
        <pt x="900" y="1554" on="1"/>
        <pt x="927" y="1576" on="0"/>
        <pt x="972" y="1576" on="1"/>
        <pt x="1163" y="1561" on="1"/>
        <pt x="1196" y="1561" on="0"/>
        <pt x="1226" y="1564" on="1"/>
        <pt x="1346" y="1574" on="1"/>
        <pt x="1377" y="1576" on="0"/>
        <pt x="1463" y="1576" on="0"/>
        <pt x="1515" y="1537" on="0"/>
        <pt x="1515" y="1513" on="1"/>
        <pt x="1515" y="1473" on="0"/>
        <pt x="1477" y="1473" on="1"/>
        <pt x="1401" y="1481" on="1"/>
        <pt x="1366" y="1481" on="0"/>
        <pt x="1341" y="1460" on="0"/>
        <pt x="1341" y="1442" on="1"/>
        <pt x="1341" y="1415" on="0"/>
        <pt x="1376" y="1306" on="1"/>
        <pt x="1651" y="472" on="1"/>
        <pt x="1670" y="413" on="0"/>
        <pt x="1686" y="397" on="1"/>
        <pt x="1718" y="367" on="0"/>
        <pt x="1732" y="390" on="1"/>
        <pt x="1739" y="402" on="0"/>
        <pt x="1752" y="437" on="1"/>
        <pt x="2044" y="1285" on="1"/>
        <pt x="2086" y="1404" on="0"/>
        <pt x="2086" y="1482" on="0"/>
        <pt x="2023" y="1482" on="1"/>
        <pt x="1945" y="1473" on="1"/>
        <pt x="1928" y="1473" on="0"/>
        <pt x="1907" y="1498" on="0"/>
        <pt x="1907" y="1534" on="0"/>
        <pt x="1956" y="1576" on="0"/>
        <pt x="2078" y="1576" on="0"/>
        <pt x="2193" y="1561" on="0"/>
        <pt x="2272" y="1561" on="0"/>
        <pt x="2352" y="1576" on="0"/>
        <pt x="2413" y="1576" on="0"/>
        <pt x="2444" y="1565" on="0"/>
        <pt x="2455" y="1556" on="1"/>
        <pt x="2480" y="1537" on="0"/>
        <pt x="2480" y="1498" on="0"/>
        <pt x="2459" y="1472" on="0"/>
        <pt x="2441" y="1472" on="1"/>
        <pt x="2385" y="1479" on="1"/>
        <pt x="2359" y="1479" on="0"/>
        <pt x="2315" y="1468" on="0"/>
        <pt x="2292" y="1442" on="1"/>
        <pt x="2246" y="1388" on="0"/>
        <pt x="2181" y="1205" on="1"/>
        <pt x="1921" y="451" on="1"/>
        <pt x="1830" y="205" on="1"/>
        <pt x="1791" y="99" on="0"/>
        <pt x="1791" y="56" on="0"/>
        <pt x="1805" y="38" on="0"/>
        <pt x="1813" y="32" on="1"/>
        <pt x="1835" y="16" on="0"/>
        <pt x="1835" y="5" on="1"/>
        <pt x="1835" y="-38" on="0"/>
        <pt x="1797" y="-38" on="1"/>
        <pt x="1777" y="-38" on="0"/>
        <pt x="1694" y="2" on="0"/>
        <pt x="1646" y="42" on="1"/>
        <pt x="1528" y="142" on="0"/>
        <pt x="1475" y="287" on="1"/>
        <pt x="1251" y="918" on="1"/>
        <pt x="1029" y="300" on="1"/>
        <pt x="940" y="52" on="0"/>
        <pt x="762" y="-18" on="1"/>
        <pt x="718" y="-35" on="0"/>
      </contour>
    </TTGlyph>
    <TTGlyph name="Wacute" xMin="-54" yMin="-38" xMax="2480" yMax="2016">
      <component glyphName=".ttfautohint" x="0" y="0" flags="0x0"/>
      <component glyphName="W" x="0" y="0" flags="0x1204"/>
      <component glyphName="acute.cap" x="871" y="0" flags="0x1004"/>
    </TTGlyph>
    <TTGlyph name="Wcircumflex" xMin="-54" yMin="-38" xMax="2480" yMax="2020">
      <component glyphName=".ttfautohint" x="0" y="0" flags="0x0"/>
      <component glyphName="W" x="0" y="0" flags="0x1204"/>
      <component glyphName="circumflex.cap" x="751" y="0" flags="0x1004"/>
    </TTGlyph>
    <TTGlyph name="Wdieresis" xMin="-54" yMin="-38" xMax="2480" yMax="1972">
      <component glyphName=".ttfautohint" x="0" y="0" flags="0x0"/>
      <component glyphName="W" x="0" y="0" flags="0x1204"/>
      <component glyphName="dieresis.cap" x="658" y="0" flags="0x1004"/>
    </TTGlyph>
    <TTGlyph name="Wgrave" xMin="-54" yMin="-38" xMax="2480" yMax="2016">
      <component glyphName=".ttfautohint" x="0" y="0" flags="0x0"/>
      <component glyphName="W" x="0" y="0" flags="0x1204"/>
      <component glyphName="grave.cap" x="871" y="0" flags="0x1004"/>
    </TTGlyph>
    <TTGlyph name="X" xMin="-19" yMin="-14" xMax="1617" yMax="1576">
      <contour>
        <pt x="230" y="0" on="1"/>
        <pt x="64" y="-14" on="1"/>
        <pt x="30" y="-14" on="0"/>
        <pt x="-19" y="24" on="0"/>
        <pt x="-19" y="63" on="0"/>
        <pt x="2" y="90" on="0"/>
        <pt x="19" y="90" on="1"/>
        <pt x="76" y="83" on="1"/>
        <pt x="122" y="83" on="0"/>
        <pt x="208" y="190" on="1"/>
        <pt x="678" y="756" on="1"/>
        <pt x="181" y="1425" on="1"/>
        <pt x="157" y="1457" on="0"/>
        <pt x="128" y="1479" on="0"/>
        <pt x="105" y="1479" on="1"/>
        <pt x="105" y="1479" on="0"/>
        <pt x="49" y="1472" on="1"/>
        <pt x="11" y="1472" on="0"/>
        <pt x="11" y="1513" on="1"/>
        <pt x="11" y="1553" on="0"/>
        <pt x="63" y="1570" on="1"/>
        <pt x="81" y="1576" on="0"/>
        <pt x="105" y="1576" on="1"/>
        <pt x="129" y="1576" on="0"/>
        <pt x="152" y="1574" on="1"/>
        <pt x="271" y="1561" on="0"/>
        <pt x="305" y="1561" on="1"/>
        <pt x="574" y="1576" on="1"/>
        <pt x="625" y="1576" on="0"/>
        <pt x="676" y="1537" on="0"/>
        <pt x="676" y="1513" on="1"/>
        <pt x="676" y="1473" on="0"/>
        <pt x="639" y="1473" on="1"/>
        <pt x="562" y="1481" on="1"/>
        <pt x="497" y="1481" on="0"/>
        <pt x="497" y="1444" on="1"/>
        <pt x="497" y="1423" on="0"/>
        <pt x="518" y="1394" on="1"/>
        <pt x="855" y="929" on="1"/>
        <pt x="1075" y="1198" on="1"/>
        <pt x="1212" y="1366" on="0"/>
        <pt x="1212" y="1445" on="1"/>
        <pt x="1212" y="1482" on="0"/>
        <pt x="1148" y="1482" on="1"/>
        <pt x="1072" y="1473" on="1"/>
        <pt x="1055" y="1473" on="0"/>
        <pt x="1034" y="1498" on="0"/>
        <pt x="1034" y="1534" on="0"/>
        <pt x="1082" y="1576" on="0"/>
        <pt x="1203" y="1576" on="0"/>
        <pt x="1308" y="1561" on="0"/>
        <pt x="1387" y="1561" on="0"/>
        <pt x="1467" y="1576" on="0"/>
        <pt x="1546" y="1576" on="0"/>
        <pt x="1595" y="1537" on="0"/>
        <pt x="1595" y="1518" on="1"/>
        <pt x="1595" y="1472" on="0"/>
        <pt x="1557" y="1472" on="1"/>
        <pt x="1500" y="1479" on="1"/>
        <pt x="1477" y="1479" on="0"/>
        <pt x="1415" y="1418" on="0"/>
        <pt x="1369" y="1362" on="1"/>
        <pt x="945" y="815" on="1"/>
        <pt x="1446" y="137" on="1"/>
        <pt x="1479" y="90" on="0"/>
        <pt x="1503" y="85" on="1"/>
        <pt x="1512" y="83" on="0"/>
        <pt x="1524" y="83" on="1"/>
        <pt x="1579" y="90" on="1"/>
        <pt x="1597" y="90" on="0"/>
        <pt x="1617" y="64" on="0"/>
        <pt x="1617" y="28" on="0"/>
        <pt x="1571" y="-14" on="0"/>
        <pt x="1476" y="-14" on="0"/>
        <pt x="1384" y="0" on="0"/>
        <pt x="1324" y="0" on="1"/>
        <pt x="1054" y="-14" on="1"/>
        <pt x="1003" y="-14" on="0"/>
        <pt x="952" y="24" on="0"/>
        <pt x="952" y="49" on="1"/>
        <pt x="952" y="89" on="0"/>
        <pt x="989" y="89" on="1"/>
        <pt x="997" y="89" on="0"/>
        <pt x="1005" y="86" on="0"/>
        <pt x="1012" y="84" on="1"/>
        <pt x="1027" y="81" on="0"/>
        <pt x="1130" y="81" on="0"/>
        <pt x="1130" y="117" on="1"/>
        <pt x="1130" y="167" on="0"/>
        <pt x="1072" y="245" on="1"/>
        <pt x="768" y="631" on="1"/>
        <pt x="532" y="360" on="1"/>
        <pt x="374" y="167" on="0"/>
        <pt x="374" y="116" on="1"/>
        <pt x="374" y="80" on="0"/>
        <pt x="438" y="80" on="1"/>
        <pt x="516" y="89" on="1"/>
        <pt x="532" y="89" on="0"/>
        <pt x="553" y="63" on="0"/>
        <pt x="553" y="27" on="0"/>
        <pt x="505" y="-14" on="0"/>
        <pt x="381" y="-14" on="0"/>
        <pt x="267" y="0" on="0"/>
      </contour>
    </TTGlyph>
    <TTGlyph name="Y" xMin="-59" yMin="0" xMax="1590" yMax="1575">
      <contour>
        <pt x="1551" y="1481" on="1"/>
        <pt x="1485" y="1478" on="1"/>
        <pt x="1431" y="1478" on="0"/>
        <pt x="1404" y="1443" on="1"/>
        <pt x="895" y="677" on="1"/>
        <pt x="895" y="330" on="1"/>
        <pt x="895" y="200" on="0"/>
        <pt x="927" y="124" on="0"/>
        <pt x="971" y="98" on="0"/>
        <pt x="1023" y="98" on="0"/>
        <pt x="1047" y="101" on="0"/>
        <pt x="1068" y="104" on="0"/>
        <pt x="1089" y="107" on="0"/>
        <pt x="1120" y="107" on="0"/>
        <pt x="1140" y="77" on="0"/>
        <pt x="1140" y="53" on="0"/>
        <pt x="1128" y="32" on="0"/>
        <pt x="1115" y="22" on="1"/>
        <pt x="1084" y="0" on="0"/>
        <pt x="992" y="0" on="0"/>
        <pt x="925" y="5" on="0"/>
        <pt x="896" y="8" on="1"/>
        <pt x="838" y="12" on="1"/>
        <pt x="810" y="15" on="0"/>
        <pt x="777" y="15" on="1"/>
        <pt x="744" y="15" on="0"/>
        <pt x="716" y="12" on="1"/>
        <pt x="658" y="8" on="1"/>
        <pt x="507" y="-6" on="0"/>
        <pt x="451" y="13" on="0"/>
        <pt x="438" y="22" on="1"/>
        <pt x="413" y="42" on="0"/>
        <pt x="413" y="77" on="0"/>
        <pt x="433" y="107" on="0"/>
        <pt x="465" y="107" on="0"/>
        <pt x="486" y="104" on="0"/>
        <pt x="496" y="102" on="1"/>
        <pt x="528" y="98" on="0"/>
        <pt x="583" y="98" on="0"/>
        <pt x="627" y="124" on="0"/>
        <pt x="639" y="152" on="1"/>
        <pt x="659" y="199" on="0"/>
        <pt x="659" y="330" on="1"/>
        <pt x="659" y="671" on="1"/>
        <pt x="121" y="1443" on="1"/>
        <pt x="96" y="1478" on="0"/>
        <pt x="35" y="1478" on="1"/>
        <pt x="-20" y="1471" on="1"/>
        <pt x="-39" y="1471" on="0"/>
        <pt x="-59" y="1506" on="0"/>
        <pt x="-59" y="1542" on="0"/>
        <pt x="-13" y="1575" on="0"/>
        <pt x="35" y="1575" on="1"/>
        <pt x="235" y="1561" on="1"/>
        <pt x="504" y="1575" on="1"/>
        <pt x="607" y="1575" on="0"/>
        <pt x="607" y="1522" on="1"/>
        <pt x="607" y="1492" on="0"/>
        <pt x="580" y="1472" on="0"/>
        <pt x="569" y="1472" on="1"/>
        <pt x="492" y="1480" on="1"/>
        <pt x="428" y="1480" on="0"/>
        <pt x="428" y="1444" on="1"/>
        <pt x="428" y="1415" on="0"/>
        <pt x="472" y="1342" on="1"/>
        <pt x="823" y="827" on="1"/>
        <pt x="1127" y="1300" on="1"/>
        <pt x="1196" y="1403" on="0"/>
        <pt x="1196" y="1481" on="0"/>
        <pt x="1133" y="1481" on="1"/>
        <pt x="1056" y="1472" on="1"/>
        <pt x="1039" y="1472" on="0"/>
        <pt x="1019" y="1507" on="0"/>
        <pt x="1019" y="1543" on="0"/>
        <pt x="1066" y="1575" on="0"/>
        <pt x="1189" y="1575" on="0"/>
        <pt x="1303" y="1561" on="0"/>
        <pt x="1341" y="1561" on="1"/>
        <pt x="1507" y="1575" on="1"/>
        <pt x="1590" y="1575" on="0"/>
        <pt x="1590" y="1532" on="1"/>
        <pt x="1590" y="1503" on="0"/>
        <pt x="1560" y="1481" on="0"/>
      </contour>
    </TTGlyph>
    <TTGlyph name="Yacute" xMin="-59" yMin="0" xMax="1590" yMax="2016">
      <component glyphName=".ttfautohint" x="0" y="0" flags="0x0"/>
      <component glyphName="Y" x="0" y="0" flags="0x1204"/>
      <component glyphName="acute.cap" x="450" y="0" flags="0x1004"/>
    </TTGlyph>
    <TTGlyph name="Ycircumflex" xMin="-59" yMin="0" xMax="1590" yMax="2020">
      <component glyphName=".ttfautohint" x="0" y="0" flags="0x0"/>
      <component glyphName="Y" x="0" y="0" flags="0x1204"/>
      <component glyphName="circumflex.cap" x="330" y="0" flags="0x1004"/>
    </TTGlyph>
    <TTGlyph name="Ydieresis" xMin="-59" yMin="0" xMax="1590" yMax="1972">
      <component glyphName=".ttfautohint" x="0" y="0" flags="0x0"/>
      <component glyphName="Y" x="0" y="0" flags="0x1204"/>
      <component glyphName="dieresis.cap" x="237" y="0" flags="0x1004"/>
    </TTGlyph>
    <TTGlyph name="Ygrave" xMin="-59" yMin="0" xMax="1590" yMax="2016">
      <component glyphName=".ttfautohint" x="0" y="0" flags="0x0"/>
      <component glyphName="Y" x="0" y="0" flags="0x1204"/>
      <component glyphName="grave.cap" x="450" y="0" flags="0x1004"/>
    </TTGlyph>
    <TTGlyph name="Z" xMin="112" yMin="0" xMax="1461" yMax="1625">
      <contour>
        <pt x="190" y="0" on="1"/>
        <pt x="112" y="0" on="0"/>
        <pt x="112" y="45" on="1"/>
        <pt x="112" y="65" on="0"/>
        <pt x="145" y="110" on="1"/>
        <pt x="1084" y="1431" on="1"/>
        <pt x="678" y="1431" on="1"/>
        <pt x="534" y="1431" on="0"/>
        <pt x="411" y="1383" on="0"/>
        <pt x="339" y="1338" on="0"/>
        <pt x="309" y="1314" on="1"/>
        <pt x="258" y="1272" on="0"/>
        <pt x="204" y="1206" on="0"/>
        <pt x="185" y="1191" on="0"/>
        <pt x="174" y="1191" on="1"/>
        <pt x="152" y="1191" on="0"/>
        <pt x="152" y="1244" on="0"/>
        <pt x="171" y="1311" on="0"/>
        <pt x="185" y="1355" on="1"/>
        <pt x="221" y="1468" on="0"/>
        <pt x="244" y="1604" on="0"/>
        <pt x="265" y="1625" on="0"/>
        <pt x="276" y="1625" on="1"/>
        <pt x="298" y="1625" on="0"/>
        <pt x="327" y="1583" on="1"/>
        <pt x="349" y="1561" on="0"/>
        <pt x="438" y="1561" on="1"/>
        <pt x="1366" y="1561" on="1"/>
        <pt x="1426" y="1561" on="0"/>
        <pt x="1426" y="1528" on="1"/>
        <pt x="1426" y="1498" on="0"/>
        <pt x="1401" y="1464" on="1"/>
        <pt x="451" y="127" on="1"/>
        <pt x="931" y="129" on="1"/>
        <pt x="1062" y="129" on="0"/>
        <pt x="1145" y="176" on="1"/>
        <pt x="1219" y="219" on="0"/>
        <pt x="1374" y="382" on="1"/>
        <pt x="1405" y="416" on="0"/>
        <pt x="1420" y="416" on="1"/>
        <pt x="1461" y="416" on="0"/>
        <pt x="1461" y="379" on="1"/>
        <pt x="1461" y="354" on="0"/>
        <pt x="1431" y="296" on="1"/>
        <pt x="1432" y="296" on="1"/>
        <pt x="1372" y="169" on="0"/>
        <pt x="1332" y="0" on="1"/>
      </contour>
    </TTGlyph>
    <TTGlyph name="Zacute" xMin="112" yMin="0" xMax="1461" yMax="2016">
      <component glyphName=".ttfautohint" x="112" y="0" flags="0x0"/>
      <component glyphName="Z" x="0" y="0" flags="0x1204"/>
      <component glyphName="acute.cap" x="447" y="0" flags="0x1004"/>
    </TTGlyph>
    <TTGlyph name="Zcaron" xMin="112" yMin="0" xMax="1461" yMax="2020">
      <component glyphName=".ttfautohint" x="112" y="0" flags="0x0"/>
      <component glyphName="Z" x="0" y="0" flags="0x1204"/>
      <component glyphName="caron.cap" x="327" y="0" flags="0x1004"/>
    </TTGlyph>
    <TTGlyph name="Zdotaccent" xMin="112" yMin="0" xMax="1461" yMax="2020">
      <component glyphName=".ttfautohint" x="112" y="0" flags="0x0"/>
      <component glyphName="Z" x="0" y="0" flags="0x1204"/>
      <component glyphName="dotaccent.cap" x="494" y="0" flags="0x1004"/>
    </TTGlyph>
    <TTGlyph name="a" xMin="147" yMin="-24" xMax="1334" yMax="1060">
      <contour>
        <pt x="966" y="-6" on="1"/>
        <pt x="908" y="-6" on="0"/>
        <pt x="897" y="99" on="1"/>
        <pt x="810" y="12" on="0"/>
        <pt x="664" y="-16" on="1"/>
        <pt x="619" y="-24" on="0"/>
        <pt x="467" y="-24" on="0"/>
        <pt x="307" y="22" on="0"/>
        <pt x="254" y="64" on="1"/>
        <pt x="147" y="149" on="0"/>
        <pt x="147" y="301" on="1"/>
        <pt x="147" y="466" on="0"/>
        <pt x="286" y="553" on="1"/>
        <pt x="405" y="627" on="0"/>
        <pt x="584" y="627" on="1"/>
        <pt x="755" y="627" on="0"/>
        <pt x="895" y="553" on="1"/>
        <pt x="895" y="667" on="1"/>
        <pt x="895" y="864" on="0"/>
        <pt x="712" y="900" on="1"/>
        <pt x="656" y="911" on="0"/>
        <pt x="551" y="911" on="0"/>
        <pt x="479" y="902" on="0"/>
        <pt x="446" y="888" on="1"/>
        <pt x="377" y="859" on="0"/>
        <pt x="315" y="775" on="1"/>
        <pt x="268" y="711" on="0"/>
        <pt x="210" y="711" on="0"/>
        <pt x="210" y="741" on="1"/>
        <pt x="210" y="759" on="0"/>
        <pt x="222" y="799" on="1"/>
        <pt x="248" y="881" on="0"/>
        <pt x="248" y="1010" on="1"/>
        <pt x="248" y="1060" on="0"/>
        <pt x="286" y="1060" on="1"/>
        <pt x="326" y="1060" on="0"/>
        <pt x="355" y="1042" on="1"/>
        <pt x="395" y="1017" on="0"/>
        <pt x="401" y="1017" on="1"/>
        <pt x="545" y="1053" on="0"/>
        <pt x="793" y="1053" on="0"/>
        <pt x="982" y="988" on="0"/>
        <pt x="1036" y="932" on="1"/>
        <pt x="1128" y="837" on="0"/>
        <pt x="1128" y="643" on="1"/>
        <pt x="1128" y="354" on="1"/>
        <pt x="1128" y="175" on="0"/>
        <pt x="1164" y="100" on="0"/>
        <pt x="1207" y="87" on="0"/>
        <pt x="1239" y="87" on="1"/>
        <pt x="1296" y="95" on="1"/>
        <pt x="1313" y="95" on="0"/>
        <pt x="1334" y="66" on="0"/>
        <pt x="1334" y="45" on="0"/>
        <pt x="1325" y="23" on="0"/>
        <pt x="1314" y="14" on="1"/>
        <pt x="1286" y="-9" on="0"/>
        <pt x="1234" y="-9" on="1"/>
        <pt x="1080" y="0" on="1"/>
      </contour>
      <contour>
        <pt x="895" y="427" on="1"/>
        <pt x="777" y="501" on="0"/>
        <pt x="643" y="501" on="1"/>
        <pt x="456" y="501" on="0"/>
        <pt x="400" y="394" on="1"/>
        <pt x="383" y="362" on="0"/>
        <pt x="383" y="323" on="1"/>
        <pt x="383" y="220" on="0"/>
        <pt x="520" y="117" on="0"/>
        <pt x="644" y="117" on="1"/>
        <pt x="796" y="117" on="0"/>
        <pt x="895" y="237" on="1"/>
      </contour>
    </TTGlyph>
    <TTGlyph name="aacute" xMin="147" yMin="-24" xMax="1334" yMax="1602">
      <component glyphName=".ttfautohint" x="147" y="0" flags="0x0"/>
      <component glyphName="a" x="0" y="0" flags="0x1204"/>
      <component glyphName="acute" x="343" y="0" flags="0x1004"/>
    </TTGlyph>
    <TTGlyph name="abreve" xMin="147" yMin="-24" xMax="1334" yMax="1592">
      <component glyphName=".ttfautohint" x="147" y="0" flags="0x0"/>
      <component glyphName="a" x="0" y="0" flags="0x1204"/>
      <component glyphName="breve" x="155" y="0" flags="0x1004"/>
    </TTGlyph>
    <TTGlyph name="acircumflex" xMin="147" yMin="-24" xMax="1334" yMax="1611">
      <component glyphName=".ttfautohint" x="147" y="0" flags="0x0"/>
      <component glyphName="a" x="0" y="0" flags="0x1204"/>
      <component glyphName="circumflex" x="223" y="0" flags="0x1004"/>
    </TTGlyph>
    <TTGlyph name="acute" xMin="199" yMin="1211" xMax="644" yMax="1602">
      <contour>
        <pt x="276" y="1220" on="1"/>
        <pt x="224" y="1190" on="0"/>
        <pt x="207" y="1211" on="1"/>
        <pt x="193" y="1229" on="0"/>
        <pt x="206" y="1257" on="0"/>
        <pt x="214" y="1268" on="1"/>
        <pt x="367" y="1476" on="1"/>
        <pt x="423" y="1552" on="0"/>
        <pt x="455" y="1572" on="1"/>
        <pt x="499" y="1600" on="0"/>
        <pt x="586" y="1603" on="0"/>
        <pt x="642" y="1558" on="0"/>
        <pt x="645" y="1501" on="0"/>
        <pt x="636" y="1463" on="0"/>
        <pt x="622" y="1443" on="1"/>
        <pt x="593" y="1402" on="0"/>
        <pt x="511" y="1355" on="1"/>
      </contour>
    </TTGlyph>
    <TTGlyph name="acute.cap" xMin="196" yMin="1649" xMax="645" yMax="2016">
      <contour>
        <pt x="272" y="1665" on="1"/>
        <pt x="240" y="1649" on="0"/>
        <pt x="210" y="1649" on="0"/>
        <pt x="196" y="1669" on="0"/>
        <pt x="196" y="1678" on="1"/>
        <pt x="196" y="1691" on="0"/>
        <pt x="213" y="1714" on="1"/>
        <pt x="372" y="1901" on="1"/>
        <pt x="450" y="1998" on="0"/>
        <pt x="512" y="2012" on="1"/>
        <pt x="533" y="2016" on="0"/>
        <pt x="593" y="2016" on="0"/>
        <pt x="645" y="1969" on="0"/>
        <pt x="645" y="1928" on="1"/>
        <pt x="645" y="1848" on="0"/>
        <pt x="508" y="1775" on="1"/>
      </contour>
    </TTGlyph>
    <TTGlyph name="adieresis" xMin="147" yMin="-24" xMax="1334" yMax="1542">
      <component glyphName=".ttfautohint" x="147" y="0" flags="0x0"/>
      <component glyphName="a" x="0" y="0" flags="0x1204"/>
      <component glyphName="dieresis" x="180" y="0" flags="0x1004"/>
    </TTGlyph>
    <TTGlyph name="ae" xMin="147" yMin="-25" xMax="1938" yMax="1060">
      <contour>
        <pt x="1020" y="155" on="1"/>
        <pt x="943" y="70" on="0"/>
        <pt x="720" y="-24" on="0"/>
        <pt x="485" y="-24" on="0"/>
        <pt x="320" y="22" on="0"/>
        <pt x="263" y="64" on="1"/>
        <pt x="147" y="151" on="0"/>
        <pt x="147" y="301" on="1"/>
        <pt x="147" y="443" on="0"/>
        <pt x="282" y="536" on="1"/>
        <pt x="416" y="627" on="0"/>
        <pt x="624" y="627" on="1"/>
        <pt x="765" y="627" on="0"/>
        <pt x="893" y="573" on="1"/>
        <pt x="885" y="771" on="0"/>
        <pt x="814" y="846" on="1"/>
        <pt x="751" y="911" on="0"/>
        <pt x="601" y="911" on="1"/>
        <pt x="508" y="911" on="0"/>
        <pt x="461" y="892" on="1"/>
        <pt x="377" y="859" on="0"/>
        <pt x="315" y="775" on="1"/>
        <pt x="268" y="711" on="0"/>
        <pt x="210" y="711" on="0"/>
        <pt x="210" y="741" on="1"/>
        <pt x="210" y="759" on="0"/>
        <pt x="222" y="799" on="1"/>
        <pt x="248" y="881" on="0"/>
        <pt x="248" y="1010" on="1"/>
        <pt x="248" y="1060" on="0"/>
        <pt x="285" y="1060" on="1"/>
        <pt x="300" y="1060" on="0"/>
        <pt x="330" y="1046" on="1"/>
        <pt x="374" y="1026" on="1"/>
        <pt x="389" y="1019" on="0"/>
        <pt x="407" y="1019" on="0"/>
        <pt x="418" y="1022" on="0"/>
        <pt x="447" y="1031" on="0"/>
        <pt x="491" y="1041" on="0"/>
        <pt x="517" y="1045" on="1"/>
        <pt x="569" y="1053" on="0"/>
        <pt x="643" y="1053" on="1"/>
        <pt x="922" y="1053" on="0"/>
        <pt x="1039" y="875" on="1"/>
        <pt x="1160" y="1002" on="0"/>
        <pt x="1344" y="1040" on="1"/>
        <pt x="1403" y="1053" on="0"/>
        <pt x="1463" y="1053" on="1"/>
        <pt x="1759" y="1053" on="0"/>
        <pt x="1912" y="782" on="1"/>
        <pt x="1938" y="735" on="0"/>
        <pt x="1938" y="709" on="1"/>
        <pt x="1938" y="658" on="0"/>
        <pt x="1891" y="642" on="1"/>
        <pt x="1637" y="549" on="0"/>
        <pt x="1440" y="501" on="1"/>
        <pt x="1151" y="430" on="1"/>
        <pt x="1196" y="275" on="0"/>
        <pt x="1310" y="194" on="1"/>
        <pt x="1410" y="123" on="0"/>
        <pt x="1629" y="123" on="0"/>
        <pt x="1768" y="180" on="0"/>
        <pt x="1816" y="249" on="1"/>
        <pt x="1847" y="290" on="0"/>
        <pt x="1894" y="290" on="0"/>
        <pt x="1921" y="262" on="0"/>
        <pt x="1921" y="251" on="1"/>
        <pt x="1921" y="210" on="0"/>
        <pt x="1883" y="158" on="1"/>
        <pt x="1749" y="-24" on="0"/>
        <pt x="1178" y="-24" on="0"/>
      </contour>
      <contour>
        <pt x="1132" y="524" on="1"/>
        <pt x="1445" y="601" on="0"/>
        <pt x="1667" y="676" on="1"/>
        <pt x="1689" y="684" on="0"/>
        <pt x="1689" y="729" on="0"/>
        <pt x="1654" y="804" on="0"/>
        <pt x="1621" y="838" on="1"/>
        <pt x="1541" y="919" on="0"/>
        <pt x="1436" y="919" on="1"/>
        <pt x="1306" y="919" on="0"/>
        <pt x="1223" y="844" on="1"/>
        <pt x="1128" y="759" on="0"/>
        <pt x="1128" y="602" on="1"/>
        <pt x="1128" y="562" on="0"/>
      </contour>
      <contour>
        <pt x="884" y="188" on="1"/>
        <pt x="921" y="214" on="0"/>
        <pt x="953" y="246" on="1"/>
        <pt x="903" y="333" on="0"/>
        <pt x="895" y="459" on="1"/>
        <pt x="789" y="511" on="0"/>
        <pt x="540" y="511" on="0"/>
        <pt x="392" y="402" on="0"/>
        <pt x="392" y="213" on="0"/>
        <pt x="531" y="107" on="0"/>
        <pt x="766" y="107" on="0"/>
      </contour>
    </TTGlyph>
    <TTGlyph name="aeacute" xMin="175" yMin="-24" xMax="1966" yMax="1602">
      <component glyphName=".ttfautohint" x="175" y="0" flags="0x0"/>
      <component glyphName="ae" x="28" y="0" flags="0x1004"/>
      <component glyphName="acute" x="732" y="0" flags="0x1004"/>
    </TTGlyph>
    <TTGlyph name="agrave" xMin="147" yMin="-24" xMax="1334" yMax="1597">
      <component glyphName=".ttfautohint" x="147" y="0" flags="0x0"/>
      <component glyphName="a" x="0" y="0" flags="0x1204"/>
      <component glyphName="grave" x="343" y="0" flags="0x1004"/>
    </TTGlyph>
    <TTGlyph name="amacron" xMin="147" yMin="-24" xMax="1334" yMax="1455">
      <component glyphName=".ttfautohint" x="147" y="0" flags="0x0"/>
      <component glyphName="a" x="0" y="0" flags="0x1204"/>
      <component glyphName="macron" x="227" y="0" flags="0x1004"/>
    </TTGlyph>
    <TTGlyph name="ampersand" xMin="171" yMin="-23" xMax="1791" yMax="1592">
      <contour>
        <pt x="1176" y="207" on="1"/>
        <pt x="944" y="-23" on="0"/>
        <pt x="677" y="-23" on="1"/>
        <pt x="447" y="-23" on="0"/>
        <pt x="306" y="94" on="1"/>
        <pt x="171" y="206" on="0"/>
        <pt x="171" y="376" on="1"/>
        <pt x="171" y="526" on="0"/>
        <pt x="257" y="629" on="1"/>
        <pt x="346" y="736" on="0"/>
        <pt x="550" y="826" on="1"/>
        <pt x="390" y="1002" on="0"/>
        <pt x="364" y="1142" on="1"/>
        <pt x="356" y="1188" on="0"/>
        <pt x="356" y="1304" on="0"/>
        <pt x="413" y="1433" on="0"/>
        <pt x="470" y="1482" on="1"/>
        <pt x="596" y="1592" on="0"/>
        <pt x="812" y="1592" on="1"/>
        <pt x="1004" y="1592" on="0"/>
        <pt x="1111" y="1502" on="1"/>
        <pt x="1211" y="1418" on="0"/>
        <pt x="1211" y="1284" on="1"/>
        <pt x="1211" y="1002" on="0"/>
        <pt x="848" y="846" on="1"/>
        <pt x="924" y="765" on="0"/>
        <pt x="1024" y="670" on="1"/>
        <pt x="1249" y="458" on="1"/>
        <pt x="1412" y="663" on="0"/>
        <pt x="1412" y="783" on="1"/>
        <pt x="1412" y="832" on="0"/>
        <pt x="1345" y="832" on="1"/>
        <pt x="1279" y="826" on="1"/>
        <pt x="1259" y="826" on="0"/>
        <pt x="1230" y="860" on="0"/>
        <pt x="1230" y="892" on="1"/>
        <pt x="1230" y="957" on="0"/>
        <pt x="1344" y="957" on="1"/>
        <pt x="1400" y="957" on="0"/>
        <pt x="1492" y="942" on="0"/>
        <pt x="1574" y="942" on="0"/>
        <pt x="1642" y="957" on="0"/>
        <pt x="1705" y="957" on="0"/>
        <pt x="1738" y="946" on="0"/>
        <pt x="1748" y="937" on="1"/>
        <pt x="1766" y="921" on="0"/>
        <pt x="1766" y="861" on="0"/>
        <pt x="1734" y="823" on="0"/>
        <pt x="1718" y="823" on="1"/>
        <pt x="1669" y="829" on="1"/>
        <pt x="1596" y="827" on="0"/>
        <pt x="1536" y="702" on="1"/>
        <pt x="1433" y="516" on="0"/>
        <pt x="1326" y="386" on="1"/>
        <pt x="1611" y="104" on="1"/>
        <pt x="1642" y="71" on="0"/>
        <pt x="1701" y="71" on="1"/>
        <pt x="1752" y="80" on="1"/>
        <pt x="1769" y="80" on="0"/>
        <pt x="1791" y="61" on="0"/>
        <pt x="1791" y="47" on="1"/>
        <pt x="1791" y="-8" on="0"/>
        <pt x="1682" y="-8" on="1"/>
        <pt x="1539" y="0" on="1"/>
        <pt x="1437" y="-5" on="1"/>
        <pt x="1398" y="-5" on="0"/>
        <pt x="1357" y="33" on="1"/>
      </contour>
      <contour>
        <pt x="777" y="924" on="1"/>
        <pt x="885" y="984" on="0"/>
        <pt x="944" y="1078" on="1"/>
        <pt x="989" y="1152" on="0"/>
        <pt x="989" y="1287" on="0"/>
        <pt x="950" y="1385" on="0"/>
        <pt x="920" y="1414" on="1"/>
        <pt x="867" y="1467" on="0"/>
        <pt x="781" y="1467" on="1"/>
        <pt x="695" y="1467" on="0"/>
        <pt x="636" y="1409" on="1"/>
        <pt x="577" y="1352" on="0"/>
        <pt x="577" y="1266" on="1"/>
        <pt x="577" y="1185" on="0"/>
        <pt x="614" y="1126" on="1"/>
        <pt x="629" y="1103" on="0"/>
        <pt x="652" y="1074" on="1"/>
      </contour>
      <contour>
        <pt x="414" y="394" on="1"/>
        <pt x="414" y="337" on="0"/>
        <pt x="460" y="232" on="0"/>
        <pt x="502" y="196" on="1"/>
        <pt x="585" y="126" on="0"/>
        <pt x="735" y="126" on="1"/>
        <pt x="940" y="126" on="0"/>
        <pt x="1100" y="280" on="1"/>
        <pt x="621" y="752" on="1"/>
        <pt x="414" y="626" on="0"/>
      </contour>
    </TTGlyph>
    <TTGlyph name="aogonek" xMin="147" yMin="-463" xMax="1334" yMax="1060">
      <contour>
        <pt x="966" y="-6" on="1"/>
        <pt x="908" y="-6" on="0"/>
        <pt x="897" y="99" on="1"/>
        <pt x="810" y="12" on="0"/>
        <pt x="664" y="-16" on="1"/>
        <pt x="619" y="-24" on="0"/>
        <pt x="467" y="-24" on="0"/>
        <pt x="307" y="22" on="0"/>
        <pt x="254" y="64" on="1"/>
        <pt x="147" y="149" on="0"/>
        <pt x="147" y="301" on="1"/>
        <pt x="147" y="466" on="0"/>
        <pt x="286" y="553" on="1"/>
        <pt x="405" y="627" on="0"/>
        <pt x="584" y="627" on="1"/>
        <pt x="755" y="627" on="0"/>
        <pt x="895" y="553" on="1"/>
        <pt x="895" y="667" on="1"/>
        <pt x="895" y="864" on="0"/>
        <pt x="712" y="900" on="1"/>
        <pt x="656" y="911" on="0"/>
        <pt x="551" y="911" on="0"/>
        <pt x="479" y="902" on="0"/>
        <pt x="446" y="888" on="1"/>
        <pt x="377" y="859" on="0"/>
        <pt x="315" y="775" on="1"/>
        <pt x="268" y="711" on="0"/>
        <pt x="210" y="711" on="0"/>
        <pt x="210" y="741" on="1"/>
        <pt x="210" y="759" on="0"/>
        <pt x="222" y="799" on="1"/>
        <pt x="248" y="881" on="0"/>
        <pt x="248" y="1010" on="1"/>
        <pt x="248" y="1060" on="0"/>
        <pt x="286" y="1060" on="1"/>
        <pt x="326" y="1060" on="0"/>
        <pt x="355" y="1042" on="1"/>
        <pt x="395" y="1017" on="0"/>
        <pt x="401" y="1017" on="1"/>
        <pt x="545" y="1053" on="0"/>
        <pt x="793" y="1053" on="0"/>
        <pt x="982" y="988" on="0"/>
        <pt x="1036" y="932" on="1"/>
        <pt x="1128" y="837" on="0"/>
        <pt x="1128" y="643" on="1"/>
        <pt x="1128" y="354" on="1"/>
        <pt x="1128" y="175" on="0"/>
        <pt x="1164" y="100" on="0"/>
        <pt x="1207" y="87" on="0"/>
        <pt x="1239" y="87" on="1"/>
        <pt x="1296" y="95" on="1"/>
        <pt x="1313" y="95" on="0"/>
        <pt x="1334" y="66" on="0"/>
        <pt x="1334" y="45" on="0"/>
        <pt x="1325" y="23" on="0"/>
        <pt x="1314" y="14" on="1"/>
        <pt x="1286" y="-9" on="0"/>
        <pt x="1234" y="-9" on="1"/>
        <pt x="1229" y="-9" on="0"/>
        <pt x="1138" y="-2" on="1"/>
        <pt x="1072" y="-70" on="0"/>
        <pt x="1072" y="-191" on="1"/>
        <pt x="1072" y="-302" on="0"/>
        <pt x="1172" y="-364" on="1"/>
        <pt x="1207" y="-385" on="0"/>
        <pt x="1282" y="-405" on="0"/>
        <pt x="1298" y="-423" on="0"/>
        <pt x="1298" y="-434" on="1"/>
        <pt x="1298" y="-445" on="0"/>
        <pt x="1279" y="-461" on="0"/>
        <pt x="1264" y="-461" on="1"/>
        <pt x="1044" y="-463" on="1"/>
        <pt x="982" y="-463" on="0"/>
        <pt x="955" y="-432" on="1"/>
        <pt x="906" y="-376" on="0"/>
        <pt x="906" y="-281" on="1"/>
        <pt x="906" y="-117" on="0"/>
        <pt x="1015" y="-4" on="1"/>
        <pt x="993" y="-6" on="0"/>
      </contour>
      <contour>
        <pt x="895" y="427" on="1"/>
        <pt x="777" y="501" on="0"/>
        <pt x="643" y="501" on="1"/>
        <pt x="456" y="501" on="0"/>
        <pt x="400" y="394" on="1"/>
        <pt x="383" y="362" on="0"/>
        <pt x="383" y="323" on="1"/>
        <pt x="383" y="220" on="0"/>
        <pt x="520" y="117" on="0"/>
        <pt x="644" y="117" on="1"/>
        <pt x="796" y="117" on="0"/>
        <pt x="895" y="237" on="1"/>
      </contour>
    </TTGlyph>
</ttFont>
